<?xml version="1.0" encoding="UTF-8" standalone="no"?>
<!DOCTYPE svg PUBLIC "-//W3C//DTD SVG 1.1//EN" "http://www.w3.org/Graphics/SVG/1.1/DTD/svg11.dtd">
<!-- Created with Vectornator (http://vectornator.io/) -->
<svg height="100%" stroke-miterlimit="10" style="fill-rule:nonzero;clip-rule:evenodd;stroke-linecap:round;stroke-linejoin:round;" version="1.1" viewBox="0 0 500 188" width="100%" xml:space="preserve" xmlns="http://www.w3.org/2000/svg" xmlns:vectornator="http://vectornator.io" xmlns:xlink="http://www.w3.org/1999/xlink">
<defs/>
<clipPath id="ArtboardFrame">
<rect height="188" width="500" x="0" y="0"/>
</clipPath>
<g clip-path="url(#ArtboardFrame)" id="Layer-1" vectornator:layerName="Layer 1">
<g opacity="1">
<clipPath id="ClipPath">
<path d="M-5.22395 60.3657L59.8731 60.3657L59.8731 60.3657L59.8731 135.04L59.8731 135.04L-5.22395 135.04L-5.22395 135.04L-5.22395 60.3657L-5.22395 60.3657Z" fill-rule="evenodd"/>
</clipPath>
<g clip-path="url(#ClipPath)">
<path d="M6.24955 113.408C7.06273 111.691 8.14698 110.098 9.50229 108.63C10.8576 107.162 12.3597 105.852 14.0087 104.7C15.6577 103.548 17.4196 102.599 19.2944 101.854C21.1692 101.108 23.0328 100.6 24.885 100.329C25.6531 100.193 26.6695 100.182 27.9345 100.295C29.1994 100.408 30.4757 100.442 31.7632 100.397C33.0508 100.351 34.1915 100.126 35.1854 99.719C36.1793 99.3124 36.7892 98.567 37.0151 97.4827C37.1506 96.8503 37.0941 96.3081 36.8456 95.8564C36.5972 95.4046 36.2583 95.0093 35.8292 94.6705C35.4 94.3317 34.9143 94.0719 34.3722 93.8912C33.8301 93.7105 33.3105 93.5975 32.8136 93.5524C30.6903 93.4168 28.6121 93.3716 26.5792 93.4168C24.5462 93.462 22.5923 93.3491 20.7175 93.078C18.8426 92.8069 17.0468 92.2535 15.3301 91.4177C13.6134 90.582 11.987 89.238 10.451 87.3857C8.73428 85.2624 7.66133 82.9358 7.23215 80.4059C6.80297 77.8759 6.9272 75.4138 7.60486 73.0194C8.28251 70.625 9.45711 68.434 11.1287 66.4462C12.8002 64.4584 14.8783 62.9901 17.3631 62.0414C19.396 61.2734 21.4968 60.9007 23.6653 60.9233C25.8338 60.9459 28.0023 60.9572 30.1707 60.9572L51.3136 60.9572C50.3648 62.8094 49.2128 64.4471 47.8575 65.8702C46.5022 67.2932 45.0001 68.5243 43.3511 69.5634C41.7022 70.6025 39.9403 71.4608 38.0654 72.1385C36.1906 72.8161 34.2818 73.3357 32.3392 73.6971C31.5712 73.8326 30.5548 73.8778 29.2898 73.8326C28.0248 73.7874 26.7712 73.8213 25.5288 73.9343C24.2864 74.0472 23.1796 74.2957 22.2083 74.6797C21.237 75.0637 20.6158 75.7752 20.3448 76.8143C20.2092 77.4016 20.2544 77.9324 20.4803 78.4068C20.7062 78.8811 21.0337 79.2877 21.4629 79.6266C21.8921 79.9654 22.3777 80.2252 22.9198 80.4059C23.462 80.5866 23.9589 80.6995 24.4107 80.7447C26.4888 80.8802 28.5331 80.9141 30.5435 80.8463C32.5538 80.7786 34.5077 80.8576 36.4052 81.0835C38.3026 81.3094 40.121 81.8063 41.8603 82.5744C43.5996 83.3424 45.2373 84.6525 46.7733 86.5047C48.49 88.5829 49.5968 90.8982 50.0938 93.4507C50.5907 96.0032 50.5343 98.4992 49.9244 100.939C49.3145 103.378 48.1851 105.603 46.5361 107.614C44.8871 109.624 42.7977 111.126 40.2678 112.12C39.4998 112.436 38.4946 112.673 37.2522 112.832C36.0099 112.99 34.6659 113.114 33.2202 113.204C31.7745 113.295 30.2498 113.351 28.646 113.374C27.0422 113.396 25.4949 113.408 24.0041 113.408L6.24955 113.408Z" fill="#ef233c" fill-rule="evenodd" opacity="1" stroke="none"/>
</g>
</g>
<g opacity="1">
<g opacity="1">
<clipPath id="ClipPath_2">
<path d="M50.0221 60.3671L498.733 60.3671L498.733 60.3671L498.733 135.042L498.733 135.042L50.0221 135.042L50.0221 135.042L50.0221 60.3671L50.0221 60.3671Z" fill-rule="evenodd"/>
</clipPath>
<g clip-path="url(#ClipPath_2)">
<path d="M102.829 74.3761L102.829 93.9603C102.829 97.3486 102.208 100.296 100.966 102.804C99.7234 105.311 98.0745 107.412 96.019 109.106C93.9635 110.8 91.6256 112.065 89.0053 112.901C86.3851 113.736 83.7083 114.154 80.9751 114.154C78.2419 114.154 75.5652 113.725 72.9449 112.867C70.3246 112.008 67.9867 110.744 65.9312 109.072C63.8756 107.4 62.2267 105.3 60.9843 102.77C59.7419 100.24 59.1208 97.3034 59.1208 93.9603L59.1208 74.3761L62.509 74.3761L62.9156 74.3761L66.3039 74.3761L66.3039 93.9603C66.3039 98.478 67.9077 102.341 71.1152 105.548C74.2325 108.665 77.5191 110.201 80.9751 110.156C84.4311 110.111 87.7178 108.575 90.835 105.548C94.0877 102.341 95.7141 98.478 95.7141 93.9603L95.7141 74.3761L99.1023 74.3761L99.4411 74.3761L102.829 74.3761Z" fill="#ffffff" fill-rule="evenodd" opacity="1" stroke="none"/>
</g>
</g>
<g opacity="1">
<clipPath id="ClipPath_3">
<path d="M50.0221 60.3671L498.733 60.3671L498.733 60.3671L498.733 135.042L498.733 135.042L50.0221 135.042L50.0221 135.042L50.0221 60.3671L50.0221 60.3671Z" fill-rule="evenodd"/>
</clipPath>
<g clip-path="url(#ClipPath_3)">
<path d="M121.262 112.528L120.652 112.257L122.481 107.852C123.927 108.349 125.373 108.722 126.818 108.97C128.264 109.219 129.687 109.343 131.088 109.343C133.121 109.343 135.018 109.049 136.78 108.462C138.542 107.875 140.078 106.96 141.388 105.718C142.698 104.475 143.726 102.883 144.471 100.94C145.217 98.9975 145.589 96.6709 145.589 93.9603C145.589 91.2948 145.171 88.9682 144.336 86.9804C143.5 84.9927 142.382 83.3437 140.981 82.0336C139.581 80.7234 138 79.7408 136.238 79.0858C134.476 78.4307 132.669 78.1032 130.816 78.1032C128.964 78.1032 127.157 78.4307 125.395 79.0858C123.633 79.7408 122.063 80.7121 120.686 81.9997C119.308 83.2872 118.201 84.891 117.365 86.811C116.529 88.731 116.111 90.956 116.111 93.4859L116.111 128.588L108.928 128.588L108.928 93.9603C108.928 90.9786 109.504 88.2341 110.656 85.7268C111.808 83.2195 113.367 81.0623 115.332 79.2552C117.297 77.4481 119.59 76.0363 122.21 75.0198C124.831 74.0034 127.586 73.4951 130.478 73.4951C133.143 73.4951 135.718 73.9469 138.203 74.8504C140.688 75.754 142.901 77.0641 144.844 78.7808C146.787 80.4975 148.345 82.6096 149.52 85.1169C150.694 87.6242 151.282 90.5042 151.282 93.757C151.282 96.9645 150.717 99.8333 149.588 102.363C148.458 104.893 146.933 107.039 145.013 108.801C143.093 110.563 140.868 111.918 138.338 112.867C135.809 113.816 133.166 114.29 130.41 114.29C128.919 114.29 127.406 114.154 125.87 113.883C124.334 113.612 122.798 113.16 121.262 112.528Z" fill="#ffffff" fill-rule="evenodd" opacity="1" stroke="none"/>
</g>
</g>
<g opacity="1">
<clipPath id="ClipPath_4">
<path d="M50.0221 60.3671L498.733 60.3671L498.733 60.3671L498.733 135.042L498.733 135.042L50.0221 135.042L50.0221 135.042L50.0221 60.3671L50.0221 60.3671Z" fill-rule="evenodd"/>
</clipPath>
<g clip-path="url(#ClipPath_4)">
<path d="M166.529 91.8596L166.529 88.0647L191.602 88.0647C190.924 86.3028 190.1 84.7894 189.129 83.5244C188.157 82.2594 187.073 81.2204 185.876 80.4072C184.679 79.594 183.402 78.9954 182.047 78.6114C180.692 78.2274 179.314 78.0354 177.913 78.0354C175.971 78.0354 174.051 78.4081 172.153 79.1535C170.256 79.899 168.562 80.9606 167.071 82.3385C165.58 83.7164 164.383 85.388 163.479 87.3532C162.576 89.3183 162.124 91.5207 162.124 93.9603C162.124 96.3547 162.542 98.5344 163.378 100.5C164.214 102.465 165.332 104.136 166.732 105.514C168.133 106.892 169.759 107.954 171.611 108.699C173.464 109.445 175.406 109.817 177.439 109.817C179.788 109.817 182.149 109.275 184.521 108.191C186.892 107.107 189.117 105.413 191.195 103.109L195.126 106.903L194.652 107.378C192.348 109.682 189.716 111.399 186.757 112.528C183.798 113.657 180.782 114.222 177.71 114.222C174.954 114.222 172.289 113.782 169.714 112.901C167.139 112.02 164.846 110.721 162.836 109.004C160.825 107.287 159.21 105.175 157.99 102.668C156.771 100.161 156.161 97.2582 156.161 93.9603C156.161 90.6172 156.782 87.6807 158.024 85.1508C159.267 82.6209 160.916 80.5088 162.971 78.8147C165.027 77.1206 167.353 75.8443 169.951 74.986C172.549 74.1276 175.203 73.6984 177.913 73.6984C180.398 73.6984 182.838 74.0598 185.232 74.7827C187.627 75.5055 189.806 76.5784 191.772 78.0015C193.737 79.4246 195.42 81.2204 196.82 83.3889C198.221 85.5574 199.147 88.1099 199.598 91.0464L199.734 91.8596L166.529 91.8596Z" fill="#ffffff" fill-rule="evenodd" opacity="1" stroke="none"/>
</g>
</g>
<g opacity="1">
<clipPath id="ClipPath_5">
<path d="M50.0221 60.3671L498.733 60.3671L498.733 60.3671L498.733 135.042L498.733 135.042L50.0221 135.042L50.0221 135.042L50.0221 60.3671L50.0221 60.3671Z" fill-rule="evenodd"/>
</clipPath>
<g clip-path="url(#ClipPath_5)">
<path d="M228.534 77.4255L227.857 77.4255C225.598 77.4255 223.474 77.8547 221.487 78.7131C219.499 79.5714 217.76 80.746 216.269 82.2369C214.778 83.7277 213.603 85.4783 212.745 87.4887C211.887 89.4991 211.457 91.6337 211.457 93.8925L211.457 113.409L204.342 113.409L204.342 93.8925C204.342 88.155 206.375 83.3437 210.441 79.4585C211.796 78.1483 213.174 77.1093 214.575 76.3413C215.975 75.5733 217.409 74.9973 218.878 74.6132C220.346 74.2292 221.871 73.9808 223.452 73.8678C225.033 73.7549 226.727 73.6984 228.534 73.6984L228.534 77.4255Z" fill="#ffffff" fill-rule="evenodd" opacity="1" stroke="none"/>
</g>
</g>
<g opacity="1">
<clipPath id="ClipPath_6">
<path d="M50.0221 60.3671L498.733 60.3671L498.733 60.3671L498.733 135.042L498.733 135.042L50.0221 135.042L50.0221 135.042L50.0221 60.3671L50.0221 60.3671Z" fill-rule="evenodd"/>
</clipPath>
<g clip-path="url(#ClipPath_6)">
<path d="M284.712 113.409L277.461 113.409L277.461 87.8614C277.461 86.3706 277.235 85.0152 276.783 83.7955C276.331 82.5757 275.722 81.5253 274.954 80.6444C274.186 79.7634 273.305 79.0858 272.311 78.6114C271.317 78.137 270.278 77.8999 269.194 77.8999C268.2 77.8999 267.307 78.0693 266.517 78.4081C265.726 78.7469 265.015 79.1987 264.382 79.7634C263.75 80.3281 263.174 80.9719 262.654 81.6947C262.135 82.4176 261.672 83.1856 261.265 83.9988C261.175 84.2698 261.107 84.4957 261.062 84.6764L260.994 84.7442L260.994 84.8119L260.994 113.409L253.743 113.409L253.743 84.7442C253.698 84.6538 253.675 84.6087 253.675 84.6087C253.585 84.3376 253.495 84.1343 253.404 83.9988C253.314 83.7729 253.223 83.5696 253.133 83.3889C253.043 83.2082 252.975 83.0952 252.93 83.05C252.026 81.243 250.931 79.9328 249.643 79.1196C248.356 78.3065 247.034 77.8999 245.679 77.8999C244.595 77.8999 243.544 78.1483 242.528 78.6453C241.511 79.1422 240.596 79.8312 239.783 80.7121C238.97 81.5931 238.326 82.6435 237.852 83.8632C237.378 85.083 237.14 86.4157 237.14 87.8614L237.14 113.409L229.89 113.409L229.89 87.3193C229.89 85.1056 230.353 83.1517 231.279 81.4576C232.205 79.7634 233.413 78.3291 234.904 77.1545C236.395 75.9799 238.1 75.0876 240.02 74.4777C241.941 73.8678 243.894 73.5629 245.882 73.5629C248.051 73.5629 250.14 73.9243 252.151 74.6471C254.161 75.37 255.911 76.4994 257.402 78.0354C258.848 76.5446 260.565 75.4377 262.553 74.7149C264.54 73.9921 266.618 73.6306 268.787 73.6306C270.775 73.6306 272.717 73.9356 274.615 74.5455C276.512 75.1554 278.206 76.0363 279.697 77.1883C281.188 78.3403 282.396 79.7634 283.323 81.4576C284.249 83.1517 284.712 85.1056 284.712 87.3193L284.712 113.409Z" fill="#ffffff" fill-rule="evenodd" opacity="1" stroke="none"/>
</g>
</g>
<g opacity="1">
<clipPath id="ClipPath_7">
<path d="M50.0221 60.3671L498.733 60.3671L498.733 60.3671L498.733 135.042L498.733 135.042L50.0221 135.042L50.0221 135.042L50.0221 60.3671L50.0221 60.3671Z" fill-rule="evenodd"/>
</clipPath>
<g clip-path="url(#ClipPath_7)">
<path d="M289.455 93.8925C289.455 90.5494 290.077 87.6129 291.319 85.083C292.561 82.5531 294.21 80.4524 296.266 78.7808C298.321 77.1093 300.659 75.8556 303.28 75.0198C305.9 74.1841 308.565 73.7662 311.276 73.7662C313.986 73.7662 316.652 74.1841 319.272 75.0198C321.892 75.8556 324.23 77.1093 326.286 78.7808C328.341 80.4524 329.99 82.5531 331.233 85.083C332.475 87.6129 333.096 90.5494 333.096 93.8925C333.096 97.2356 332.464 100.172 331.199 102.702C329.934 105.232 328.274 107.344 326.218 109.038C324.163 110.732 321.825 111.997 319.204 112.833C316.584 113.669 313.896 114.087 311.14 114.087C308.43 114.087 305.776 113.669 303.178 112.833C300.58 111.997 298.265 110.732 296.232 109.038C294.199 107.344 292.561 105.243 291.319 102.736C290.077 100.229 289.455 97.2808 289.455 93.8925ZM296.571 93.8925C296.571 96.5128 296.989 98.8055 297.824 100.771C298.66 102.736 299.778 104.385 301.179 105.718C302.579 107.05 304.16 108.044 305.922 108.699C307.684 109.354 309.469 109.682 311.276 109.682C313.128 109.682 314.935 109.354 316.697 108.699C318.459 108.044 320.029 107.05 321.407 105.718C322.785 104.385 323.892 102.736 324.727 100.771C325.563 98.8055 325.981 96.5128 325.981 93.8925C325.981 91.2722 325.563 88.9795 324.727 87.0143C323.892 85.0491 322.773 83.4002 321.373 82.0674C319.972 80.7347 318.391 79.7408 316.629 79.0858C314.867 78.4307 313.06 78.1032 311.208 78.1032C309.401 78.1032 307.617 78.4307 305.855 79.0858C304.093 79.7408 302.523 80.7347 301.145 82.0674C299.767 83.4002 298.66 85.0491 297.824 87.0143C296.989 88.9795 296.571 91.2722 296.571 93.8925Z" fill="#ffffff" fill-rule="evenodd" opacity="1" stroke="none"/>
</g>
</g>
<g opacity="1">
<clipPath id="ClipPath_8">
<path d="M50.0221 60.3671L498.733 60.3671L498.733 60.3671L498.733 135.042L498.733 135.042L50.0221 135.042L50.0221 135.042L50.0221 60.3671L50.0221 60.3671Z" fill-rule="evenodd"/>
</clipPath>
<g clip-path="url(#ClipPath_8)">
<path d="M366.437 80.2717C363.546 78.9615 360.745 78.3065 358.034 78.3065C356.046 78.3065 354.171 78.6453 352.409 79.3229C350.648 80.0006 349.112 80.9945 347.801 82.3046C346.491 83.6148 345.464 85.2411 344.718 87.1837C343.973 89.1263 343.6 91.3626 343.6 93.8925C343.6 96.558 344.018 98.8846 344.854 100.872C345.689 102.86 346.808 104.509 348.208 105.819C349.608 107.129 351.19 108.112 352.952 108.767C354.714 109.422 356.498 109.75 358.305 109.75C360.157 109.75 361.976 109.422 363.76 108.767C365.545 108.112 367.137 107.141 368.538 105.853C369.938 104.566 371.056 102.962 371.892 101.042C372.728 99.1217 373.146 96.8968 373.146 94.3669L373.146 59.4677L380.261 59.4677L380.261 93.8925C380.261 97.2808 379.64 100.24 378.398 102.77C377.155 105.3 375.506 107.412 373.451 109.106C371.395 110.8 369.057 112.065 366.437 112.901C363.817 113.736 361.151 114.154 358.441 114.154C355.685 114.154 352.997 113.736 350.377 112.901C347.756 112.065 345.418 110.8 343.363 109.106C341.307 107.412 339.647 105.3 338.382 102.77C337.117 100.24 336.485 97.2808 336.485 93.8925C336.485 90.7301 337.117 87.884 338.382 85.3541C339.647 82.8242 341.319 80.6783 343.397 78.9164C345.475 77.1545 347.858 75.7991 350.546 74.8504C353.234 73.9017 355.978 73.4274 358.779 73.4274C360.361 73.4274 361.919 73.5742 363.455 73.8678C364.991 74.1615 366.482 74.6245 367.928 75.257L368.538 75.5281L366.437 80.2717Z" fill="#ffffff" fill-rule="evenodd" opacity="1" stroke="none"/>
</g>
</g>
<g opacity="1">
<clipPath id="ClipPath_9">
<path d="M50.0221 60.3671L498.733 60.3671L498.733 60.3671L498.733 135.042L498.733 135.042L50.0221 135.042L50.0221 135.042L50.0221 60.3671L50.0221 60.3671Z" fill-rule="evenodd"/>
</clipPath>
<g clip-path="url(#ClipPath_9)">
<path d="M430.069 74.3761L430.069 93.9603C430.069 97.3486 429.447 100.296 428.205 102.804C426.963 105.311 425.314 107.412 423.258 109.106C421.203 110.8 418.865 112.065 416.245 112.901C413.624 113.736 410.948 114.154 408.214 114.154C405.481 114.154 402.804 113.725 400.184 112.867C397.564 112.008 395.226 110.744 393.17 109.072C391.115 107.4 389.466 105.3 388.224 102.77C386.981 100.24 386.36 97.3034 386.36 93.9603L386.36 74.3761L389.748 74.3761L390.155 74.3761L393.543 74.3761L393.543 93.9603C393.543 98.478 395.147 102.341 398.354 105.548C401.472 108.665 404.758 110.201 408.214 110.156C411.67 110.111 414.957 108.575 418.074 105.548C421.327 102.341 422.953 98.478 422.953 93.9603L422.953 74.3761L426.342 74.3761L426.68 74.3761L430.069 74.3761Z" fill="#ffffff" fill-rule="evenodd" opacity="1" stroke="none"/>
</g>
</g>
<g opacity="1">
<clipPath id="ClipPath_10">
<path d="M50.0221 60.3671L498.733 60.3671L498.733 60.3671L498.733 135.042L498.733 135.042L50.0221 135.042L50.0221 135.042L50.0221 60.3671L50.0221 60.3671Z" fill-rule="evenodd"/>
</clipPath>
<g clip-path="url(#ClipPath_10)">
<path d="M444.842 113.409L437.523 113.409L437.523 59.4677L444.842 59.4677L444.842 113.409Z" fill="#ffffff" fill-rule="evenodd" opacity="1" stroke="none"/>
</g>
</g>
<g opacity="1">
<clipPath id="ClipPath_11">
<path d="M50.0221 60.3671L498.733 60.3671L498.733 60.3671L498.733 135.042L498.733 135.042L50.0221 135.042L50.0221 135.042L50.0221 60.3671L50.0221 60.3671Z" fill-rule="evenodd"/>
</clipPath>
<g clip-path="url(#ClipPath_11)">
<path d="M461.309 91.8596L461.309 88.0647L486.382 88.0647C485.704 86.3028 484.88 84.7894 483.908 83.5244C482.937 82.2594 481.853 81.2204 480.656 80.4072C479.458 79.594 478.182 78.9954 476.827 78.6114C475.472 78.2274 474.094 78.0354 472.693 78.0354C470.751 78.0354 468.83 78.4081 466.933 79.1535C465.036 79.899 463.341 80.9606 461.851 82.3385C460.36 83.7164 459.163 85.388 458.259 87.3532C457.356 89.3183 456.904 91.5207 456.904 93.9603C456.904 96.3547 457.322 98.5344 458.157 100.5C458.993 102.465 460.111 104.136 461.512 105.514C462.912 106.892 464.539 107.954 466.391 108.699C468.243 109.445 470.186 109.817 472.219 109.817C474.568 109.817 476.928 109.275 479.3 108.191C481.672 107.107 483.897 105.413 485.975 103.109L489.906 106.903L489.431 107.378C487.127 109.682 484.496 111.399 481.537 112.528C478.577 113.657 475.562 114.222 472.49 114.222C469.734 114.222 467.069 113.782 464.494 112.901C461.918 112.02 459.626 110.721 457.615 109.004C455.605 107.287 453.99 105.175 452.77 102.668C451.55 100.161 450.94 97.2582 450.94 93.9603C450.94 90.6172 451.562 87.6807 452.804 85.1508C454.046 82.6209 455.695 80.5088 457.751 78.8147C459.806 77.1206 462.133 75.8443 464.731 74.986C467.328 74.1276 469.983 73.6984 472.693 73.6984C475.178 73.6984 477.617 74.0598 480.012 74.7827C482.406 75.5055 484.586 76.5784 486.551 78.0015C488.516 79.4246 490.199 81.2204 491.6 83.3889C493 85.5574 493.926 88.1099 494.378 91.0464L494.514 91.8596L461.309 91.8596Z" fill="#ffffff" fill-rule="evenodd" opacity="1" stroke="none"/>
</g>
</g>
</g>
</g>
</svg>
