<?xml version="1.0" encoding="UTF-8" standalone="no"?>
<!DOCTYPE svg PUBLIC "-//W3C//DTD SVG 1.1//EN" "http://www.w3.org/Graphics/SVG/1.1/DTD/svg11.dtd">
<!-- Created with Vectornator (http://vectornator.io/) -->
<svg height="100%" stroke-miterlimit="10" style="fill-rule:nonzero;clip-rule:evenodd;stroke-linecap:round;stroke-linejoin:round;" version="1.1" viewBox="0 0 512 512" width="100%" xml:space="preserve" xmlns="http://www.w3.org/2000/svg" xmlns:vectornator="http://vectornator.io" xmlns:xlink="http://www.w3.org/1999/xlink">
<defs/>
<g id="Layer-1" vectornator:layerName="Layer 1">
<path d="M205.595 255.89L197.17 255.89L192.945 248.583L197.161 241.278L205.603 241.278L209.82 248.583L205.595 255.89ZM201.936 262.235L185.062 262.235L191.856 250.468L196.082 257.776L204.506 257.776L201.936 262.235ZM188.749 239.392L187.245 241.987L184.531 246.698L180.315 239.392L171.863 239.392L173.152 237.158L174.442 234.923L198.651 234.923L197.362 237.158L196.072 239.392L188.749 239.392ZM179.217 255.89L170.782 255.89L166.557 248.583L170.774 241.278L179.226 241.278L183.442 248.583L179.217 255.89ZM171.341 269.54L167.66 263.176L170.782 257.776L178.128 257.776L171.341 269.54ZM166.028 278.733L157.585 278.733L153.368 271.426L157.585 264.119L166.028 264.119L169.359 269.88L170.252 271.426L166.028 278.733ZM165.469 250.469L169.15 256.833L166.028 262.235L158.674 262.235L165.469 250.469ZM162.37 239.392L158.152 246.698L153.926 239.392L145.493 239.392L148.073 234.923L172.264 234.923L170.975 237.158L169.685 239.392L162.37 239.392ZM157.064 248.584L152.839 255.89L144.405 255.89L140.18 248.584L144.405 241.278L152.839 241.278L157.064 248.584ZM144.963 269.54L142.682 265.597L141.282 263.176L144.405 257.776L151.751 257.776L144.963 269.54ZM139.658 278.733L131.206 278.733L126.991 271.435L131.216 264.119L139.65 264.119L143.874 271.426L139.658 278.733ZM135.991 285.077L119.115 285.077L125.903 273.322L130.118 280.618L138.57 280.618L135.991 285.077ZM139.092 250.47L142.772 256.833L139.651 262.235L132.304 262.235L139.092 250.47ZM200.828 234.923L209.261 234.923L213.479 242.238L210.908 246.698L206.693 239.392L198.249 239.392L199.538 237.158L200.828 234.923ZM155.407 278.733L149.155 278.733L152.28 273.313L155.079 278.163L155.407 278.733ZM211.996 248.584L215.654 242.24L210.35 233.038L201.916 233.038L199.74 233.038L175.53 233.038L173.353 233.038L146.984 233.038L142.869 240.167L139.09 246.701L139.089 246.699L138.061 248.481L138.001 248.584L130.021 262.42L125.902 269.55L125.901 269.549L115.851 286.963L137.08 286.963L140.747 280.618L141.175 279.876L141.837 278.733L141.836 278.733L144.964 273.311L144.965 273.312L145.925 271.647L146.052 271.426L154.137 257.411L158.153 250.467L158.155 250.47L159.21 248.639L159.242 248.584L163.456 241.278L168.597 241.278L164.744 247.953L155.407 264.119L152.28 269.54L152.28 269.539L145.883 280.618L156.495 280.618L158.673 280.618L167.116 280.618L171.341 273.31L171.343 273.312L172.203 271.82L172.431 271.426L172.431 271.425L180.514 257.412L184.531 250.469L184.532 250.47L185.382 248.995L185.619 248.585L185.619 248.584L189.833 241.278L194.984 241.278L190.767 248.585L181.794 264.119L203.025 264.119L207.036 257.161L210.907 250.469L210.908 250.47L211.616 249.244L211.997 248.585L211.996 248.584Z" fill="#0433bf" fill-rule="evenodd" opacity="1" stroke="none"/>
<path d="M225.894 235.869L228.202 235.869L228.11 236.366L227.277 236.366L226.807 239.015L226.173 239.015L226.64 236.366L225.802 236.366L225.894 235.869Z" fill="#0433bf" fill-rule="evenodd" opacity="1" stroke="none"/>
<path d="M228.496 235.869L229.213 235.869L229.802 238.203L231.208 235.869L231.925 235.869L231.372 239.015L230.735 239.015L231.095 236.978L229.896 239.015L229.415 239.015L228.933 236.973L228.57 239.015L227.936 239.015L228.496 235.869Z" fill="#0433bf" fill-rule="evenodd" opacity="1" stroke="none"/>
<path d="M261.453 242.239L254.564 255.91L254.395 255.91L247.783 242.239L242.085 242.239L242.085 261.092L246.21 261.092L246.21 247.901L246.414 247.901L252.556 261.092L256.138 261.092L262.511 247.901L262.716 247.901L262.716 261.092L266.911 261.092L266.911 242.239L261.453 242.239Z" fill="#0433bf" fill-rule="evenodd" opacity="1" stroke="none"/>
<path d="M274.582 257.172L274.582 253.422L286.137 253.422L286.137 249.572L274.582 249.572L274.582 246.089L287.435 246.089L287.435 242.239L270.315 242.239L270.315 261.092L287.914 261.092L287.914 257.172L274.582 257.172Z" fill="#0433bf" fill-rule="evenodd" opacity="1" stroke="none"/>
<path d="M295.345 257.172L295.345 253.422L306.909 253.422L306.909 249.572L295.345 249.572L295.345 246.089L308.199 246.089L308.199 242.239L291.088 242.239L291.088 261.092L308.678 261.092L308.678 257.172L295.345 257.172Z" fill="#0433bf" fill-rule="evenodd" opacity="1" stroke="none"/>
<clipPath id="ClipPath">
<path d="M20 20L500 20L500 500L20 500L20 20Z" fill-rule="evenodd"/>
</clipPath>
<g clip-path="url(#ClipPath)">
<path d="M325.468 252.124C324.802 252.719 323.904 253.013 322.793 253.013L316.109 253.013L316.109 246.124L322.793 246.124C323.904 246.124 324.802 246.444 325.468 247.084C326.144 247.715 326.473 248.568 326.473 249.635C326.473 250.71 326.144 251.537 325.468 252.124M330.739 249.635C330.739 247.457 330.01 245.68 328.544 244.302C327.077 242.924 325.22 242.24 322.962 242.24L311.851 242.24L311.851 261.092L316.109 261.092L316.109 256.897L323.14 256.897L325.353 261.092L329.992 261.092L327.095 255.911C329.522 254.595 330.739 252.506 330.739 249.635" fill="#0433bf" fill-rule="evenodd" opacity="1" stroke="none"/>
<path d="M347.991 242.239L341.067 242.239L332.854 261.092L337.423 261.092L343.724 246.026L345.2 246.026L351.503 261.092L356.009 261.092L347.991 242.239Z" fill="#0433bf" fill-rule="evenodd" opacity="1" stroke="none"/>
<path d="M374.044 242.239L374.044 254.923L362.755 242.239L358.729 242.239L358.729 261.092L362.924 261.092L362.924 248.372L374.213 261.092L378.274 261.092L378.274 242.239L374.044 242.239Z" fill="#0433bf" fill-rule="evenodd" opacity="1" stroke="none"/>
<path d="M396.141 242.239L389.216 242.239L380.995 261.092L385.537 261.092L391.838 246.026L393.341 246.026L394.194 248.141L394.256 248.301L398.416 258.23L398.425 258.23L399.652 261.092L404.149 261.092L396.141 242.239Z" fill="#0433bf" fill-rule="evenodd" opacity="1" stroke="none"/>
</g>
</g>
</svg>
