<?xml version="1.0" encoding="UTF-8" standalone="no"?>
<!DOCTYPE svg PUBLIC "-//W3C//DTD SVG 1.1//EN" "http://www.w3.org/Graphics/SVG/1.1/DTD/svg11.dtd">
<!-- Created with Vectornator (http://vectornator.io/) -->
<svg height="100%" stroke-miterlimit="10" style="fill-rule:nonzero;clip-rule:evenodd;stroke-linecap:round;stroke-linejoin:round;" version="1.1" viewBox="0 0 176 46" width="100%" xml:space="preserve" xmlns="http://www.w3.org/2000/svg" xmlns:vectornator="http://vectornator.io" xmlns:xlink="http://www.w3.org/1999/xlink">
<defs/>
<clipPath id="ArtboardFrame">
<rect height="46" width="176" x="0" y="0"/>
</clipPath>
<g clip-path="url(#ArtboardFrame)" id="Untitled" vectornator:layerName="Untitled">
<g opacity="1">
<path d="M56.0842 24.124L51.1306 24.124L48.6465 20.8989L51.1253 17.6747L56.0889 17.6747L58.5683 20.8989L56.0842 24.124ZM53.9328 26.9245L44.0117 26.9245L48.0062 21.7309L50.4909 24.9565L55.4439 24.9565L53.9328 26.9245ZM46.1795 16.8423L45.2952 17.9876L43.6995 20.0669L41.2207 16.8423L36.2513 16.8423L37.0091 15.8563L37.7676 14.8698L52.0014 14.8698L51.2435 15.8563L50.4851 16.8423L46.1795 16.8423ZM40.5751 24.124L35.6157 24.124L33.1316 20.8989L35.611 17.6747L40.5804 17.6747L43.0592 20.8989L40.5751 24.124ZM35.9443 30.1488L33.7801 27.3399L35.6157 24.9565L39.9348 24.9565L35.9443 30.1488ZM32.8205 34.2063L27.8564 34.2063L25.377 30.9812L27.8564 27.7561L32.8205 27.7561L34.779 30.2988L35.3041 30.9812L32.8205 34.2063ZM32.4919 21.7314L34.6561 24.5402L32.8205 26.9245L28.4967 26.9245L32.4919 21.7314ZM30.6698 16.8423L28.1898 20.0669L25.7051 16.8423L20.7469 16.8423L22.2638 14.8698L36.487 14.8698L35.7292 15.8563L34.9707 16.8423L30.6698 16.8423ZM27.5501 20.8994L25.066 24.124L20.1072 24.124L17.6231 20.8994L20.1072 17.6747L25.066 17.6747L27.5501 20.8994ZM20.4353 30.1488L19.0941 28.4084L18.271 27.3399L20.1072 24.9565L24.4263 24.9565L20.4353 30.1488ZM17.3162 34.2063L12.3468 34.2063L9.86852 30.9851L12.3526 27.7561L17.3114 27.7561L19.795 30.9812L17.3162 34.2063ZM15.1601 37.0063L5.23779 37.0063L9.22883 31.818L11.7071 35.0383L16.6765 35.0383L15.1601 37.0063ZM16.9834 21.7318L19.1471 24.5402L17.312 26.9245L12.9923 26.9245L16.9834 21.7318ZM53.2814 14.8698L58.2396 14.8698L60.7196 18.0984L59.208 20.0669L56.7297 16.8423L51.765 16.8423L52.5229 15.8563L53.2814 14.8698ZM26.5759 34.2063L22.9 34.2063L24.7373 31.814L26.383 33.9547L26.5759 34.2063ZM59.8477 20.8994L61.9984 18.0993L58.8799 14.0378L53.9211 14.0378L52.6417 14.0378L38.4073 14.0378L37.1273 14.0378L21.6235 14.0378L19.2041 17.1844L16.9822 20.0683L16.9816 20.0674L16.3772 20.8539L16.3419 20.8994L11.65 27.0062L9.22824 30.1532L9.22766 30.1527L3.3187 37.8388L15.8004 37.8388L17.9564 35.0383L18.2081 34.7108L18.5973 34.2063L18.5967 34.2063L20.4358 31.8132L20.4364 31.8136L21.0009 31.0787L21.0755 30.9812L25.8292 24.7954L28.1904 21.7305L28.1916 21.7318L28.8119 20.9236L28.8307 20.8994L31.3083 17.6747L34.331 17.6747L32.0656 20.6209L26.5759 27.7561L24.7373 30.1488L24.7373 30.1483L20.9762 35.0383L27.2156 35.0383L28.4961 35.0383L33.4602 35.0383L35.9443 31.8127L35.9455 31.8136L36.4512 31.1551L36.5852 30.9812L36.5852 30.9807L41.3377 24.7958L43.6995 21.7314L43.7001 21.7318L44.1998 21.0808L44.3392 20.8998L44.3392 20.8994L46.8168 17.6747L49.8454 17.6747L47.366 20.8998L42.0902 27.7561L54.5731 27.7561L56.9314 24.685L59.2074 21.7314L59.208 21.7318L59.6242 21.1907L59.8483 20.8998L59.8477 20.8994Z" fill="#0433bf" fill-rule="evenodd" opacity="1" stroke="none"/>
<path d="M68.0191 15.2873L69.3761 15.2873L69.322 15.5067L68.8322 15.5067L68.5559 16.6759L68.1831 16.6759L68.4577 15.5067L67.965 15.5067L68.0191 15.2873Z" fill="#0433bf" fill-rule="evenodd" opacity="1" stroke="none"/>
<path d="M69.5489 15.2873L69.9705 15.2873L70.3168 16.3175L71.1435 15.2873L71.565 15.2873L71.2399 16.6759L70.8654 16.6759L71.077 15.7768L70.3721 16.6759L70.0893 16.6759L69.8059 15.7746L69.5924 16.6759L69.2197 16.6759L69.5489 15.2873Z" fill="#0433bf" fill-rule="evenodd" opacity="1" stroke="none"/>
<path d="M88.9262 18.0989L84.8757 24.1329L84.7764 24.1329L80.8888 18.0989L77.5387 18.0989L77.5387 26.42L79.964 26.42L79.964 20.5979L80.0839 20.5979L83.6951 26.42L85.8012 26.42L89.5482 20.5979L89.6688 20.5979L89.6688 26.42L92.1352 26.42L92.1352 18.0989L88.9262 18.0989Z" fill="#0433bf" fill-rule="evenodd" opacity="1" stroke="none"/>
<path d="M96.6454 24.6899L96.6454 23.0347L103.439 23.0347L103.439 21.3354L96.6454 21.3354L96.6454 19.7982L104.202 19.7982L104.202 18.0989L94.1366 18.0989L94.1366 26.42L104.484 26.42L104.484 24.6899L96.6454 24.6899Z" fill="#0433bf" fill-rule="evenodd" opacity="1" stroke="none"/>
<path d="M108.853 24.6899L108.853 23.0347L115.652 23.0347L115.652 21.3354L108.853 21.3354L108.853 19.7982L116.411 19.7982L116.411 18.0989L106.35 18.0989L106.35 26.42L116.692 26.42L116.692 24.6899L108.853 24.6899Z" fill="#0433bf" fill-rule="evenodd" opacity="1" stroke="none"/>
<clipPath id="ClipPath">
<path d="M-53.0374-79.991L229.181-79.991L229.181 131.867L-53.0374 131.867L-53.0374-79.991Z" fill-rule="evenodd"/>
</clipPath>
<g clip-path="url(#ClipPath)">
<path d="M126.564 22.4618C126.173 22.7244 125.645 22.8542 124.991 22.8542L121.061 22.8542L121.061 19.8136L124.991 19.8136C125.645 19.8136 126.173 19.9548 126.564 20.2373C126.962 20.5158 127.155 20.8923 127.155 21.3632C127.155 21.8377 126.962 22.2027 126.564 22.4618M129.663 21.3632C129.663 20.4019 129.235 19.6176 128.373 19.0094C127.51 18.4012 126.418 18.0993 125.091 18.0993L118.558 18.0993L118.558 26.42L121.061 26.42L121.061 24.5685L125.195 24.5685L126.497 26.42L129.224 26.42L127.521 24.1333C128.948 23.5525 129.663 22.6304 129.663 21.3632" fill="#0433bf" fill-rule="evenodd" opacity="1" stroke="none"/>
<path d="M139.807 18.0989L135.736 18.0989L130.907 26.42L133.593 26.42L137.298 19.7703L138.166 19.7703L141.872 26.42L144.521 26.42L139.807 18.0989Z" fill="#0433bf" fill-rule="evenodd" opacity="1" stroke="none"/>
<path d="M155.125 18.0989L155.125 23.6972L148.487 18.0989L146.12 18.0989L146.12 26.42L148.587 26.42L148.587 20.8058L155.224 26.42L157.612 26.42L157.612 18.0989L155.125 18.0989Z" fill="#0433bf" fill-rule="evenodd" opacity="1" stroke="none"/>
<path d="M168.117 18.0989L164.045 18.0989L159.212 26.42L161.882 26.42L165.587 19.7703L166.47 19.7703L166.972 20.7038L167.008 20.7745L169.454 25.1568L169.46 25.1568L170.181 26.42L172.825 26.42L168.117 18.0989Z" fill="#0433bf" fill-rule="evenodd" opacity="1" stroke="none"/>
</g>
</g>
</g>
</svg>
