<?xml version="1.0" encoding="UTF-8" standalone="no"?>
<!DOCTYPE svg PUBLIC "-//W3C//DTD SVG 1.1//EN" "http://www.w3.org/Graphics/SVG/1.1/DTD/svg11.dtd">
<!-- Created with Vectornator (http://vectornator.io/) -->
<svg height="100%" stroke-miterlimit="10" style="fill-rule:nonzero;clip-rule:evenodd;stroke-linecap:round;stroke-linejoin:round;" version="1.1" viewBox="0 0 122 24" width="100%" xml:space="preserve" xmlns="http://www.w3.org/2000/svg" xmlns:vectornator="http://vectornator.io" xmlns:xlink="http://www.w3.org/1999/xlink">
<defs>
<path d="M-69.4235-101.934L169.998-101.934L169.998 136.021L-69.4235 136.021L-69.4235-101.934Z" fill-rule="evenodd" id="Fill"/>
</defs>
<clipPath id="ArtboardFrame">
<rect height="24" width="122" x="0" y="0"/>
</clipPath>
<g clip-path="url(#ArtboardFrame)" id="Untitled" vectornator:layerName="Untitled">
<path d="M38.229 10.3073L34.6602 10.3073L32.8705 7.21207L34.6564 4.11766L38.2324 4.11766L40.0187 7.21207L38.229 10.3073ZM36.6791 12.9951L29.5312 12.9951L32.4092 8.01056L34.1993 11.1062L37.7677 11.1062L36.6791 12.9951ZM31.093 3.31875L30.4559 4.418L29.3063 6.41358L27.5204 3.31875L23.9401 3.31875L24.4861 2.37242L25.0326 1.42567L35.2875 1.42567L34.7415 2.37242L34.1951 3.31875L31.093 3.31875ZM27.0553 10.3073L23.4822 10.3073L21.6925 7.21207L23.4788 4.11766L27.0591 4.11766L28.845 7.21207L27.0553 10.3073ZM23.719 16.0895L22.1597 13.3937L23.4822 11.1062L26.594 11.1062L23.719 16.0895ZM21.4684 19.9837L17.8919 19.9837L16.1056 16.8884L17.8919 13.7931L21.4684 13.7931L22.8794 16.2335L23.2577 16.8884L21.4684 19.9837ZM21.2316 8.01098L22.7909 10.7068L21.4684 12.9951L18.3532 12.9951L21.2316 8.01098ZM19.9188 3.31875L18.1321 6.41358L16.3419 3.31875L12.7697 3.31875L13.8626 1.42567L24.11 1.42567L23.5639 2.37242L23.0175 3.31875L19.9188 3.31875ZM17.6712 7.2125L15.8815 10.3073L12.3088 10.3073L10.5191 7.2125L12.3088 4.11766L15.8815 4.11766L17.6712 7.2125ZM12.5452 16.0895L11.579 14.4192L10.9859 13.3937L12.3088 11.1062L15.4206 11.1062L12.5452 16.0895ZM10.298 19.9837L6.71771 19.9837L4.93223 16.8922L6.72195 13.7931L10.2946 13.7931L12.0839 16.8884L10.298 19.9837ZM8.74464 22.671L1.59594 22.671L4.47135 17.6916L6.25683 20.7822L9.83712 20.7822L8.74464 22.671ZM10.0582 8.01141L11.6171 10.7068L10.295 12.9951L7.18282 12.9951L10.0582 8.01141ZM36.2097 1.42567L39.7819 1.42567L41.5687 4.52432L40.4796 6.41358L38.6941 3.31875L35.1172 3.31875L35.6633 2.37242L36.2097 1.42567ZM16.9693 19.9837L14.3209 19.9837L15.6447 17.6877L16.8304 19.7422L16.9693 19.9837ZM40.9405 7.2125L42.49 4.52517L40.2433 0.627181L36.6706 0.627181L35.7488 0.627181L25.4934 0.627181L24.5713 0.627181L13.4013 0.627181L11.6582 3.64704L10.0574 6.41486L10.057 6.41401L9.6215 7.16887L9.59609 7.2125L6.21574 13.0735L4.47092 16.0937L4.4705 16.0933L0.213302 23.4699L9.20595 23.4699L10.7593 20.7822L10.9406 20.4678L11.221 19.9837L11.2206 19.9837L12.5456 17.6869L12.546 17.6873L12.9527 16.982L13.0065 16.8884L16.4313 10.9516L18.1325 8.01014L18.1334 8.01141L18.5803 7.2358L18.5938 7.2125L20.3789 4.11766L22.5566 4.11766L20.9245 6.94521L16.9693 13.7931L15.6447 16.0895L15.6447 16.0891L12.9349 20.7822L17.4302 20.7822L18.3528 20.7822L21.9292 20.7822L23.719 17.6865L23.7198 17.6873L24.0841 17.0553L24.1807 16.8884L24.1807 16.888L27.6047 10.952L29.3063 8.01098L29.3067 8.01141L29.6668 7.3866L29.7672 7.21292L29.7672 7.2125L31.5522 4.11766L33.7342 4.11766L31.9479 7.21292L28.1469 13.7931L37.1404 13.7931L38.8394 10.8457L40.4792 8.01098L40.4796 8.01141L40.7795 7.49208L40.9409 7.21292L40.9405 7.2125Z" fill="#0433bf" fill-rule="evenodd" opacity="1" stroke="none"/>
<path d="M42.1878 1.26573L43.1655 1.26573L43.1265 1.47626L42.7737 1.47626L42.5746 2.59838L42.306 2.59838L42.5038 1.47626L42.1489 1.47626L42.1878 1.26573Z" fill="#0433bf" fill-rule="evenodd" opacity="1" stroke="none"/>
<path d="M43.29 1.26573L43.5938 1.26573L43.8433 2.25442L44.4388 1.26573L44.7426 1.26573L44.5083 2.59838L44.2385 2.59838L44.391 1.7355L43.8831 2.59838L43.6793 2.59838L43.4752 1.73339L43.3214 2.59838L43.0528 2.59838L43.29 1.26573Z" fill="#0433bf" fill-rule="evenodd" opacity="1" stroke="none"/>
<path d="M51.0119 8.23855L47.5757 15.0158L47.4914 15.0158L44.1934 8.23855L41.3513 8.23855L41.3513 17.5847L43.4088 17.5847L43.4088 11.0454L43.5106 11.0454L46.5742 17.5847L48.3608 17.5847L51.5397 11.0454L51.6419 11.0454L51.6419 17.5847L53.7344 17.5847L53.7344 8.23855L51.0119 8.23855Z" fill="#0433bf" fill-rule="evenodd" opacity="1" stroke="none"/>
<path d="M57.5606 15.6414L57.5606 13.7824L63.3242 13.7824L63.3242 11.8738L57.5606 11.8738L57.5606 10.1472L63.9716 10.1472L63.9716 8.23855L55.4323 8.23855L55.4323 17.5847L64.2105 17.5847L64.2105 15.6414L57.5606 15.6414Z" fill="#0433bf" fill-rule="evenodd" opacity="1" stroke="none"/>
<path d="M67.9171 15.6414L67.9171 13.7824L73.6851 13.7824L73.6851 11.8738L67.9171 11.8738L67.9171 10.1472L74.3286 10.1472L74.3286 8.23855L65.7937 8.23855L65.7937 17.5847L74.5675 17.5847L74.5675 15.6414L67.9171 15.6414Z" fill="#0433bf" fill-rule="evenodd" opacity="1" stroke="none"/>
<g opacity="1">
<use fill="#0433bf" opacity="0" stroke="none" xlink:href="#Fill"/>
<clipPath id="ClipPath">
<use xlink:href="#Fill"/>
</clipPath>
<g clip-path="url(#ClipPath)">
<path d="M82.9422 13.1389C82.6101 13.4339 82.1621 13.5797 81.608 13.5797L78.274 13.5797L78.274 10.1645L81.608 10.1645C82.1621 10.1645 82.6101 10.3231 82.9422 10.6404C83.2794 10.9532 83.4435 11.3761 83.4435 11.905C83.4435 12.438 83.2794 12.8479 82.9422 13.1389M85.5714 11.905C85.5714 10.8253 85.2078 9.94439 84.4765 9.26126C83.7448 8.57813 82.8186 8.23905 81.6923 8.23905L76.1502 8.23905L76.1502 17.5847L78.274 17.5847L78.274 15.5051L81.7811 15.5051L82.8849 17.5847L85.1988 17.5847L83.7538 15.0163C84.9644 14.3639 85.5714 13.3283 85.5714 11.905" fill="#0433bf" fill-rule="evenodd" opacity="1" stroke="none"/>
<path d="M94.1766 8.23855L90.7229 8.23855L86.6264 17.5847L88.9053 17.5847L92.0482 10.1159L92.7845 10.1159L95.9284 17.5847L98.1759 17.5847L94.1766 8.23855Z" fill="#0433bf" fill-rule="evenodd" opacity="1" stroke="none"/>
<path d="M107.172 8.23855L107.172 14.5265L101.541 8.23855L99.5327 8.23855L99.5327 17.5847L101.625 17.5847L101.625 11.2789L107.256 17.5847L109.282 17.5847L109.282 8.23855L107.172 8.23855Z" fill="#0433bf" fill-rule="evenodd" opacity="1" stroke="none"/>
<path d="M118.194 8.23855L114.739 8.23855L110.639 17.5847L112.904 17.5847L116.047 10.1159L116.797 10.1159L117.222 11.1644L117.253 11.2437L119.328 16.1659L119.333 16.1659L119.945 17.5847L122.188 17.5847L118.194 8.23855Z" fill="#0433bf" fill-rule="evenodd" opacity="1" stroke="none"/>
</g>
</g>
</g>
</svg>
