<?xml version="1.0" encoding="UTF-8" standalone="no"?>
<!DOCTYPE svg PUBLIC "-//W3C//DTD SVG 1.1//EN" "http://www.w3.org/Graphics/SVG/1.1/DTD/svg11.dtd">
<!-- Created with Vectornator (http://vectornator.io/) -->
<svg height="100%" stroke-miterlimit="10" style="fill-rule:nonzero;clip-rule:evenodd;stroke-linecap:round;stroke-linejoin:round;" version="1.1" viewBox="0 0 1400 980" width="100%" xml:space="preserve" xmlns="http://www.w3.org/2000/svg" xmlns:vectornator="http://vectornator.io" xmlns:xlink="http://www.w3.org/1999/xlink">
<defs/>
<g id="Untitled" vectornator:layerName="Untitled">
<path d="M0 0L1400 0L1400 0L1400 980L1400 980L0 980L0 980L0 0L0 0Z" fill="#e6faff" fill-rule="evenodd" opacity="1" stroke="none"/>
<path d="M443.4 138.3L475.3 138.3L475.3 138.3L475.3 167.8L475.3 167.8L443.4 167.8L443.4 167.8L443.4 138.3L443.4 138.3Z" fill="#a5cc56" fill-rule="evenodd" opacity="1" stroke="none"/>
<path d="M504.5 450.8C504.5 442.35 511.35 435.5 519.8 435.5C528.25 435.5 535.1 442.35 535.1 450.8C535.1 459.25 528.25 466.1 519.8 466.1C511.35 466.1 504.5 459.25 504.5 450.8Z" fill="#1e96fc" fill-rule="evenodd" opacity="1" stroke="none"/>
<path d="M516.5 466.4C515.1 466.4 513.7 466.2 512.3 465.9C511.5 465.7 511 464.9 511.2 464.1C511.4 463.3 512.2 462.8 513 463C514.6 463.4 516.3 463.5 518 463.3L518.3 463.3C519.1 463.2 519.9 463.8 520 464.6C520.1 465.4 519.5 466.2 518.7 466.3L518.3 466.3C517.8 466.3 517.2 466.4 516.5 466.4ZM524.2 464.3C523.7 464.3 523.2 464 522.9 463.6C522.5 462.9 522.7 462 523.4 461.6C525 460.7 526.3 459.5 527.4 458.1C527.9 457.5 528.8 457.3 529.5 457.8C530.1 458.3 530.3 459.2 529.8 459.9C528.5 461.6 526.8 463.1 524.9 464.1C524.7 464.3 524.4 464.3 524.2 464.3ZM507.4 463.4C507.1 463.4 506.8 463.3 506.5 463.1C504.7 461.8 503.3 460.2 502.1 458.3C501.7 457.6 501.9 456.7 502.6 456.3C503.3 455.9 504.2 456.1 504.6 456.8C505.5 458.3 506.7 459.7 508.2 460.7C508.9 461.2 509 462.1 508.5 462.8C508.3 463.1 507.9 463.4 507.4 463.4ZM531.3 455.2C531.2 455.2 531 455.2 530.9 455.1C530.1 454.9 529.7 454.1 529.9 453.3C530.2 452.1 530.4 450.8 530.4 449.6C530.4 449.1 530.4 448.5 530.3 448C530.3 447.6 530.2 447.2 530.1 446.8C529.9 446 530.5 445.2 531.3 445.1C532.1 444.9 532.9 445.5 533 446.3C533.1 446.8 533.2 447.2 533.2 447.7C533.3 448.3 533.3 449 533.3 449.6C533.3 451.1 533.1 452.6 532.7 454.1C532.5 454.8 531.9 455.2 531.3 455.2ZM501.4 453.5C500.7 453.5 500.1 453 499.9 452.2C499.9 452 499.8 451.7 499.8 451.5C499.7 450.9 499.7 450.2 499.7 449.6C499.7 448.3 499.8 447 500.1 445.8C500.3 445 501.1 444.5 501.9 444.7C502.7 444.9 503.2 445.7 503 446.5C502.8 447.5 502.6 448.6 502.6 449.6C502.6 450.1 502.6 450.7 502.7 451.2C502.7 451.4 502.7 451.6 502.8 451.8C502.9 452.6 502.4 453.4 501.6 453.5C501.6 453.5 501.5 453.5 501.4 453.5ZM529.3 442.6C528.8 442.6 528.3 442.4 528.1 441.9C527.1 440.4 525.8 439.1 524.4 438.1C523.7 437.6 523.5 436.7 524 436C524.5 435.3 525.4 435.1 526.1 435.6C527.9 436.8 529.4 438.4 530.7 440.2C531.2 440.9 531 441.8 530.3 442.3C529.9 442.5 529.6 442.6 529.3 442.6ZM504.1 442.2C503.8 442.2 503.5 442.1 503.2 441.9C502.5 441.4 502.4 440.5 502.9 439.8C504.2 438 505.7 436.5 507.6 435.3C508.3 434.9 509.2 435.1 509.6 435.8C510 436.5 509.8 437.4 509.1 437.8C507.6 438.8 506.3 440 505.2 441.5C505 442 504.5 442.2 504.1 442.2ZM519.7 436.1C519.6 436.1 519.5 436.1 519.4 436.1C518 435.8 516.4 435.7 515 435.9C514.7 435.9 514.4 436 514.1 436C513.3 436.1 512.5 435.6 512.4 434.8C512.3 434 512.8 433.2 513.6 433.1C514 433 514.3 433 514.7 432.9C516.5 432.7 518.3 432.8 520.1 433.2C520.9 433.4 521.4 434.2 521.2 435C521 435.6 520.4 436.1 519.7 436.1Z" fill="#4d4d4d" fill-rule="evenodd" opacity="1" stroke="none"/>
<path d="M498.8 550.8L498.8 547.3C498.8 546.9 499 546.5 499.3 546.2C499.4 546.1 509.3 537.6 517 529.8C524.1 522.5 523.7 516.9 523.7 516.8C523.7 516.8 523.7 516.8 523.7 516.7L523.7 516.6L523.7 494.8L519.5 494.8C517.2 494.8 515.3 496.7 515.3 499L515.3 510.8L515.3 518C515.3 518.8 514.6 519.5 513.8 519.5C513 519.5 512.3 518.8 512.3 518L512.3 510.8L512.3 499L512.3 458.6C512.3 455.7 509.9 453.3 507 453.3C504.1 453.3 501.7 455.7 501.7 458.6L501.7 477.4L501.7 487.3L501.7 491.1C501.7 491.9 501 492.6 500.2 492.6C499.4 492.6 498.7 491.9 498.7 491.1L498.7 487.3L498.7 477.4C498.7 474.5 496.3 472.1 493.4 472.1C490.5 472.1 488.1 474.5 488.1 477.4L488.1 480.7L488.1 488.5L488.1 491.1C488.1 491.9 487.4 492.6 486.6 492.6C485.8 492.6 485.1 491.9 485.1 491.1L485.1 488.5L485.1 480.7C485.1 477.8 482.7 475.4 479.8 475.4C476.9 475.4 474.5 477.8 474.5 480.7L474.5 491C474.5 491.8 473.8 492.5 473 492.5C472.2 492.5 471.5 491.8 471.5 491L471.5 487.1C471.5 484.2 469.1 481.8 466.2 481.8C463.3 481.8 460.9 484.2 460.9 487.1L460.9 520.3L460.9 522.5L460.9 528.6C460.9 528.9 460.8 535.8 468.6 542C469 542.3 469.2 542.7 469.2 543.2L469.2 550.6L498.8 550.6L498.8 550.8Z" fill="#a5cc56" fill-rule="evenodd" opacity="1" stroke="none"/>
<g opacity="1">
<path d="M894.1 852.3L541.6 852.3C535.7 852.3 530.9 847.5 530.9 841.6L530.9 602.3C530.9 596.4 535.7 591.6 541.6 591.6L894.1 591.6C900 591.6 904.8 596.4 904.8 602.3L904.8 841.6C904.8 847.5 900 852.3 894.1 852.3Z" fill="#333333" fill-rule="evenodd" opacity="1" stroke="none"/>
<path d="M544.2 607.5L891.4 607.5L891.4 607.5L891.4 802.3L891.4 802.3L544.2 802.3L544.2 802.3L544.2 607.5L544.2 607.5Z" fill="#efefef" fill-rule="evenodd" opacity="1" stroke="none"/>
<path d="M530.9 817.5L530.9 841.6C530.9 847.5 535.7 852.3 541.6 852.3L894.1 852.3C900 852.3 904.8 847.5 904.8 841.6L904.8 817.5L530.9 817.5Z" fill="#cccccc" fill-rule="evenodd" opacity="1" stroke="none"/>
<path d="M775.5 891.6L763.7 891.6L755.4 852.3L680.2 852.3L671.9 891.6L660.1 891.6C658.2 891.6 656.6 893.2 656.6 895.1C656.6 897 658.2 898.6 660.1 898.6L775.5 898.6C777.4 898.6 779 897 779 895.1C779 893.2 777.5 891.6 775.5 891.6Z" fill="#cccccc" fill-rule="evenodd" opacity="1" stroke="none"/>
<path d="M757.9 863.9L755.4 852.3L680.2 852.3L677.8 863.9L757.9 863.9Z" fill="#b3b3b3" fill-rule="evenodd" opacity="1" stroke="none"/>
<path d="M575.2 635.2L767.1 635.2L767.1 635.2L767.1 662.8L767.1 662.8L575.2 662.8L575.2 662.8L575.2 635.2L575.2 635.2Z" fill="#a5cc56" fill-rule="evenodd" opacity="1" stroke="none"/>
<path d="M575.2 673.3L707.2 673.3L707.2 673.3L707.2 677.9L707.2 677.9L575.2 677.9L575.2 677.9L575.2 673.3L575.2 673.3Z" fill="#808080" fill-rule="evenodd" opacity="1" stroke="none"/>
<path d="M575.2 685.8L707.2 685.8L707.2 685.8L707.2 690.4L707.2 690.4L575.2 690.4L575.2 690.4L575.2 685.8L575.2 685.8Z" fill="#808080" fill-rule="evenodd" opacity="1" stroke="none"/>
<path d="M575.2 698.4L707.2 698.4L707.2 698.4L707.2 703L707.2 703L575.2 703L575.2 703L575.2 698.4L575.2 698.4Z" fill="#808080" fill-rule="evenodd" opacity="1" stroke="none"/>
<path d="M575.2 711L707.2 711L707.2 711L707.2 715.6L707.2 715.6L575.2 715.6L575.2 715.6L575.2 711L575.2 711Z" fill="#808080" fill-rule="evenodd" opacity="1" stroke="none"/>
<path d="M575.2 723.5L707.2 723.5L707.2 723.5L707.2 728.1L707.2 728.1L575.2 728.1L575.2 728.1L575.2 723.5L575.2 723.5Z" fill="#808080" fill-rule="evenodd" opacity="1" stroke="none"/>
<path d="M575.2 736.1L707.2 736.1L707.2 736.1L707.2 740.7L707.2 740.7L575.2 740.7L575.2 740.7L575.2 736.1L575.2 736.1Z" fill="#808080" fill-rule="evenodd" opacity="1" stroke="none"/>
<path d="M575.2 748.7L707.2 748.7L707.2 748.7L707.2 753.3L707.2 753.3L575.2 753.3L575.2 753.3L575.2 748.7L575.2 748.7Z" fill="#808080" fill-rule="evenodd" opacity="1" stroke="none"/>
<path d="M575.2 761.3L707.2 761.3L707.2 761.3L707.2 765.9L707.2 765.9L575.2 765.9L575.2 765.9L575.2 761.3L575.2 761.3Z" fill="#808080" fill-rule="evenodd" opacity="1" stroke="none"/>
<path d="M796.3 638.9L859.3 638.9L859.3 638.9L859.3 765.8L859.3 765.8L796.3 765.8L796.3 765.8L796.3 638.9L796.3 638.9Z" fill="#06becc" fill-rule="evenodd" opacity="1" stroke="none"/>
</g>
<g opacity="1">
<path d="M175.6 834.5L96.7 834.5C91.5 834.5 87.2 830.3 87.2 825L87.2 659.8C87.2 654.6 91.4 650.3 96.7 650.3L175.6 650.3C180.8 650.3 185.1 654.5 185.1 659.8L185.1 825C185 830.3 180.8 834.5 175.6 834.5Z" fill="#d1d1d1" fill-rule="evenodd" opacity="1" stroke="none"/>
<path d="M94.3 664.8L177.9 664.8L177.9 664.8L177.9 809.2L177.9 809.2L94.3 809.2L94.3 809.2L94.3 664.8L94.3 664.8Z" fill="#808080" fill-rule="evenodd" opacity="1" stroke="none"/>
<g opacity="1">
<path d="M149.5 659.6L116 659.6C115.2 659.6 114.6 659 114.6 658.2L114.6 658.2C114.6 657.4 115.2 656.8 116 656.8L149.5 656.8C150.3 656.8 150.9 657.4 150.9 658.2L150.9 658.2C151 659 150.3 659.6 149.5 659.6Z" fill="#f2f2f2" fill-rule="evenodd" opacity="1" stroke="none"/>
<path d="M153.7 658.2C153.7 657.151 154.551 656.3 155.6 656.3C156.649 656.3 157.5 657.151 157.5 658.2C157.5 659.249 156.649 660.1 155.6 660.1C154.551 660.1 153.7 659.249 153.7 658.2Z" fill="#f2f2f2" fill-rule="evenodd" opacity="1" stroke="none"/>
</g>
<path d="M128.2 821.8C128.2 817.437 131.737 813.9 136.1 813.9C140.463 813.9 144 817.437 144 821.8C144 826.163 140.463 829.7 136.1 829.7C131.737 829.7 128.2 826.163 128.2 821.8Z" fill="#f2f2f2" fill-rule="evenodd" opacity="1" stroke="none"/>
</g>
<g opacity="1">
<path d="M282.5 113.2C281.4 113.2 280.3 112.8 279.4 111.9C270.6 103.1 256.3 103.1 247.5 111.9C245.8 113.6 243.1 113.6 241.4 111.9C239.7 110.2 239.7 107.5 241.4 105.8C253.6 93.6 273.4 93.6 285.5 105.8C287.2 107.5 287.2 110.2 285.5 111.9C284.7 112.8 283.6 113.2 282.5 113.2Z" fill="#1e96fc" fill-rule="evenodd" opacity="1" stroke="none"/>
<path d="M289.6 101.9C288.5 101.9 287.4 101.5 286.5 100.6C280.3 94.4 272.2 91 263.4 91C254.7 91 246.5 94.4 240.3 100.6C238.6 102.3 235.9 102.3 234.2 100.6C232.5 98.9 232.5 96.2 234.2 94.5C242 86.7 252.3 82.4 263.4 82.4C274.4 82.4 284.8 86.7 292.6 94.5C294.3 96.2 294.3 98.9 292.6 100.6C291.8 101.5 290.7 101.9 289.6 101.9Z" fill="#1e96fc" fill-rule="evenodd" opacity="1" stroke="none"/>
<path d="M231.1 90.8C230 90.8 228.9 90.4 228 89.5C226.3 87.8 226.3 85.1 228 83.4C247.5 63.9 279.3 63.9 298.9 83.4C300.6 85.1 300.6 87.8 298.9 89.5C297.2 91.2 294.5 91.2 292.8 89.5C276.6 73.3 250.3 73.3 234.1 89.5C233.3 90.4 232.2 90.8 231.1 90.8Z" fill="#1e96fc" fill-rule="evenodd" opacity="1" stroke="none"/>
<path d="M254.2 120.3C254.2 115.164 258.364 111 263.5 111C268.636 111 272.8 115.164 272.8 120.3C272.8 125.436 268.636 129.6 263.5 129.6C258.364 129.6 254.2 125.436 254.2 120.3Z" fill="#1e96fc" fill-rule="evenodd" opacity="1" stroke="none"/>
</g>
<g opacity="1">
<path d="M227.2 545.6C206.6 545.6 189.9 562.3 189.9 582.9C189.9 593.5 194.4 603.1 201.5 609.8L196.7 627.9L214.8 618C218.7 619.4 222.8 620.1 227.2 620.1C247.8 620.1 264.5 603.4 264.5 582.8C264.5 562.2 247.8 545.6 227.2 545.6Z" fill="#a5cc56" fill-rule="evenodd" opacity="1" stroke="none"/>
<g opacity="1">
<path d="M239.2 593.3C238.5 593.3 237.8 593 237.3 592.5C231.7 586.9 222.7 587 217.2 592.5C216.1 593.6 214.4 593.6 213.3 592.5C212.2 591.4 212.2 589.7 213.3 588.6C221 580.9 233.5 580.9 241.1 588.6C242.2 589.7 242.2 591.4 241.1 592.5C240.6 593.1 239.9 593.3 239.2 593.3Z" fill="#ffffff" fill-rule="evenodd" opacity="1" stroke="none"/>
<path d="M243.7 586.2C243 586.2 242.3 585.9 241.8 585.4C237.9 581.5 232.8 579.4 227.3 579.4C221.8 579.4 216.6 581.5 212.8 585.4C211.7 586.5 210 586.5 208.9 585.4C207.8 584.3 207.8 582.6 208.9 581.5C213.8 576.6 220.3 573.9 227.3 573.9C234.2 573.9 240.8 576.6 245.7 581.5C246.8 582.6 246.8 584.3 245.7 585.4C245.1 586 244.4 586.2 243.7 586.2Z" fill="#ffffff" fill-rule="evenodd" opacity="1" stroke="none"/>
<path d="M206.8 579.2C206.1 579.2 205.4 578.9 204.9 578.4C203.8 577.3 203.8 575.6 204.9 574.5C217.2 562.2 237.3 562.2 249.6 574.5C250.7 575.6 250.7 577.3 249.6 578.4C248.5 579.5 246.8 579.5 245.7 578.4C235.5 568.2 218.9 568.2 208.7 578.4C208.2 579 207.5 579.2 206.8 579.2Z" fill="#ffffff" fill-rule="evenodd" opacity="1" stroke="none"/>
<path d="M221.3 597.8C221.3 594.542 223.942 591.9 227.2 591.9C230.458 591.9 233.1 594.542 233.1 597.8C233.1 601.058 230.458 603.7 227.2 603.7C223.942 603.7 221.3 601.058 221.3 597.8Z" fill="#ffffff" fill-rule="evenodd" opacity="1" stroke="none"/>
</g>
</g>
<path d="M510.9 611.9L325.9 611.9C315.9 611.9 307.7 603.7 307.7 593.7C307.7 591.8 309.2 590.2 311.2 590.2C313.2 590.2 314.7 591.8 314.7 593.7C314.7 599.9 319.7 605 326 605L510.9 605C512.8 605 514.4 606.6 514.4 608.5C514.3 610.3 512.8 611.9 510.9 611.9Z" fill="#4d4d4d" fill-rule="evenodd" opacity="1" stroke="none"/>
<path d="M337.3 509.8C337.3 495.4 325.6 483.8 311.3 483.8C296.9 483.8 285.3 495.5 285.3 509.8L285.3 509.8C285.3 509.8 285.3 510.2 285.3 510.9C285.3 511.1 285.3 511.3 285.3 511.5C285.7 518.4 288.8 545.2 311.3 569.7C333.8 545.2 336.9 518.4 337.3 511.5C337.3 511.3 337.3 511.1 337.3 510.9C337.3 510.2 337.3 509.8 337.3 509.8L337.3 509.8ZM311.2 522.7C304 522.7 298.3 516.9 298.3 509.8C298.3 502.6 304.1 496.9 311.2 496.9C318.3 496.9 324.1 502.7 324.1 509.8C324.2 516.9 318.4 522.7 311.2 522.7Z" fill="#1e96fc" fill-rule="evenodd" opacity="1" stroke="none"/>
<path d="M989.1 526.4C989 526.4 989 526.4 988.9 526.4C989 525.4 989.1 524.3 989.1 523.3C989.1 509.9 978.2 499 964.8 499C954.3 499 945.4 505.6 942 514.9C940.3 514.1 938.4 513.6 936.4 513.6C929.3 513.6 923.6 519.3 923.6 526.4C923.6 527.5 923.8 528.6 924 529.6C913.7 530.4 905.5 539.1 905.5 549.6C905.5 560.7 914.5 569.7 925.6 569.7L989 569.7C1001 569.7 1010.7 560 1010.7 548C1010.8 536.1 1001.1 526.4 989.1 526.4Z" fill="#1e96fc" fill-rule="evenodd" opacity="1" stroke="none"/>
<path d="M420.8 200.9C420.7 200.9 420.7 200.9 420.6 200.9C420.7 199.9 420.8 198.8 420.8 197.8C420.8 184.4 409.9 173.5 396.5 173.5C386 173.5 377.1 180.1 373.7 189.4C372 188.6 370.1 188.1 368.1 188.1C361 188.1 355.3 193.8 355.3 200.9C355.3 202 355.5 203.1 355.7 204.1C345.4 204.9 337.2 213.6 337.2 224.1C337.2 235.2 346.2 244.2 357.3 244.2L420.7 244.2C432.7 244.2 442.4 234.5 442.4 222.5C442.5 210.6 432.8 200.9 420.8 200.9Z" fill="#1e96fc" fill-rule="evenodd" opacity="1" stroke="none"/>
<path d="M1338.6 347.1C1338.5 347.1 1338.5 347.1 1338.4 347.1C1338.5 346.1 1338.6 345 1338.6 344C1338.6 330.6 1327.7 319.7 1314.3 319.7C1303.8 319.7 1294.9 326.3 1291.5 335.6C1289.8 334.8 1287.9 334.3 1285.9 334.3C1278.8 334.3 1273.1 340 1273.1 347.1C1273.1 348.2 1273.3 349.3 1273.5 350.3C1263.2 351.1 1255 359.8 1255 370.3C1255 381.4 1264 390.4 1275.1 390.4L1338.5 390.4C1350.5 390.4 1360.2 380.7 1360.2 368.7C1360.3 356.8 1350.6 347.1 1338.6 347.1Z" fill="#1e96fc" fill-rule="evenodd" opacity="1" stroke="none"/>
<g opacity="1">
<g opacity="1">
<path d="M767.1 541.1C758.1 541.1 750.8 533.8 750.8 524.8C750.8 515.8 758.1 508.5 767.1 508.5C776.1 508.5 783.4 515.8 783.4 524.8C783.4 533.8 776.1 541.1 767.1 541.1ZM767.1 516.4C762.5 516.4 758.7 520.2 758.7 524.8C758.7 529.4 762.5 533.2 767.1 533.2C771.7 533.2 775.5 529.4 775.5 524.8C775.5 520.2 771.7 516.4 767.1 516.4Z" fill="#a5cc56" fill-rule="evenodd" opacity="1" stroke="none"/>
<path d="M758.7 510.9L751.6 503.8L746 509.4L753.1 516.5C754.5 514.2 756.5 512.2 758.7 510.9Z" fill="#a5cc56" fill-rule="evenodd" opacity="1" stroke="none"/>
<path d="M767.1 508.5C768.5 508.5 769.8 508.7 771 509L771 499L763.1 499L763.1 509C764.4 508.7 765.7 508.5 767.1 508.5Z" fill="#a5cc56" fill-rule="evenodd" opacity="1" stroke="none"/>
<path d="M781 516.4L788.1 509.3L782.5 503.7L775.4 510.8C777.7 512.2 779.6 514.2 781 516.4Z" fill="#a5cc56" fill-rule="evenodd" opacity="1" stroke="none"/>
<path d="M775.4 538.7L782.5 545.8L788.1 540.2L781 533.1C779.6 535.4 777.7 537.3 775.4 538.7Z" fill="#a5cc56" fill-rule="evenodd" opacity="1" stroke="none"/>
<path d="M767.1 541.1C765.7 541.1 764.4 540.9 763.2 540.6L763.2 550.7L771.1 550.7L771.1 540.6C769.8 540.9 768.4 541.1 767.1 541.1Z" fill="#a5cc56" fill-rule="evenodd" opacity="1" stroke="none"/>
<path d="M782.8 520.9C783.1 522.2 783.3 523.5 783.3 524.8C783.3 526.1 783.1 527.5 782.8 528.7L792.9 528.7L792.9 520.8L782.8 520.8L782.8 520.9Z" fill="#a5cc56" fill-rule="evenodd" opacity="1" stroke="none"/>
<path d="M753.2 533.2L746.1 540.3L751.7 545.9L758.8 538.8C756.5 537.3 754.5 535.4 753.2 533.2Z" fill="#a5cc56" fill-rule="evenodd" opacity="1" stroke="none"/>
<path d="M750.8 524.8C750.8 523.4 751 522.1 751.3 520.9L741.2 520.9L741.2 528.8L751.3 528.8C751 527.5 750.8 526.2 750.8 524.8Z" fill="#a5cc56" fill-rule="evenodd" opacity="1" stroke="none"/>
</g>
<g opacity="1">
<path d="M807.3 551.4C801.8 549.7 798.7 543.7 800.4 538.2C802.1 532.7 808.1 529.6 813.6 531.3C819.1 533 822.2 539 820.5 544.5C818.8 550.1 812.9 553.2 807.3 551.4ZM812.1 536.2C809.2 535.3 806.2 536.9 805.3 539.7C804.4 542.6 806 545.6 808.8 546.5C811.7 547.4 814.7 545.8 815.6 543C816.6 540.2 815 537.1 812.1 536.2Z" fill="#a5cc56" fill-rule="evenodd" opacity="1" stroke="none"/>
<path d="M808 531.2L805 525.4L800.5 527.8L803.5 533.6C804.8 532.4 806.4 531.6 808 531.2Z" fill="#a5cc56" fill-rule="evenodd" opacity="1" stroke="none"/>
<path d="M813.7 531.4C814.5 531.7 815.3 532 816 532.5L818 526.3L813.1 524.8L811.1 531C812 531 812.8 531.1 813.7 531.4Z" fill="#a5cc56" fill-rule="evenodd" opacity="1" stroke="none"/>
<path d="M820.7 539L826.5 536L824.1 531.5L818.3 534.5C819.5 535.7 820.3 537.3 820.7 539Z" fill="#a5cc56" fill-rule="evenodd" opacity="1" stroke="none"/>
<path d="M812.9 551.6L815.9 557.4L820.4 555L817.4 549.2C816.2 550.4 814.6 551.2 812.9 551.6Z" fill="#a5cc56" fill-rule="evenodd" opacity="1" stroke="none"/>
<path d="M807.3 551.4C806.5 551.1 805.7 550.8 805 550.3L803 556.5L807.9 558L809.9 551.8C809 551.9 808.2 551.7 807.3 551.4Z" fill="#a5cc56" fill-rule="evenodd" opacity="1" stroke="none"/>
<path d="M821 542C820.9 542.8 820.8 543.7 820.5 544.5C820.2 545.3 819.9 546.1 819.4 546.8L825.6 548.8L827.1 543.9L821 542Z" fill="#a5cc56" fill-rule="evenodd" opacity="1" stroke="none"/>
<path d="M800.3 543.9L794.5 546.9L796.9 551.4L802.7 548.4C801.5 547.1 800.7 545.5 800.3 543.9Z" fill="#a5cc56" fill-rule="evenodd" opacity="1" stroke="none"/>
<path d="M800.5 538.2C800.8 537.4 801.1 536.6 801.6 535.9L795.4 533.9L793.9 538.8L800.1 540.8C800 539.9 800.2 539.1 800.5 538.2Z" fill="#a5cc56" fill-rule="evenodd" opacity="1" stroke="none"/>
</g>
</g>
<g opacity="1">
<g opacity="1">
<path d="M993.6 161.2C984.6 161.2 977.3 153.9 977.3 144.9C977.3 135.9 984.6 128.6 993.6 128.6C1002.6 128.6 1009.9 135.9 1009.9 144.9C1009.9 153.9 1002.6 161.2 993.6 161.2ZM993.6 136.5C989 136.5 985.2 140.3 985.2 144.9C985.2 149.5 989 153.3 993.6 153.3C998.2 153.3 1002 149.5 1002 144.9C1002 140.3 998.3 136.5 993.6 136.5Z" fill="#a5cc56" fill-rule="evenodd" opacity="1" stroke="none"/>
<path d="M985.3 131L978.2 123.9L972.6 129.5L979.7 136.6C981.1 134.3 983 132.4 985.3 131Z" fill="#a5cc56" fill-rule="evenodd" opacity="1" stroke="none"/>
<path d="M993.6 128.7C995 128.7 996.3 128.9 997.5 129.2L997.5 119.1L989.6 119.1L989.6 129.2C991 128.8 992.3 128.7 993.6 128.7Z" fill="#a5cc56" fill-rule="evenodd" opacity="1" stroke="none"/>
<path d="M1007.6 136.6L1014.7 129.5L1009.1 123.9L1002 131C1004.3 132.4 1006.2 134.3 1007.6 136.6Z" fill="#a5cc56" fill-rule="evenodd" opacity="1" stroke="none"/>
<path d="M1002 158.8L1009.1 165.9L1014.7 160.3L1007.6 153.2C1006.2 155.6 1004.3 157.5 1002 158.8Z" fill="#a5cc56" fill-rule="evenodd" opacity="1" stroke="none"/>
<path d="M993.6 161.2C992.2 161.2 990.9 161 989.7 160.7L989.7 170.8L997.6 170.8L997.6 160.7C996.3 161 995 161.2 993.6 161.2Z" fill="#a5cc56" fill-rule="evenodd" opacity="1" stroke="none"/>
<path d="M1009.4 141C1009.7 142.3 1009.9 143.6 1009.9 144.9C1009.9 146.3 1009.7 147.6 1009.4 148.8L1019.5 148.8L1019.5 141L1009.4 141Z" fill="#a5cc56" fill-rule="evenodd" opacity="1" stroke="none"/>
<path d="M979.7 153.3L972.6 160.4L978.2 166L985.3 158.9C983 157.5 981.1 155.6 979.7 153.3Z" fill="#a5cc56" fill-rule="evenodd" opacity="1" stroke="none"/>
<path d="M977.4 144.9C977.4 143.5 977.6 142.2 977.9 141L967.8 141L967.8 148.9L977.9 148.9C977.6 147.6 977.4 146.3 977.4 144.9Z" fill="#a5cc56" fill-rule="evenodd" opacity="1" stroke="none"/>
</g>
<g opacity="1">
<path d="M1033.9 171.6C1028.4 169.9 1025.3 163.9 1027 158.4C1028.7 152.9 1034.7 149.8 1040.2 151.5C1045.7 153.2 1048.8 159.2 1047.1 164.7C1045.3 170.2 1039.4 173.3 1033.9 171.6ZM1038.7 156.3C1035.8 155.4 1032.8 157 1031.9 159.8C1031 162.7 1032.6 165.7 1035.4 166.6C1038.3 167.5 1041.3 165.9 1042.2 163.1C1043.1 160.3 1041.5 157.2 1038.7 156.3Z" fill="#1e96fc" fill-rule="evenodd" opacity="1" stroke="none"/>
<path d="M1034.6 151.3L1031.6 145.5L1027.1 147.9L1030.1 153.7C1031.4 152.5 1032.9 151.7 1034.6 151.3Z" fill="#1e96fc" fill-rule="evenodd" opacity="1" stroke="none"/>
<path d="M1040.2 151.5C1041 151.8 1041.8 152.1 1042.5 152.6L1044.5 146.4L1039.6 144.9L1037.6 151.1C1038.5 151.1 1039.4 151.2 1040.2 151.5Z" fill="#1e96fc" fill-rule="evenodd" opacity="1" stroke="none"/>
<path d="M1047.3 159.1L1053.1 156.1L1050.7 151.6L1044.9 154.6C1046 155.8 1046.9 157.4 1047.3 159.1Z" fill="#1e96fc" fill-rule="evenodd" opacity="1" stroke="none"/>
<path d="M1039.5 171.8L1042.5 177.6L1047 175.2L1044 169.4C1042.7 170.5 1041.2 171.3 1039.5 171.8Z" fill="#1e96fc" fill-rule="evenodd" opacity="1" stroke="none"/>
<path d="M1033.9 171.6C1033.1 171.3 1032.3 171 1031.6 170.5L1029.6 176.7L1034.5 178.2L1036.5 172C1035.6 172 1034.7 171.8 1033.9 171.6Z" fill="#1e96fc" fill-rule="evenodd" opacity="1" stroke="none"/>
<path d="M1047.5 162.2C1047.4 163 1047.3 163.9 1047 164.7C1046.7 165.5 1046.4 166.3 1045.9 167L1052.1 169L1053.6 164.1L1047.5 162.2Z" fill="#1e96fc" fill-rule="evenodd" opacity="1" stroke="none"/>
<path d="M1026.8 164L1021 167L1023.4 171.5L1029.2 168.5C1028 167.2 1027.2 165.7 1026.8 164Z" fill="#1e96fc" fill-rule="evenodd" opacity="1" stroke="none"/>
<path d="M1027 158.4C1027.3 157.6 1027.6 156.8 1028.1 156.1L1021.9 154.1L1020.4 159L1026.6 161C1026.6 160.1 1026.7 159.2 1027 158.4Z" fill="#1e96fc" fill-rule="evenodd" opacity="1" stroke="none"/>
</g>
</g>
<g opacity="1">
<path d="M311.2 459.9C309.3 459.9 307.7 458.4 307.7 456.4L307.7 450.5C307.7 448.6 309.2 447 311.2 447C313.2 447 314.7 448.5 314.7 450.5L314.7 456.4C314.7 458.3 313.1 459.9 311.2 459.9Z" fill="#4d4d4d" fill-rule="evenodd" opacity="1" stroke="none"/>
<path d="M311.2 442.8C309.3 442.8 307.7 441.3 307.7 439.3L307.7 428.1C307.7 426.2 309.2 424.6 311.2 424.6C313.2 424.6 314.7 426.1 314.7 428.1L314.7 439.3C314.7 441.2 313.1 442.8 311.2 442.8ZM311.2 420.3C309.3 420.3 307.7 418.8 307.7 416.8L307.7 405.6C307.7 403.7 309.2 402.1 311.2 402.1C313.2 402.1 314.7 403.6 314.7 405.6L314.7 416.8C314.7 418.8 313.1 420.3 311.2 420.3ZM311.2 397.9C309.3 397.9 307.7 396.4 307.7 394.4L307.7 383.2C307.7 381.3 309.2 379.7 311.2 379.7C313.2 379.7 314.7 381.2 314.7 383.2L314.7 394.4C314.7 396.4 313.1 397.9 311.2 397.9ZM311.2 375.5C309.3 375.5 307.7 374 307.7 372L307.7 360.8C307.7 358.9 309.2 357.3 311.2 357.3C313.2 357.3 314.7 358.8 314.7 360.8L314.7 372C314.7 373.9 313.1 375.5 311.2 375.5ZM311.2 353.1C309.3 353.1 307.7 351.6 307.7 349.6L307.7 338.4C307.7 336.5 309.2 334.9 311.2 334.9C313.2 334.9 314.7 336.4 314.7 338.4L314.7 349.6C314.7 351.5 313.1 353.1 311.2 353.1ZM311.2 330.7C309.3 330.7 307.7 329.2 307.7 327.2L307.7 316C307.7 314.1 309.2 312.5 311.2 312.5C313.2 312.5 314.7 314 314.7 316L314.7 327.2C314.7 329.1 313.1 330.7 311.2 330.7ZM311.2 308.2C309.3 308.2 307.7 306.7 307.7 304.7L307.7 293.5C307.7 291.6 309.2 290 311.2 290C313.2 290 314.7 291.5 314.7 293.5L314.7 304.7C314.7 306.7 313.1 308.2 311.2 308.2Z" fill="#4d4d4d" fill-rule="evenodd" opacity="1" stroke="none"/>
<path d="M311.2 285.8C309.3 285.8 307.7 284.3 307.7 282.3L307.7 276.4C307.7 274.5 309.2 272.9 311.2 272.9C313.2 272.9 314.7 274.4 314.7 276.4L314.7 282.3C314.7 284.3 313.1 285.8 311.2 285.8Z" fill="#4d4d4d" fill-rule="evenodd" opacity="1" stroke="none"/>
</g>
<path d="M958.2 622.8L956.3 622.8C954.4 622.8 952.8 621.2 952.8 619.3C952.8 618 953.6 616.8 954.7 616.2L954.7 609.3C954.7 607.4 956.3 605.8 958.2 605.8C960.1 605.8 961.7 607.4 961.7 609.3L961.7 619.3C961.6 621.2 960.1 622.8 958.2 622.8ZM944.4 622.8L932.5 622.8C930.6 622.8 929 621.2 929 619.3C929 617.4 930.6 615.8 932.5 615.8L944.4 615.8C946.3 615.8 947.9 617.4 947.9 619.3C947.9 621.2 946.3 622.8 944.4 622.8ZM958.2 600.9C956.3 600.9 954.7 599.3 954.7 597.4L954.7 585.5C954.7 583.6 956.3 582 958.2 582C960.1 582 961.7 583.6 961.7 585.5L961.7 597.4C961.6 599.4 960.1 600.9 958.2 600.9Z" fill="#4d4d4d" fill-rule="evenodd" opacity="1" stroke="none"/>
<path d="M958.2 487.2C956.3 487.2 954.7 485.7 954.7 483.7L954.7 304.1C954.7 302.2 956.3 300.6 958.2 300.6C960.1 300.6 961.7 302.1 961.7 304.1L961.7 483.7C961.6 485.7 960.1 487.2 958.2 487.2Z" fill="#4d4d4d" fill-rule="evenodd" opacity="1" stroke="none"/>
<path d="M989.7 275.4L926.7 275.4C924.8 275.4 923.2 273.9 923.2 271.9L923.2 208.9C923.2 207 924.8 205.4 926.7 205.4L989.7 205.4C991.6 205.4 993.2 206.9 993.2 208.9L993.2 271.9C993.2 273.8 991.6 275.4 989.7 275.4ZM930.1 268.5L986.2 268.5L986.2 212.4L930.1 212.4L930.1 268.5Z" fill="#4d4d4d" fill-rule="evenodd" opacity="1" stroke="none"/>
<path d="M989.7 275.4C988.8 275.4 987.9 275 987.3 274.4L958.2 245.3L929.1 274.4C927.7 275.8 925.6 275.8 924.2 274.4C922.8 273 922.8 270.9 924.2 269.5L953.3 240.4L924.2 211.3C922.8 209.9 922.8 207.8 924.2 206.4C925.6 205 927.7 205 929.1 206.4L958.2 235.5L987.3 206.4C988.3 205.4 989.8 205.1 991.1 205.7C992.4 206.2 993.2 207.5 993.2 208.9L993.2 271.9C993.2 273.3 992.4 274.6 991.1 275.1C990.6 275.3 990.1 275.4 989.7 275.4ZM963.1 240.4L986.3 263.6L986.3 217.3L963.1 240.4Z" fill="#4d4d4d" fill-rule="evenodd" opacity="1" stroke="none"/>
<path d="M523.8 517.1L523.8 493.9C523.8 493.1 523.1 492.4 522.3 492.4L516.6 492.4C515 492.4 513.6 492.9 512.4 493.8L512.4 459.2C512.4 454.6 508.7 450.9 504.1 450.9C499.5 450.9 495.8 454.6 495.8 459.2L495.8 471.6C494.4 470.4 492.5 469.7 490.5 469.7C486.9 469.7 483.8 472.1 482.6 475.3C481.1 473.8 479.1 473 476.8 473C472.2 473 468.5 476.7 468.5 481.3L468.5 481.4C467.1 480.2 465.2 479.5 463.2 479.5C458.6 479.5 454.9 483.2 454.9 487.8L454.9 523.3L454.9 523.3L454.9 529.4C454.9 529.7 454.7 537.7 463.2 544.7L463.2 554.1C463.2 554.9 463.9 555.6 464.7 555.6C465.5 555.6 466.2 554.9 466.2 554.1L466.2 544C466.2 543.5 466 543.1 465.6 542.8C457.7 536.7 457.8 529.8 457.9 529.4L457.9 523.3L457.9 521.1L457.9 487.9C457.9 485 460.3 482.6 463.2 482.6C466.1 482.6 468.5 485 468.5 487.9L468.5 491.8C468.5 492.6 469.2 493.3 470 493.3C470.8 493.3 471.5 492.6 471.5 491.8L471.5 481.5C471.5 478.6 473.9 476.2 476.8 476.2C479.7 476.2 482.1 478.6 482.1 481.5L482.1 489.3L482.1 491.9C482.1 492.7 482.8 493.4 483.6 493.4C484.4 493.4 485.1 492.7 485.1 491.9L485.1 489.3L485.1 481.5L485.1 478.2C485.1 475.3 487.5 472.9 490.4 472.9C493.3 472.9 495.7 475.3 495.7 478.2L495.7 488.1L495.7 491.9C495.7 492.7 496.4 493.4 497.2 493.4C498 493.4 498.7 492.7 498.7 491.9L498.7 488.1L498.7 478.2L498.7 459.4C498.7 456.5 501.1 454.1 504 454.1C506.9 454.1 509.3 456.5 509.3 459.4L509.3 499.8L509.3 511.6L509.3 518.8C509.3 519.6 510 520.3 510.8 520.3C511.6 520.3 512.3 519.6 512.3 518.8L512.3 511.6L512.3 499.8C512.3 497.5 514.2 495.6 516.5 495.6L520.7 495.6L520.7 517.4L520.7 517.5C520.7 517.5 520.7 517.5 520.7 517.6C520.7 517.7 521.1 523.3 514 530.6C506.3 538.4 496.4 546.9 496.3 547C496 547.3 495.8 547.7 495.8 548.1L495.8 556C495.8 556.8 496.5 557.5 497.3 557.5C498.1 557.5 498.8 556.8 498.8 556L498.8 548.7C501 546.8 509.4 539.5 516.2 532.6C524 524.4 523.8 518 523.8 517.1Z" fill="#414042" fill-rule="evenodd" opacity="1" stroke="none"/>
<path d="M516.5 416.4C514.6 416.4 513 414.9 513 412.9L513 350.4C513 322.9 535.3 300.6 562.8 300.6L717.8 300.6C719.7 300.6 721.3 302.1 721.3 304.1C721.3 306.1 719.7 307.6 717.8 307.6L562.8 307.6C539.2 307.6 519.9 326.8 519.9 350.5L519.9 413C520 414.8 518.5 416.4 516.5 416.4Z" fill="#4d4d4d" fill-rule="evenodd" opacity="1" stroke="none"/>
<g opacity="1">
<path d="M824.9 306.4L761.2 306.4C757.7 306.4 754.7 303.9 754.1 300.5L747 259.7L728.8 259.7C726.5 259.7 724.3 258.1 723.9 255.8C723.3 252.7 725.7 249.9 728.7 249.9L749.4 249.9C752.8 249.9 755.7 252.3 756.3 255.7L763.5 296.6L825 296.6C828 296.6 830.4 299.4 829.8 302.5C829.3 304.8 827.2 306.4 824.9 306.4Z" fill="#1e96fc" fill-rule="evenodd" opacity="1" stroke="none"/>
<path d="M765.8 312.9C765.8 308.703 769.203 305.3 773.4 305.3C777.597 305.3 781 308.703 781 312.9C781 317.097 777.597 320.5 773.4 320.5C769.203 320.5 765.8 317.097 765.8 312.9Z" fill="#1e96fc" fill-rule="evenodd" opacity="1" stroke="none"/>
<path d="M803.3 312.9C803.3 308.703 806.703 305.3 810.9 305.3C815.097 305.3 818.5 308.703 818.5 312.9C818.5 317.097 815.097 320.5 810.9 320.5C806.703 320.5 803.3 317.097 803.3 312.9Z" fill="#1e96fc" fill-rule="evenodd" opacity="1" stroke="none"/>
<path d="M761.8 259.3L767.1 292.9L822.7 292.9L827.2 259.3L761.8 259.3ZM814.6 286C814.6 286.4 814.3 286.7 813.9 286.7L775.6 286.7C775.2 286.7 774.9 286.4 774.9 286L774.9 284.5C774.9 284.1 775.2 283.8 775.6 283.8L813.9 283.8C814.3 283.8 814.6 284.1 814.6 284.5L814.6 286ZM814.6 276.9C814.6 277.3 814.3 277.6 813.9 277.6L775.6 277.6C775.2 277.6 774.9 277.3 774.9 276.9L774.9 275.4C774.9 275 775.2 274.7 775.6 274.7L813.9 274.7C814.3 274.7 814.6 275 814.6 275.4L814.6 276.9ZM814.6 268.2C814.6 268.6 814.3 268.9 813.9 268.9L775.6 268.9C775.2 268.9 774.9 268.6 774.9 268.2L774.9 266.7C774.9 266.3 775.2 266 775.6 266L813.9 266C814.3 266 814.6 266.3 814.6 266.7L814.6 268.2Z" fill="#1e96fc" fill-rule="evenodd" opacity="1" stroke="none"/>
</g>
<g opacity="1">
<path d="M672.6 452L645.9 452C644.9 452 644.1 451.2 644 450.3L644 450.3C644 450.3 643.7 448.1 640.7 444L640.2 443.3C636.8 438.5 631 430.5 631 419.9C631 419.8 631 419.6 631 419.5C631 419.2 631 418.9 631 418.6C631 403 643.7 390.4 659.2 390.4C674.8 390.4 687.4 403.1 687.4 418.6C687.4 418.9 687.4 419.2 687.4 419.5C687.4 419.6 687.4 419.7 687.4 419.9C687.4 430.5 681.6 438.5 678.2 443.3L677.7 444C674.7 448.1 674.4 450.4 674.4 450.4C674.4 451.3 673.6 452 672.6 452ZM647.4 448.2L671.2 448.2C671.7 446.8 672.7 444.6 674.8 441.7L675.3 441C678.6 436.4 683.6 429.4 683.8 420.3C683.8 420.1 683.7 419.9 683.7 419.8L683.7 419.3C683.7 419.1 683.7 418.8 683.7 418.6C683.7 405.1 672.8 394.2 659.3 394.2C645.8 394.2 634.9 405.1 634.9 418.6C634.9 418.8 634.9 419.1 634.9 419.3L634.9 419.8C634.9 420 634.9 420.2 634.8 420.4C635 429.5 640 436.5 643.3 441.1L643.8 441.8C645.9 444.7 646.9 446.8 647.4 448.2Z" fill="#414042" fill-rule="evenodd" opacity="1" stroke="none"/>
<path d="M672.2 458.9L646.3 458.9C643.4 458.9 641 456.5 641 453.6C641 450.7 643.4 448.3 646.3 448.3L672.2 448.3C675.1 448.3 677.5 450.7 677.5 453.6C677.5 456.5 675.1 458.9 672.2 458.9ZM646.3 452C645.5 452 644.8 452.7 644.8 453.5C644.8 454.3 645.5 455 646.3 455L672.2 455C673 455 673.7 454.3 673.7 453.5C673.7 452.7 673 452 672.2 452L646.3 452Z" fill="#414042" fill-rule="evenodd" opacity="1" stroke="none"/>
<path d="M672.2 465.7L646.3 465.7C643.4 465.7 641 463.3 641 460.4C641 457.5 643.4 455.1 646.3 455.1L672.2 455.1C675.1 455.1 677.5 457.5 677.5 460.4C677.5 463.4 675.1 465.7 672.2 465.7ZM646.3 458.9C645.5 458.9 644.8 459.6 644.8 460.4C644.8 461.2 645.5 461.9 646.3 461.9L672.2 461.9C673 461.9 673.7 461.2 673.7 460.4C673.7 459.6 673 458.9 672.2 458.9L646.3 458.9Z" fill="#414042" fill-rule="evenodd" opacity="1" stroke="none"/>
<path d="M672.2 472.6L646.3 472.6C643.4 472.6 641 470.2 641 467.3C641 464.4 643.4 462 646.3 462L672.2 462C675.1 462 677.5 464.4 677.5 467.3C677.5 470.2 675.1 472.6 672.2 472.6ZM646.3 465.7C645.5 465.7 644.8 466.4 644.8 467.2C644.8 468 645.5 468.7 646.3 468.7L672.2 468.7C673 468.7 673.7 468 673.7 467.2C673.7 466.4 673 465.7 672.2 465.7L646.3 465.7Z" fill="#414042" fill-rule="evenodd" opacity="1" stroke="none"/>
<path d="M673.7 453.6C673.7 454.4 673 455.1 672.2 455.1L646.3 455.1C645.5 455.1 644.8 454.4 644.8 453.6C644.8 452.8 645.5 452.1 646.3 452.1L672.2 452.1C673 452 673.7 452.7 673.7 453.6Z" fill="#499dd0" fill-rule="evenodd" opacity="1" stroke="none"/>
<path d="M673.7 460.4C673.7 461.2 673 461.9 672.2 461.9L646.3 461.9C645.5 461.9 644.8 461.2 644.8 460.4C644.8 459.6 645.5 458.9 646.3 458.9L672.2 458.9C673 458.9 673.7 459.6 673.7 460.4Z" fill="#499dd0" fill-rule="evenodd" opacity="1" stroke="none"/>
<path d="M672.2 468.8L646.3 468.8C645.5 468.8 644.8 468.1 644.8 467.3C644.8 466.5 645.5 465.8 646.3 465.8L672.2 465.8C673 465.8 673.7 466.5 673.7 467.3C673.7 468.1 673 468.8 672.2 468.8Z" fill="#499dd0" fill-rule="evenodd" opacity="1" stroke="none"/>
<path d="M683.7 420.3C683.5 429.4 678.5 436.4 675.2 441L674.7 441.7C672.6 444.6 671.6 446.8 671.1 448.2L647.3 448.2C646.8 446.8 645.8 444.6 643.7 441.7L643.2 441C639.9 436.4 634.9 429.4 634.7 420.3C634.7 420.1 634.8 419.9 634.8 419.7L634.8 419.2C634.8 419 634.8 418.7 634.8 418.5C634.8 405 645.7 394.1 659.2 394.1C672.7 394.1 683.6 405 683.6 418.5C683.6 418.8 683.6 419 683.6 419.2L683.6 419.7C683.6 420 683.6 420.2 683.7 420.3Z" fill="#1e96fc" fill-rule="evenodd" opacity="1" stroke="none"/>
<path d="M651.8 451.2C651.8 451.2 651.7 451.2 651.8 451.2C650.7 451.2 649.9 450.3 649.9 449.2C650.1 439.7 644.6 424.1 644.6 424C644.2 423 644.8 421.9 645.8 421.6C646.8 421.2 647.9 421.8 648.2 422.8C648.4 423.5 654 439.2 653.8 449.4C653.7 450.4 652.8 451.2 651.8 451.2Z" fill="#414042" fill-rule="evenodd" opacity="1" stroke="none"/>
<path d="M666.9 451.2C665.9 451.2 665 450.4 665 449.3C664.8 439.1 670.3 423.4 670.6 422.7C671 421.7 672 421.2 673 421.5C674 421.9 674.5 422.9 674.2 423.9C674.1 424.1 668.6 439.6 668.9 449.1C668.9 450.3 668 451.2 666.9 451.2C667 451.2 666.9 451.2 666.9 451.2Z" fill="#414042" fill-rule="evenodd" opacity="1" stroke="none"/>
<path d="M659.3 387.3C658.2 387.3 657.4 386.4 657.4 385.4L657.4 376.9C657.4 375.8 658.3 375 659.3 375C660.4 375 661.2 375.9 661.2 376.9L661.2 385.4C661.2 386.5 660.3 387.3 659.3 387.3Z" fill="#414042" fill-rule="evenodd" opacity="1" stroke="none"/>
<g opacity="1">
<path d="M623 423.5L614.5 423.5C613.4 423.5 612.6 422.6 612.6 421.6C612.6 420.5 613.5 419.7 614.5 419.7L623 419.7C624.1 419.7 624.9 420.6 624.9 421.6C624.9 422.7 624.1 423.5 623 423.5Z" fill="#414042" fill-rule="evenodd" opacity="1" stroke="none"/>
<path d="M704 423.5L695.5 423.5C694.4 423.5 693.6 422.6 693.6 421.6C693.6 420.5 694.5 419.7 695.5 419.7L704 419.7C705.1 419.7 705.9 420.6 705.9 421.6C705.9 422.7 705 423.5 704 423.5Z" fill="#414042" fill-rule="evenodd" opacity="1" stroke="none"/>
</g>
<path d="M627.6 455.2C627.1 455.2 626.6 455 626.3 454.6C625.6 453.9 625.6 452.6 626.3 451.9L632.3 445.9C633 445.2 634.3 445.2 635 445.9C635.7 446.6 635.7 447.9 635 448.6L629 454.6C628.6 455 628.1 455.2 627.6 455.2Z" fill="#414042" fill-rule="evenodd" opacity="1" stroke="none"/>
<path d="M684.9 397.9C684.4 397.9 683.9 397.7 683.6 397.3C682.9 396.6 682.9 395.3 683.6 394.6L689.6 388.6C690.3 387.9 691.6 387.9 692.3 388.6C693 389.3 693 390.6 692.3 391.3L686.3 397.3C685.9 397.7 685.4 397.9 684.9 397.9Z" fill="#414042" fill-rule="evenodd" opacity="1" stroke="none"/>
<path d="M690.9 455.2C690.4 455.2 689.9 455 689.6 454.6L683.6 448.6C682.9 447.9 682.9 446.6 683.6 445.9C684.3 445.2 685.6 445.2 686.3 445.9L692.3 451.9C693 452.6 693 453.9 692.3 454.6C691.8 455 691.4 455.2 690.9 455.2Z" fill="#414042" fill-rule="evenodd" opacity="1" stroke="none"/>
<path d="M633.6 397.9C633.1 397.9 632.6 397.7 632.3 397.3L626.3 391.3C625.6 390.6 625.6 389.3 626.3 388.6C627 387.9 628.3 387.9 629 388.6L635 394.6C635.7 395.3 635.7 396.6 635 397.3C634.6 397.7 634.1 397.9 633.6 397.9Z" fill="#414042" fill-rule="evenodd" opacity="1" stroke="none"/>
<g opacity="1">
<path d="M700.3 441.2C700 441.2 699.8 441.2 699.5 441L691.7 437.7C690.7 437.3 690.3 436.2 690.7 435.2C691.1 434.2 692.2 433.8 693.2 434.2L701 437.5C702 437.9 702.4 439 702 440C701.8 440.7 701.1 441.2 700.3 441.2Z" fill="#414042" fill-rule="evenodd" opacity="1" stroke="none"/>
<path d="M626 409.3C625.7 409.3 625.5 409.3 625.2 409.1L617.4 405.8C616.4 405.4 616 404.3 616.4 403.3C616.8 402.3 617.9 401.9 618.9 402.3L626.7 405.6C627.7 406 628.1 407.1 627.7 408.1C627.4 408.8 626.7 409.3 626 409.3Z" fill="#414042" fill-rule="evenodd" opacity="1" stroke="none"/>
</g>
<g opacity="1">
<path d="M618.2 441.2C617.5 441.2 616.8 440.8 616.4 440C616 439 616.4 437.9 617.4 437.5L625.2 434.2C626.2 433.8 627.3 434.2 627.7 435.2C628.1 436.2 627.7 437.3 626.7 437.7L618.9 441C618.7 441.1 618.4 441.2 618.2 441.2Z" fill="#414042" fill-rule="evenodd" opacity="1" stroke="none"/>
<path d="M692.6 409.3C691.9 409.3 691.2 408.9 690.8 408.1C690.4 407.1 690.8 406 691.8 405.6L699.6 402.3C700.6 401.9 701.7 402.3 702.1 403.3C702.5 404.3 702.1 405.4 701.1 405.8L693.3 409.1C693.1 409.2 692.8 409.3 692.6 409.3Z" fill="#414042" fill-rule="evenodd" opacity="1" stroke="none"/>
</g>
<path d="M673.2 390.1C673 390.1 672.7 390.1 672.5 390C671.5 389.6 671.1 388.5 671.5 387.5L674.8 379.7C675.2 378.7 676.3 378.3 677.3 378.7C678.3 379.1 678.7 380.2 678.3 381.2L675 389C674.7 389.7 674 390.1 673.2 390.1Z" fill="#414042" fill-rule="evenodd" opacity="1" stroke="none"/>
<path d="M645.3 390.1C644.6 390.1 643.8 389.7 643.5 388.9L640.2 381.1C639.8 380.1 640.3 379 641.2 378.6C642.2 378.2 643.3 378.7 643.7 379.6L647 387.4C647.4 388.4 646.9 389.5 646 389.9C645.8 390.1 645.5 390.1 645.3 390.1Z" fill="#414042" fill-rule="evenodd" opacity="1" stroke="none"/>
</g>
<g opacity="1">
<path d="M1215.7 638.7L1087.7 638.7C1083.7 638.7 1080.4 635.4 1080.4 631.4L1080.4 450.1C1080.4 446.1 1083.7 442.8 1087.7 442.8L1215.7 442.8C1219.7 442.8 1223 446.1 1223 450.1L1223 631.4C1223 635.5 1219.7 638.7 1215.7 638.7Z" fill="#a5cc56" fill-rule="evenodd" opacity="1" stroke="none"/>
<path d="M1091.2 453.4L1212.1 453.4L1212.1 453.4L1212.1 612.5L1212.1 612.5L1091.2 612.5L1091.2 612.5L1091.2 453.4L1091.2 453.4Z" fill="#efefef" fill-rule="evenodd" opacity="1" stroke="none"/>
<path d="M1143.3 625.4C1143.3 620.761 1147.06 617 1151.7 617C1156.34 617 1160.1 620.761 1160.1 625.4C1160.1 630.039 1156.34 633.8 1151.7 633.8C1147.06 633.8 1143.3 630.039 1143.3 625.4Z" fill="#efefef" fill-rule="evenodd" opacity="1" stroke="none"/>
<g opacity="1">
<path d="M1199.7 582.1L1108.3 582.1L1108.3 492.8L1115 492.8L1115 575.4L1199.7 575.4L1199.7 582.1Z" fill="#06becc" fill-rule="evenodd" opacity="1" stroke="none"/>
<path d="M1129.1 543.6L1124.4 541.8L1124.4 572.1L1134 572.1L1134 542.1L1129.1 543.6Z" fill="#06becc" fill-rule="evenodd" opacity="1" stroke="none"/>
<path d="M1140.2 540.2L1140.2 572.1L1149.8 572.1L1149.8 537.3L1140.2 540.2Z" fill="#06becc" fill-rule="evenodd" opacity="1" stroke="none"/>
<path d="M1162.4 533.5L1156 535.5L1156 572.1L1165.6 572.1L1165.6 531.3L1162.4 533.5Z" fill="#06becc" fill-rule="evenodd" opacity="1" stroke="none"/>
<path d="M1171.8 527L1171.8 572.1L1181.4 572.1L1181.4 520.2L1171.8 527Z" fill="#06becc" fill-rule="evenodd" opacity="1" stroke="none"/>
<path d="M1185 508.2L1159.1 526.4L1129.4 535.4L1120.4 532L1118.6 535.5L1129.1 539.5L1162.4 529.5L1189.2 510.6L1185 508.2Z" fill="#06becc" fill-rule="evenodd" opacity="1" stroke="none"/>
<path d="M1181.4 507.2L1189.2 514.4L1191.8 504.9L1181.4 507.2Z" fill="#06becc" fill-rule="evenodd" opacity="1" stroke="none"/>
</g>
</g>
<path d="M1104.2 855.7L1050 855.7C1026.4 855.7 1007.3 836.5 1007.3 813C1007.3 793.2 991.2 777.1 971.4 777.1L926.7 777.1C924.8 777.1 923.2 775.5 923.2 773.6C923.2 771.7 924.8 770.1 926.7 770.1L971.4 770.1C995 770.1 1014.3 789.3 1014.3 813C1014.3 832.7 1030.4 848.8 1050.1 848.8L1104.2 848.8C1129.5 848.8 1150.1 828.2 1150.1 802.9L1150.1 662.8C1150.1 660.9 1151.7 659.3 1153.6 659.3C1155.5 659.3 1157.1 660.9 1157.1 662.8L1157.1 802.9C1157 832 1133.3 855.7 1104.2 855.7Z" fill="#4d4d4d" fill-rule="evenodd" opacity="1" stroke="none"/>
<path d="M1235.3 451.4C1233.6 451.4 1232.3 450.1 1232.3 448.4C1232.3 441.1 1226.3 435.1 1219 435.1C1217.3 435.1 1216 433.8 1216 432.1C1216 430.4 1217.3 429.1 1219 429.1C1229.7 429.1 1238.3 437.8 1238.3 448.4C1238.3 450 1236.9 451.4 1235.3 451.4Z" fill="#06becc" fill-rule="evenodd" opacity="1" stroke="none"/>
<path d="M1247.4 451.4C1245.7 451.4 1244.4 450.1 1244.4 448.4C1244.4 434.4 1233 423 1219 423C1217.3 423 1216 421.7 1216 420C1216 418.3 1217.3 417 1219 417C1236.3 417 1250.4 431.1 1250.4 448.4C1250.4 450 1249.1 451.4 1247.4 451.4Z" fill="#06becc" fill-rule="evenodd" opacity="1" stroke="none"/>
<g opacity="1">
<path d="M1313.3 53.8L1182 53.8L1182 285.1L1348.6 285.1L1348.6 84.6L1319 69.2L1313.3 53.8Z" fill="#e6e6e6" fill-rule="evenodd" opacity="1" stroke="none"/>
<path d="M1313.3 53.8L1313.3 84.6L1348.6 84.6L1313.3 53.8Z" fill="#b3b3b3" fill-rule="evenodd" opacity="1" stroke="none"/>
<path d="M1201.6 84.6L1292.1 84.6L1292.1 84.6L1292.1 99.7L1292.1 99.7L1201.6 99.7L1201.6 99.7L1201.6 84.6L1201.6 84.6Z" fill="#06becc" fill-rule="evenodd" opacity="1" stroke="none"/>
<path d="M1201.6 118L1329.4 118L1329.4 118L1329.4 122.9L1329.4 122.9L1201.6 122.9L1201.6 122.9L1201.6 118L1201.6 118Z" fill="#808080" fill-rule="evenodd" opacity="1" stroke="none"/>
<path d="M1201.6 130.6L1329.4 130.6L1329.4 130.6L1329.4 135.5L1329.4 135.5L1201.6 135.5L1201.6 135.5L1201.6 130.6L1201.6 130.6Z" fill="#808080" fill-rule="evenodd" opacity="1" stroke="none"/>
<path d="M1201.6 143.3L1329.4 143.3L1329.4 143.3L1329.4 148.2L1329.4 148.2L1201.6 148.2L1201.6 148.2L1201.6 143.3L1201.6 143.3Z" fill="#808080" fill-rule="evenodd" opacity="1" stroke="none"/>
<path d="M1201.6 155.9L1329.4 155.9L1329.4 155.9L1329.4 160.8L1329.4 160.8L1201.6 160.8L1201.6 160.8L1201.6 155.9L1201.6 155.9Z" fill="#808080" fill-rule="evenodd" opacity="1" stroke="none"/>
<path d="M1201.6 168.5L1329.4 168.5L1329.4 168.5L1329.4 173.4L1329.4 173.4L1201.6 173.4L1201.6 173.4L1201.6 168.5L1201.6 168.5Z" fill="#808080" fill-rule="evenodd" opacity="1" stroke="none"/>
<path d="M1201.6 181.2L1329.4 181.2L1329.4 181.2L1329.4 186.1L1329.4 186.1L1201.6 186.1L1201.6 186.1L1201.6 181.2L1201.6 181.2Z" fill="#808080" fill-rule="evenodd" opacity="1" stroke="none"/>
<path d="M1201.6 193.8L1329.4 193.8L1329.4 193.8L1329.4 198.7L1329.4 198.7L1201.6 198.7L1201.6 198.7L1201.6 193.8L1201.6 193.8Z" fill="#808080" fill-rule="evenodd" opacity="1" stroke="none"/>
<path d="M1201.6 206.5L1329.4 206.5L1329.4 206.5L1329.4 211.4L1329.4 211.4L1201.6 211.4L1201.6 211.4L1201.6 206.5L1201.6 206.5Z" fill="#808080" fill-rule="evenodd" opacity="1" stroke="none"/>
<path d="M1201.6 219.1L1329.4 219.1L1329.4 219.1L1329.4 224L1329.4 224L1201.6 224L1201.6 224L1201.6 219.1L1201.6 219.1Z" fill="#808080" fill-rule="evenodd" opacity="1" stroke="none"/>
<path d="M1201.6 231.8L1329.4 231.8L1329.4 231.8L1329.4 236.7L1329.4 236.7L1201.6 236.7L1201.6 236.7L1201.6 231.8L1201.6 231.8Z" fill="#808080" fill-rule="evenodd" opacity="1" stroke="none"/>
<path d="M1201.6 244.4L1329.4 244.4L1329.4 244.4L1329.4 249.3L1329.4 249.3L1201.6 249.3L1201.6 249.3L1201.6 244.4L1201.6 244.4Z" fill="#808080" fill-rule="evenodd" opacity="1" stroke="none"/>
</g>
<g opacity="1">
<path d="M438.4 155.7C437 155.7 435.9 154.6 435.9 153.2L435.9 143.1C435.9 141.7 437 140.6 438.4 140.6L448.5 140.6C449.9 140.6 451 141.7 451 143.1C451 144.5 449.9 145.6 448.5 145.6L440.8 145.6L440.8 153.2C440.8 154.5 439.7 155.7 438.4 155.7Z" fill="#4d4d4d" fill-rule="evenodd" opacity="1" stroke="none"/>
<path d="M471.6 155.7C470.2 155.7 469.1 154.6 469.1 153.2L469.1 145.5L461.5 145.5C460.1 145.5 459 144.4 459 143C459 141.6 460.1 140.5 461.5 140.5L471.6 140.5C473 140.5 474.1 141.6 474.1 143L474.1 153.1C474 154.6 472.9 155.7 471.6 155.7Z" fill="#4d4d4d" fill-rule="evenodd" opacity="1" stroke="none"/>
<path d="M471.6 175.9L461.5 175.9C460.1 175.9 459 174.8 459 173.4C459 172 460.1 170.9 461.5 170.9L469.2 170.9L469.2 163.3C469.2 161.9 470.3 160.8 471.7 160.8C473.1 160.8 474.2 161.9 474.2 163.3L474.2 173.4C474 174.8 472.9 175.9 471.6 175.9Z" fill="#4d4d4d" fill-rule="evenodd" opacity="1" stroke="none"/>
<path d="M448.4 176L438.3 176C436.9 176 435.8 174.9 435.8 173.5L435.8 163.4C435.8 162 436.9 160.9 438.3 160.9C439.7 160.9 440.8 162 440.8 163.4L440.8 171.1L448.4 171.1C449.8 171.1 450.9 172.2 450.9 173.6C450.9 174.9 449.8 176 448.4 176Z" fill="#4d4d4d" fill-rule="evenodd" opacity="1" stroke="none"/>
</g>
<path d="M166.9 543.2L68.2 543.2C66.3 543.2 64.7 541.6 64.7 539.7L64.7 464.2C64.7 462.3 66.2 460.7 68.2 460.7L166.9 460.7C168.8 460.7 170.4 462.2 170.4 464.2L170.4 539.7C170.4 541.7 168.8 543.2 166.9 543.2ZM71.6 536.3L163.4 536.3L163.4 467.7L71.6 467.7L71.6 536.3Z" fill="#4d4d4d" fill-rule="evenodd" opacity="1" stroke="none"/>
<path d="M117.5 511.5C116.7 511.5 115.9 511.2 115.2 510.6L65.8 466.9C64.4 465.6 64.2 463.4 65.5 462C66.8 460.6 69 460.4 70.4 461.7L117.5 503.4L164.6 461.7C166 460.4 168.2 460.6 169.5 462C170.8 463.4 170.6 465.6 169.2 466.9L119.8 510.6C119.2 511.2 118.4 511.5 117.5 511.5Z" fill="#4d4d4d" fill-rule="evenodd" opacity="1" stroke="none"/>
<path d="M68.2 543.2C67.3 543.2 66.4 542.9 65.7 542.2C64.4 540.8 64.4 538.7 65.7 537.3L105.8 497.3C107.2 496 109.3 496 110.7 497.3C112 498.7 112 500.8 110.7 502.2L70.6 542.2C70 542.9 69.1 543.2 68.2 543.2Z" fill="#4d4d4d" fill-rule="evenodd" opacity="1" stroke="none"/>
<path d="M166.9 543.2C166 543.2 165.1 542.9 164.5 542.2L124.4 502.2C123 500.8 123 498.7 124.4 497.3C125.8 495.9 127.9 495.9 129.3 497.3L169.4 537.3C170.8 538.7 170.8 540.8 169.4 542.2C168.7 542.9 167.8 543.2 166.9 543.2Z" fill="#4d4d4d" fill-rule="evenodd" opacity="1" stroke="none"/>
<path d="M1091.2 422.3C1089.3 422.3 1087.7 420.8 1087.7 418.8L1087.7 407C1087.7 405.1 1089.3 403.5 1091.2 403.5C1093.1 403.5 1094.7 405 1094.7 407L1094.7 418.9C1094.7 420.8 1093.1 422.3 1091.2 422.3ZM1091.2 398.6C1089.3 398.6 1087.7 397.1 1087.7 395.1L1087.7 383.2C1087.7 381.3 1089.3 379.7 1091.2 379.7C1093.1 379.7 1094.7 381.2 1094.7 383.2L1094.7 395.1C1094.7 397 1093.1 398.6 1091.2 398.6ZM1091.2 374.8C1089.3 374.8 1087.7 373.3 1087.7 371.3L1087.7 359.4C1087.7 357.5 1089.3 355.9 1091.2 355.9C1093.1 355.9 1094.7 357.4 1094.7 359.4L1094.7 371.3C1094.7 373.3 1093.1 374.8 1091.2 374.8ZM1091.2 351.1C1089.3 351.1 1087.7 349.6 1087.7 347.6L1087.7 335.7C1087.7 333.8 1089.3 332.2 1091.2 332.2C1093.1 332.2 1094.7 333.7 1094.7 335.7L1094.7 347.6C1094.7 349.6 1093.1 351.1 1091.2 351.1ZM1091.2 327.4C1089.3 327.4 1087.7 325.9 1087.7 323.9L1087.7 312C1087.7 310.1 1089.3 308.5 1091.2 308.5C1093.1 308.5 1094.7 310 1094.7 312L1094.7 323.9C1094.7 325.8 1093.1 327.4 1091.2 327.4ZM1091.2 303.6C1089.3 303.6 1087.7 302.1 1087.7 300.1L1087.7 288.2C1087.7 286.3 1089.3 284.7 1091.2 284.7C1093.1 284.7 1094.7 286.2 1094.7 288.2L1094.7 300.1C1094.7 302.1 1093.1 303.6 1091.2 303.6ZM1091.2 279.9C1089.3 279.9 1087.7 278.4 1087.7 276.4L1087.7 270.8C1087.7 268.9 1089.3 267.3 1091.2 267.3L1097.5 267.3C1099.4 267.3 1101 268.8 1101 270.8C1101 272.8 1099.4 274.3 1097.5 274.3L1094.7 274.3L1094.7 276.4C1094.7 278.3 1093.1 279.9 1091.2 279.9ZM1143.3 274.3L1133.1 274.3C1131.2 274.3 1129.6 272.8 1129.6 270.8C1129.6 268.8 1131.2 267.3 1133.1 267.3L1143.3 267.3C1145.2 267.3 1146.8 268.8 1146.8 270.8C1146.8 272.8 1145.2 274.3 1143.3 274.3ZM1121.2 274.3L1109.3 274.3C1107.4 274.3 1105.8 272.8 1105.8 270.8C1105.8 268.8 1107.4 267.3 1109.3 267.3L1121.2 267.3C1123.1 267.3 1124.7 268.8 1124.7 270.8C1124.7 272.8 1123.1 274.3 1121.2 274.3Z" fill="#4d4d4d" fill-rule="evenodd" opacity="1" stroke="none"/>
<path d="M119.5 432.5C117.6 432.5 116 431 116 429L116 278.6C116 234.5 151.9 198.6 196 198.6L303.3 198.6C305.2 198.6 306.8 200.1 306.8 202.1C306.8 204 305.3 205.6 303.3 205.6L196.1 205.6C155.8 205.6 123.1 238.4 123.1 278.6L123.1 429C123 430.9 121.5 432.5 119.5 432.5Z" fill="#4d4d4d" fill-rule="evenodd" opacity="1" stroke="none"/>
<path d="M256.1 360.5L185.7 360.5C184.6 360.5 183.7 359.6 183.7 358.5C183.7 357.4 184.6 356.5 185.7 356.5L256.1 356.5C257.2 356.5 258.1 357.4 258.1 358.5C258.1 359.6 257.2 360.5 256.1 360.5Z" fill="#4d4d4d" fill-rule="evenodd" opacity="1" stroke="none"/>
<path d="M256.1 380.1L185.7 380.1C184.6 380.1 183.7 379.2 183.7 378.1C183.7 377 184.6 376.1 185.7 376.1L256.1 376.1C257.2 376.1 258.1 377 258.1 378.1C258.1 379.2 257.2 380.1 256.1 380.1Z" fill="#4d4d4d" fill-rule="evenodd" opacity="1" stroke="none"/>
<path d="M256.1 400.6L185.7 400.6C184.6 400.6 183.7 399.7 183.7 398.6C183.7 397.5 184.6 396.6 185.7 396.6L256.1 396.6C257.2 396.6 258.1 397.5 258.1 398.6C258.1 399.7 257.2 400.6 256.1 400.6Z" fill="#4d4d4d" fill-rule="evenodd" opacity="1" stroke="none"/>
<path d="M166.9 363.3C166.8 363.3 166.8 363.3 166.9 363.3C166.4 363.3 166 363.1 165.7 362.7L161.2 357C160.7 356.4 160.8 355.4 161.5 354.9C162.1 354.4 163.1 354.5 163.6 355.2L167 359.5L177.3 347.3C177.8 346.7 178.8 346.6 179.4 347.1C180 347.6 180.1 348.6 179.6 349.2L168 362.8C167.7 363.1 167.3 363.3 166.9 363.3Z" fill="#4d4d4d" fill-rule="evenodd" opacity="1" stroke="none"/>
<path d="M166.9 384.7C166.8 384.7 166.8 384.7 166.9 384.7C166.4 384.7 166 384.5 165.7 384.1L161.2 378.4C160.7 377.8 160.8 376.8 161.5 376.3C162.1 375.8 163.1 375.9 163.6 376.6L167 380.9L177.3 368.7C177.8 368.1 178.8 368 179.4 368.5C180 369 180.1 370 179.6 370.6L168 384.2C167.7 384.5 167.3 384.7 166.9 384.7Z" fill="#4d4d4d" fill-rule="evenodd" opacity="1" stroke="none"/>
<path d="M166.9 404.2C166.8 404.2 166.8 404.2 166.9 404.2C166.4 404.2 166 404 165.7 403.6L161.2 397.9C160.7 397.3 160.8 396.3 161.5 395.8C162.1 395.3 163.1 395.4 163.6 396.1L167 400.4L177.3 388.2C177.8 387.6 178.8 387.5 179.4 388C180 388.5 180.1 389.5 179.6 390.1L168 403.7C167.7 404 167.3 404.2 166.9 404.2Z" fill="#4d4d4d" fill-rule="evenodd" opacity="1" stroke="none"/>
<path d="M665.2 222.3L653.3 222.3C651.4 222.3 649.8 220.8 649.8 218.8C649.8 216.9 651.3 215.3 653.3 215.3L665.2 215.3C667.1 215.3 668.7 216.8 668.7 218.8C668.6 220.8 667.1 222.3 665.2 222.3ZM641.4 222.3L629.5 222.3C627.6 222.3 626 220.8 626 218.8C626 216.9 627.5 215.3 629.5 215.3L641.4 215.3C643.3 215.3 644.9 216.8 644.9 218.8C644.9 220.8 643.3 222.3 641.4 222.3ZM617.7 222.3L605.8 222.3C603.9 222.3 602.3 220.8 602.3 218.8C602.3 216.9 603.8 215.3 605.8 215.3L617.7 215.3C619.6 215.3 621.2 216.8 621.2 218.8C621.2 220.8 619.6 222.3 617.7 222.3ZM594 222.3L582.1 222.3C580.2 222.3 578.6 220.8 578.6 218.8C578.6 216.9 580.1 215.3 582.1 215.3L594 215.3C595.9 215.3 597.5 216.8 597.5 218.8C597.4 220.8 595.9 222.3 594 222.3ZM570.2 222.3L558.3 222.3C556.4 222.3 554.8 220.8 554.8 218.8C554.8 216.9 556.3 215.3 558.3 215.3L570.2 215.3C572.1 215.3 573.7 216.8 573.7 218.8C573.7 220.8 572.1 222.3 570.2 222.3ZM546.5 222.3L534.6 222.3C532.7 222.3 531.1 220.8 531.1 218.8C531.1 216.9 532.6 215.3 534.6 215.3L546.5 215.3C548.4 215.3 550 216.8 550 218.8C549.9 220.8 548.4 222.3 546.5 222.3ZM522.7 222.3L510.8 222.3C508.9 222.3 507.3 220.8 507.3 218.8C507.3 216.9 508.8 215.3 510.8 215.3L522.7 215.3C524.6 215.3 526.2 216.8 526.2 218.8C526.2 220.8 524.7 222.3 522.7 222.3ZM671.1 216.4C669.2 216.4 667.6 214.9 667.6 212.9L667.6 201C667.6 199.1 669.1 197.5 671.1 197.5C673 197.5 674.6 199 674.6 201L674.6 213C674.6 214.9 673 216.4 671.1 216.4ZM671.1 192.7C669.2 192.7 667.6 191.2 667.6 189.2L667.6 177.3C667.6 175.4 669.1 173.8 671.1 173.8C673 173.8 674.6 175.3 674.6 177.3L674.6 189.2C674.6 191.1 673 192.7 671.1 192.7ZM671.1 168.9C669.2 168.9 667.6 167.4 667.6 165.4L667.6 153.5C667.6 151.6 669.1 150 671.1 150C673 150 674.6 151.5 674.6 153.5L674.6 165.4C674.6 167.4 673 168.9 671.1 168.9ZM924.1 149L912.2 149C910.3 149 908.7 147.5 908.7 145.5C908.7 143.6 910.3 142 912.2 142L924.1 142C926 142 927.6 143.5 927.6 145.5C927.6 147.4 926 149 924.1 149ZM900.4 149L888.5 149C886.6 149 885 147.5 885 145.5C885 143.6 886.6 142 888.5 142L900.4 142C902.3 142 903.9 143.5 903.9 145.5C903.8 147.4 902.3 149 900.4 149ZM876.7 149L864.8 149C862.9 149 861.3 147.5 861.3 145.5C861.3 143.6 862.9 142 864.8 142L876.7 142C878.6 142 880.2 143.5 880.2 145.5C880.1 147.4 878.6 149 876.7 149ZM852.9 149L841 149C839.1 149 837.5 147.5 837.5 145.5C837.5 143.6 839.1 142 841 142L852.9 142C854.8 142 856.4 143.5 856.4 145.5C856.4 147.4 854.8 149 852.9 149ZM829.2 149L817.3 149C815.4 149 813.8 147.5 813.8 145.5C813.8 143.6 815.4 142 817.3 142L829.2 142C831.1 142 832.7 143.5 832.7 145.5C832.6 147.4 831.1 149 829.2 149ZM805.4 149L793.5 149C791.6 149 790 147.5 790 145.5C790 143.6 791.6 142 793.5 142L805.4 142C807.3 142 808.9 143.5 808.9 145.5C808.9 147.4 807.4 149 805.4 149ZM781.7 149L769.8 149C767.9 149 766.3 147.5 766.3 145.5C766.3 143.6 767.9 142 769.8 142L781.7 142C783.6 142 785.2 143.5 785.2 145.5C785.2 147.4 783.6 149 781.7 149ZM758 149L746.1 149C744.2 149 742.6 147.5 742.6 145.5C742.6 143.6 744.2 142 746.1 142L758 142C759.9 142 761.5 143.5 761.5 145.5C761.4 147.4 759.9 149 758 149ZM734.2 149L722.3 149C720.4 149 718.8 147.5 718.8 145.5C718.8 143.6 720.4 142 722.3 142L734.2 142C736.1 142 737.7 143.5 737.7 145.5C737.7 147.4 736.1 149 734.2 149ZM710.5 149L698.6 149C696.7 149 695.1 147.5 695.1 145.5C695.1 143.6 696.7 142 698.6 142L710.5 142C712.4 142 714 143.5 714 145.5C714 147.4 712.4 149 710.5 149ZM686.8 149L674.9 149C673 149 671.4 147.5 671.4 145.5C671.4 143.6 672.9 142 674.9 142L686.8 142C688.7 142 690.3 143.5 690.3 145.5C690.2 147.4 688.7 149 686.8 149Z" fill="#4d4d4d" fill-rule="evenodd" opacity="1" stroke="none"/>
<g opacity="1">
<path d="M370.6 802.3C370.6 793.408 377.808 786.2 386.7 786.2C395.592 786.2 402.8 793.408 402.8 802.3C402.8 811.192 395.592 818.4 386.7 818.4C377.808 818.4 370.6 811.192 370.6 802.3Z" fill="#1e96fc" fill-rule="evenodd" opacity="1" stroke="none"/>
<path d="M373.1 803.3L369.3 803.3C368.8 803.3 368.3 802.9 368.3 802.3C368.3 801.8 368.7 801.3 369.3 801.3L373.1 801.3C373.6 801.3 374.1 801.7 374.1 802.3C374 802.8 373.6 803.3 373.1 803.3Z" fill="#414042" fill-rule="evenodd" opacity="1" stroke="none"/>
<path d="M404 803.3L400.2 803.3C399.7 803.3 399.2 802.9 399.2 802.3C399.2 801.8 399.6 801.3 400.2 801.3L404 801.3C404.5 801.3 405 801.7 405 802.3C405 802.8 404.6 803.3 404 803.3Z" fill="#414042" fill-rule="evenodd" opacity="1" stroke="none"/>
<path d="M386.7 820.7C386.2 820.7 385.7 820.3 385.7 819.7L385.7 815.9C385.7 815.4 386.1 814.9 386.7 814.9C387.2 814.9 387.7 815.3 387.7 815.9L387.7 819.7C387.6 820.2 387.2 820.7 386.7 820.7Z" fill="#414042" fill-rule="evenodd" opacity="1" stroke="none"/>
<path d="M386.7 789.7C386.2 789.7 385.7 789.3 385.7 788.7L385.7 784.9C385.7 784.4 386.1 783.9 386.7 783.9C387.2 783.9 387.7 784.3 387.7 784.9L387.7 788.7C387.6 789.2 387.2 789.7 386.7 789.7Z" fill="#414042" fill-rule="evenodd" opacity="1" stroke="none"/>
<path d="M396.1 808.8C395.9 808.8 395.8 808.8 395.6 808.7L386.1 803.2C386 803.1 385.9 803.1 385.8 802.9L381 796.7C380.7 796.3 380.7 795.6 381.2 795.3C381.6 795 382.3 795 382.6 795.5L387.3 801.5L396.6 806.9C397.1 807.2 397.2 807.8 397 808.3C396.8 808.6 396.5 808.8 396.1 808.8Z" fill="#414042" fill-rule="evenodd" opacity="1" stroke="none"/>
</g>
<g opacity="1">
<path d="M1092.2 95C1092.2 86.1082 1099.41 78.9 1108.3 78.9C1117.19 78.9 1124.4 86.1082 1124.4 95C1124.4 103.892 1117.19 111.1 1108.3 111.1C1099.41 111.1 1092.2 103.892 1092.2 95Z" fill="#1e96fc" fill-rule="evenodd" opacity="1" stroke="none"/>
<path d="M1094.7 96L1090.9 96C1090.4 96 1089.9 95.6 1089.9 95C1089.9 94.4 1090.3 94 1090.9 94L1094.7 94C1095.2 94 1095.7 94.4 1095.7 95C1095.7 95.6 1095.2 96 1094.7 96Z" fill="#414042" fill-rule="evenodd" opacity="1" stroke="none"/>
<path d="M1125.6 96L1121.8 96C1121.3 96 1120.8 95.6 1120.8 95C1120.8 94.4 1121.2 94 1121.8 94L1125.6 94C1126.1 94 1126.6 94.4 1126.6 95C1126.6 95.6 1126.2 96 1125.6 96Z" fill="#414042" fill-rule="evenodd" opacity="1" stroke="none"/>
<path d="M1108.3 113.4C1107.8 113.4 1107.3 113 1107.3 112.4L1107.3 108.6C1107.3 108.1 1107.7 107.6 1108.3 107.6C1108.9 107.6 1109.3 108 1109.3 108.6L1109.3 112.4C1109.3 112.9 1108.8 113.4 1108.3 113.4Z" fill="#414042" fill-rule="evenodd" opacity="1" stroke="none"/>
<path d="M1108.3 82.4C1107.8 82.4 1107.3 82 1107.3 81.4L1107.3 77.6C1107.3 77.1 1107.7 76.6 1108.3 76.6C1108.9 76.6 1109.3 77 1109.3 77.6L1109.3 81.4C1109.3 82 1108.8 82.4 1108.3 82.4Z" fill="#414042" fill-rule="evenodd" opacity="1" stroke="none"/>
<path d="M1117.7 101.5C1117.5 101.5 1117.4 101.5 1117.2 101.4L1107.7 95.9C1107.6 95.8 1107.5 95.8 1107.4 95.6L1102.6 89.4C1102.3 89 1102.3 88.3 1102.8 88C1103.2 87.7 1103.9 87.7 1104.2 88.2L1108.9 94.3L1118.2 99.7C1118.7 100 1118.8 100.6 1118.6 101.1C1118.4 101.3 1118.1 101.5 1117.7 101.5Z" fill="#414042" fill-rule="evenodd" opacity="1" stroke="none"/>
</g>
<g opacity="1">
<path d="M103.8 171.8L125.7 171.8L125.7 171.8L125.7 193.1L125.7 193.1L103.8 193.1L103.8 193.1L103.8 171.8L103.8 171.8Z" fill="#a5cc56" fill-rule="evenodd" opacity="1" stroke="none"/>
<path d="M122.6 200.4L117.5 200.4C116.7 200.4 116 199.7 116 198.9C116 198.1 116.7 197.4 117.5 197.4L121.1 197.4C121.1 196.6 121.8 195.9 122.6 195.9C123.4 195.9 124.1 196.6 124.1 197.4L124.1 198.9C124.1 199.7 123.5 200.4 122.6 200.4ZM112.4 200.4L107.3 200.4C106.5 200.4 105.8 199.7 105.8 198.9C105.8 198.1 106.5 197.4 107.3 197.4L112.4 197.4C113.2 197.4 113.9 198.1 113.9 198.9C114 199.7 113.3 200.4 112.4 200.4ZM102.3 200.4L99.4 200.4C98.6 200.4 97.9 199.7 97.9 198.9L97.9 196.7C97.9 195.9 98.6 195.2 99.4 195.2C100.2 195.2 100.9 195.9 100.9 196.7L100.9 197.3L102.3 197.3C103.1 197.3 103.8 198 103.8 198.8C103.8 199.7 103.1 200.4 102.3 200.4ZM122.6 193.7C121.8 193.7 121.1 193 121.1 192.2L121.1 187.1C121.1 186.3 121.8 185.6 122.6 185.6C123.4 185.6 124.1 186.3 124.1 187.1L124.1 192.2C124.1 193.1 123.5 193.7 122.6 193.7ZM99.3 193.1C98.5 193.1 97.8 192.4 97.8 191.6L97.8 186.5C97.8 185.7 98.5 185 99.3 185C100.1 185 100.8 185.7 100.8 186.5L100.8 191.6C100.9 192.4 100.2 193.1 99.3 193.1ZM122.6 183.6C121.8 183.6 121.1 182.9 121.1 182.1L121.1 177C121.1 176.2 121.8 175.5 122.6 175.5C123.4 175.5 124.1 176.2 124.1 177L124.1 182.1C124.1 182.9 123.5 183.6 122.6 183.6ZM99.3 183C98.5 183 97.8 182.3 97.8 181.5L97.8 176.4C97.8 175.6 98.5 174.9 99.3 174.9C100.1 174.9 100.8 175.6 100.8 176.4L100.8 181.5C100.9 182.3 100.2 183 99.3 183ZM118.9 177.1L113.8 177.1C113 177.1 112.3 176.4 112.3 175.6C112.3 174.8 113 174.1 113.8 174.1L118.9 174.1C119.7 174.1 120.4 174.8 120.4 175.6C120.4 176.4 119.8 177.1 118.9 177.1ZM108.7 177.1L103.6 177.1C102.8 177.1 102.1 176.4 102.1 175.6C102.1 174.8 102.8 174.1 103.6 174.1L108.7 174.1C109.5 174.1 110.2 174.8 110.2 175.6C110.3 176.4 109.6 177.1 108.7 177.1Z" fill="#414042" fill-rule="evenodd" opacity="1" stroke="none"/>
</g>
<path d="M946.3 932C945.9 932 945.5 931.8 945.2 931.6L938.5 924.7L931.8 931.2C931.6 931.5 931.4 931.8 931 931.9C930.4 932.1 929.8 932 929.4 931.6L922.8 924.9L916.3 931.2C916.1 931.5 915.9 931.7 915.5 931.9C914.9 932.1 914.3 932 913.9 931.6L907.4 924.9L900.9 931.2C900.7 931.5 900.5 931.7 900.1 931.9C899.5 932.1 898.9 932 898.5 931.6L890.9 923.8C890.3 923.2 890.3 922.3 890.9 921.7C891.5 921.1 892.4 921.1 893 921.7L899.5 928.4L906 922.1C906.2 921.8 906.4 921.6 906.8 921.4C907.4 921.2 908 921.3 908.4 921.7L914.9 928.4L921.1 922.4C921.2 922.1 921.3 921.8 921.5 921.6C922.1 921 923 921 923.6 921.6L923.8 921.8C923.8 921.8 923.8 921.8 923.9 921.9L930.4 928.5L937.1 922C937.3 921.7 937.5 921.4 937.9 921.3C938.5 921.1 939.1 921.2 939.5 921.6L946.2 928.5L953.2 921.7C953.8 921.1 954.7 921.1 955.3 921.7C955.9 922.3 955.9 923.2 955.3 923.8L947.6 931.3C947.4 931.6 947.2 931.9 946.8 932C946.7 932 946.5 932 946.3 932Z" fill="#414042" fill-rule="evenodd" opacity="1" stroke="none"/>
<path d="M650.2 877.4L641.3 877.4C640.2 877.4 639.3 876.5 639.3 875.4C639.3 874.3 640.2 873.4 641.3 873.4L650.2 873.4C651.3 873.4 652.2 874.3 652.2 875.4C652.2 876.5 651.3 877.4 650.2 877.4ZM632.4 877.4L623.5 877.4C622.4 877.4 621.5 876.5 621.5 875.4C621.5 874.3 622.4 873.4 623.5 873.4L632.4 873.4C633.5 873.4 634.4 874.3 634.4 875.4C634.4 876.5 633.5 877.4 632.4 877.4ZM614.6 877.4L605.7 877.4C604.6 877.4 603.7 876.5 603.7 875.4C603.7 874.3 604.6 873.4 605.7 873.4L614.6 873.4C615.7 873.4 616.6 874.3 616.6 875.4C616.6 876.5 615.7 877.4 614.6 877.4ZM596.8 877.4L587.9 877.4C586.8 877.4 585.9 876.5 585.9 875.4C585.9 874.3 586.8 873.4 587.9 873.4L596.8 873.4C597.9 873.4 598.8 874.3 598.8 875.4C598.8 876.5 597.9 877.4 596.8 877.4ZM579 877.4L570.1 877.4C569 877.4 568.1 876.5 568.1 875.4C568.1 874.3 569 873.4 570.1 873.4L579 873.4C580.1 873.4 581 874.3 581 875.4C581 876.5 580.1 877.4 579 877.4ZM561.2 877.4L552.3 877.4C551.2 877.4 550.3 876.5 550.3 875.4C550.3 874.3 551.2 873.4 552.3 873.4L561.2 873.4C562.3 873.4 563.2 874.3 563.2 875.4C563.2 876.5 562.3 877.4 561.2 877.4ZM543.4 877C543.3 877 543.2 877 543.1 877C540 876.6 537 875.8 534 874.7C533 874.3 532.5 873.2 532.9 872.1C533.3 871.1 534.4 870.6 535.5 871C538.1 872 540.9 872.7 543.6 873.1C544.7 873.2 545.4 874.2 545.3 875.3C545.2 876.3 544.4 877 543.4 877ZM527 870.6C526.6 870.6 526.2 870.5 525.9 870.2C523.3 868.4 521 866.3 518.9 864C518.2 863.2 518.2 861.9 519.1 861.2C519.9 860.5 521.2 860.6 521.9 861.4C523.8 863.5 525.9 865.4 528.2 867C529.1 867.6 529.3 868.9 528.7 869.8C528.2 870.3 527.6 870.6 527 870.6ZM515.3 857.5C514.6 857.5 513.9 857.1 513.6 856.5C512.1 853.7 511 850.8 510.2 847.8C509.9 846.7 510.6 845.7 511.6 845.4C512.7 845.1 513.7 845.8 514 846.8C514.7 849.5 515.7 852.2 517 854.6C517.5 855.6 517.1 856.8 516.2 857.3C515.9 857.4 515.6 857.5 515.3 857.5ZM510.9 840.4C509.8 840.4 508.9 839.5 508.9 838.4L508.9 837.8L508.9 829.5C508.9 828.4 509.8 827.5 510.9 827.5C512 827.5 512.9 828.4 512.9 829.5L512.9 838.4C512.9 839.5 512 840.4 510.9 840.4L510.9 840.4ZM510.9 822.6C509.8 822.6 508.9 821.7 508.9 820.6L508.9 811.7C508.9 810.6 509.8 809.7 510.9 809.7C512 809.7 512.9 810.6 512.9 811.7L512.9 820.6C512.9 821.7 512 822.6 510.9 822.6ZM510.9 804.8C509.8 804.8 508.9 803.9 508.9 802.8L508.9 793.9C508.9 792.8 509.8 791.9 510.9 791.9C512 791.9 512.9 792.8 512.9 793.9L512.9 802.8C512.9 803.9 512 804.8 510.9 804.8ZM510.9 787C509.8 787 508.9 786.1 508.9 785L508.9 776.1C508.9 775 509.8 774.1 510.9 774.1C512 774.1 512.9 775 512.9 776.1L512.9 785C512.9 786.1 512 787 510.9 787ZM510.9 769.2C509.8 769.2 508.9 768.3 508.9 767.2L508.9 758.3C508.9 757.2 509.8 756.3 510.9 756.3C512 756.3 512.9 757.2 512.9 758.3L512.9 767.2C512.9 768.3 512 769.2 510.9 769.2ZM510.9 751.4C509.8 751.4 508.9 750.5 508.9 749.4L508.9 740.5C508.9 739.4 509.8 738.5 510.9 738.5C512 738.5 512.9 739.4 512.9 740.5L512.9 749.4C512.9 750.5 512 751.4 510.9 751.4ZM510.9 733.6C509.8 733.6 508.9 732.7 508.9 731.6L508.9 722.7C508.9 721.6 509.8 720.7 510.9 720.7C512 720.7 512.9 721.6 512.9 722.7L512.9 731.6C512.9 732.7 512 733.6 510.9 733.6ZM510.9 715.8C509.8 715.8 508.9 714.9 508.9 713.8L508.9 704.9C508.9 703.8 509.8 702.9 510.9 702.9C512 702.9 512.9 703.8 512.9 704.9L512.9 713.8C512.9 714.9 512 715.8 510.9 715.8Z" fill="#4d4d4d" fill-rule="evenodd" opacity="1" stroke="none"/>
<path d="M806.4 900.5C805.3 900.5 804.4 899.6 804.4 898.5L804.4 889.6C804.4 888.5 805.3 887.6 806.4 887.6C807.5 887.6 808.4 888.5 808.4 889.6L808.4 898.5C808.4 899.6 807.5 900.5 806.4 900.5ZM806.4 882.7C805.3 882.7 804.4 881.8 804.4 880.7L804.4 875.4C804.4 874.3 805.3 873.4 806.4 873.4L810 873.4C811.1 873.4 812 874.3 812 875.4C812 876.5 811.1 877.4 810 877.4L808.4 877.4L808.4 880.8C808.4 881.8 807.5 882.7 806.4 882.7ZM881.2 877.4L872.3 877.4C871.2 877.4 870.3 876.5 870.3 875.4C870.3 874.3 871.2 873.4 872.3 873.4L881.2 873.4C882.3 873.4 883.2 874.3 883.2 875.4C883.2 876.5 882.3 877.4 881.2 877.4ZM863.4 877.4L854.5 877.4C853.4 877.4 852.5 876.5 852.5 875.4C852.5 874.3 853.4 873.4 854.5 873.4L863.4 873.4C864.5 873.4 865.4 874.3 865.4 875.4C865.4 876.5 864.5 877.4 863.4 877.4ZM845.6 877.4L836.7 877.4C835.6 877.4 834.7 876.5 834.7 875.4C834.7 874.3 835.6 873.4 836.7 873.4L845.6 873.4C846.7 873.4 847.6 874.3 847.6 875.4C847.6 876.5 846.7 877.4 845.6 877.4ZM827.8 877.4L818.9 877.4C817.8 877.4 816.9 876.5 816.9 875.4C816.9 874.3 817.8 873.4 818.9 873.4L827.8 873.4C828.9 873.4 829.8 874.3 829.8 875.4C829.8 876.5 828.9 877.4 827.8 877.4ZM890.1 877.2C889.1 877.2 888.2 876.4 888.1 875.4C888 874.3 888.8 873.4 889.9 873.3C892.7 873 895.5 872.5 898.2 871.6C899.2 871.3 900.4 871.8 900.7 872.9C901 873.9 900.5 875.1 899.4 875.4C896.4 876.4 893.4 877 890.3 877.3C890.2 877.2 890.2 877.2 890.1 877.2ZM906.9 871.8C906.2 871.8 905.6 871.5 905.2 870.8C904.6 869.9 905 868.6 905.9 868.1C908.3 866.7 910.6 865 912.6 863C913.4 862.3 914.6 862.3 915.4 863.1C916.1 863.9 916.1 865.1 915.3 865.9C913 868 910.5 869.9 907.9 871.5C907.6 871.7 907.3 871.8 906.9 871.8ZM919.8 859.7C919.4 859.7 919 859.6 918.7 859.4C917.8 858.8 917.6 857.6 918.2 856.7C919.8 854.4 921.1 851.9 922.1 849.2C922.5 848.2 923.6 847.7 924.7 848.1C925.7 848.5 926.2 849.6 925.8 850.7C924.7 853.6 923.2 856.4 921.5 858.9C921 859.4 920.4 859.7 919.8 859.7ZM926.2 843.3C926.1 843.3 926 843.3 925.9 843.3C924.8 843.1 924.1 842.1 924.2 841C924.5 839.1 924.6 837.2 924.6 835.2L924.6 832.4C924.6 831.3 925.5 830.4 926.6 830.4C927.7 830.4 928.6 831.3 928.6 832.4L928.6 835.2C928.6 837.3 928.4 839.5 928.1 841.6C928 842.6 927.2 843.3 926.2 843.3ZM926.7 825.5C925.6 825.5 924.7 824.6 924.7 823.5L924.7 814.6C924.7 813.5 925.6 812.6 926.7 812.6C927.8 812.6 928.7 813.5 928.7 814.6L928.7 823.5C928.6 824.6 927.7 825.5 926.7 825.5ZM926.7 807.7C925.6 807.7 924.7 806.8 924.7 805.7L924.7 802.3C924.7 801.2 925.6 800.3 926.7 800.3C927.8 800.3 928.7 801.2 928.7 802.3L928.7 805.7C928.6 806.8 927.7 807.7 926.7 807.7Z" fill="#4d4d4d" fill-rule="evenodd" opacity="1" stroke="none"/>
<path d="M1203.3 660.8L1194.4 660.8C1193.3 660.8 1192.4 659.9 1192.4 658.8C1192.4 657.7 1193.3 656.8 1194.4 656.8L1203.3 656.8C1204.4 656.8 1205.3 657.7 1205.3 658.8C1205.3 659.9 1204.4 660.8 1203.3 660.8ZM1185.5 660.8L1176.6 660.8C1175.5 660.8 1174.6 659.9 1174.6 658.8C1174.6 657.7 1175.5 656.8 1176.6 656.8L1185.5 656.8C1186.6 656.8 1187.5 657.7 1187.5 658.8C1187.5 659.9 1186.6 660.8 1185.5 660.8ZM1212.2 660.7C1211.2 660.7 1210.3 659.9 1210.2 658.9C1210.1 657.8 1210.9 656.8 1212 656.7C1214.8 656.4 1217.5 655.8 1220 654.7C1221 654.3 1222.2 654.7 1222.6 655.7C1223 656.7 1222.6 657.9 1221.6 658.3C1218.7 659.5 1215.6 660.3 1212.4 660.6C1212.3 660.7 1212.2 660.7 1212.2 660.7ZM1228.3 653.9C1227.7 653.9 1227.2 653.7 1226.8 653.2C1226.1 652.4 1226.2 651.1 1227 650.4C1229.1 648.6 1230.9 646.5 1232.4 644.1C1233 643.2 1234.2 642.9 1235.1 643.5C1236 644.1 1236.3 645.3 1235.7 646.2C1234 648.9 1231.9 651.3 1229.5 653.4C1229.2 653.7 1228.8 653.9 1228.3 653.9ZM1237.6 639C1237.4 639 1237.3 639 1237.1 638.9C1236 638.6 1235.4 637.6 1235.7 636.5C1236.2 634.3 1236.5 632.1 1236.5 629.8L1236.5 628.1C1236.5 627 1237.4 626.1 1238.5 626.1C1239.6 626.1 1240.5 627 1240.5 628.1L1240.5 629.8C1240.5 632.4 1240.2 634.9 1239.6 637.4C1239.3 638.4 1238.5 639 1237.6 639ZM1238.5 621.3C1237.4 621.3 1236.5 620.4 1236.5 619.3L1236.5 610.4C1236.5 609.3 1237.4 608.4 1238.5 608.4C1239.6 608.4 1240.5 609.3 1240.5 610.4L1240.5 619.3C1240.4 620.4 1239.6 621.3 1238.5 621.3ZM1238.5 603.5C1237.4 603.5 1236.5 602.6 1236.5 601.5L1236.5 592.6C1236.5 591.5 1237.4 590.6 1238.5 590.6C1239.6 590.6 1240.5 591.5 1240.5 592.6L1240.5 601.5C1240.4 602.6 1239.6 603.5 1238.5 603.5ZM1238.5 585.7C1237.4 585.7 1236.5 584.8 1236.5 583.7L1236.5 574.8C1236.5 573.7 1237.4 572.8 1238.5 572.8C1239.6 572.8 1240.5 573.7 1240.5 574.8L1240.5 583.7C1240.4 584.8 1239.6 585.7 1238.5 585.7ZM1238.5 567.9C1237.4 567.9 1236.5 567 1236.5 565.9L1236.5 557C1236.5 555.9 1237.4 555 1238.5 555C1239.6 555 1240.5 555.9 1240.5 557L1240.5 565.9C1240.4 567 1239.6 567.9 1238.5 567.9ZM1238.5 550.1C1237.4 550.1 1236.5 549.2 1236.5 548.1L1236.5 539.2C1236.5 538.1 1237.4 537.2 1238.5 537.2C1239.6 537.2 1240.5 538.1 1240.5 539.2L1240.5 548.1C1240.4 549.2 1239.6 550.1 1238.5 550.1ZM1238.5 532.3C1237.4 532.3 1236.5 531.4 1236.5 530.3L1236.5 521.4C1236.5 520.3 1237.4 519.4 1238.5 519.4C1239.6 519.4 1240.5 520.3 1240.5 521.4L1240.5 530.3C1240.4 531.4 1239.6 532.3 1238.5 532.3ZM1238.5 514.5C1237.4 514.5 1236.5 513.6 1236.5 512.5L1236.5 503.8C1236.5 502.7 1237.4 501.8 1238.5 501.8C1239.6 501.8 1240.5 502.7 1240.5 503.8L1240.5 512.5C1240.4 513.6 1239.6 514.5 1238.5 514.5Z" fill="#4d4d4d" fill-rule="evenodd" opacity="1" stroke="none"/>
<path d="M790 443.3C789.6 443.3 789.3 443.2 789 442.9L784.2 438L779.4 442.7C779.2 442.9 779 443.1 778.8 443.2C778.2 443.4 777.6 443.3 777.2 442.9L772.5 438.1L767.9 442.6C767.7 442.8 767.5 443 767.3 443.1C766.7 443.3 766.1 443.2 765.7 442.8L761.1 438L756.4 442.6C756.2 442.8 756 443 755.8 443.1C755.2 443.3 754.6 443.2 754.2 442.8L748.5 436.9C747.9 436.3 747.9 435.4 748.5 434.8C749.1 434.2 750 434.2 750.6 434.8L755.2 439.6L759.9 435C760.1 434.8 760.3 434.6 760.5 434.5C761.1 434.3 761.7 434.4 762.1 434.8L766.7 439.6L771 435.4C771.1 435.1 771.2 434.9 771.4 434.7C772 434.1 772.9 434.1 773.5 434.7L773.6 434.9L773.6 434.9L778.2 439.6L783 434.9C783.2 434.7 783.4 434.5 783.6 434.4C784.2 434.2 784.8 434.3 785.2 434.7L790 439.6L795 434.7C795.6 434.1 796.5 434.1 797.1 434.7C797.7 435.3 797.7 436.2 797.1 436.8L791.2 442.5C791 442.7 790.8 442.9 790.6 443C790.4 443.3 790.2 443.3 790 443.3Z" fill="#414042" fill-rule="evenodd" opacity="1" stroke="none"/>
<path d="M824.7 455.3C824.3 455.3 824 455.2 823.7 454.9L818.9 450L814.1 454.7C813.9 454.9 813.7 455.1 813.5 455.2C812.9 455.4 812.3 455.3 811.9 454.9L807.2 450.1L802.6 454.6C802.4 454.8 802.2 455 802 455.1C801.4 455.3 800.8 455.2 800.4 454.8L795.8 450L791.1 454.6C790.9 454.8 790.7 455 790.5 455.1C789.9 455.3 789.3 455.2 788.9 454.8L783.2 448.9C782.6 448.3 782.6 447.4 783.2 446.8C783.8 446.2 784.7 446.2 785.3 446.8L789.9 451.6L794.6 447C794.8 446.8 795 446.6 795.2 446.5C795.8 446.3 796.4 446.4 796.8 446.8L801.4 451.6L805.7 447.4C805.8 447.1 805.9 446.9 806.1 446.7C806.7 446.1 807.6 446.1 808.2 446.7L808.3 446.9L808.3 446.9L812.9 451.6L817.7 446.9C817.9 446.7 818.1 446.5 818.3 446.4C818.9 446.2 819.5 446.3 819.9 446.7L824.7 451.6L829.7 446.7C830.3 446.1 831.2 446.1 831.8 446.7C832.4 447.3 832.4 448.2 831.8 448.8L825.9 454.5C825.7 454.7 825.5 454.9 825.3 455C825.1 455.2 824.9 455.3 824.7 455.3Z" fill="#414042" fill-rule="evenodd" opacity="1" stroke="none"/>
<path d="M883.5 455.3C883.1 455.3 882.8 455.2 882.5 454.9L877.7 450L872.9 454.7C872.7 454.9 872.5 455.1 872.3 455.2C871.7 455.4 871.1 455.3 870.7 454.9L866 450.1L861.4 454.6C861.2 454.8 861 455 860.8 455.1C860.2 455.3 859.6 455.2 859.2 454.8L854.6 450L849.9 454.6C849.7 454.8 849.5 455 849.3 455.1C848.7 455.3 848.1 455.2 847.7 454.8L842 448.9C841.4 448.3 841.4 447.4 842 446.8C842.6 446.2 843.5 446.2 844.1 446.8L848.7 451.6L853.4 447C853.6 446.8 853.8 446.6 854 446.5C854.6 446.3 855.2 446.4 855.6 446.8L860.2 451.6L864.5 447.4C864.6 447.1 864.7 446.9 864.9 446.7C865.5 446.1 866.4 446.1 867 446.7L867.1 446.9L867.1 446.9L871.7 451.6L876.5 446.9C876.7 446.7 876.9 446.5 877.1 446.4C877.7 446.2 878.3 446.3 878.7 446.7L883.5 451.6L888.5 446.7C889.1 446.1 890 446.1 890.6 446.7C891.2 447.3 891.2 448.2 890.6 448.8L884.7 454.5C884.5 454.7 884.3 454.9 884.1 455C883.9 455.2 883.7 455.3 883.5 455.3Z" fill="#414042" fill-rule="evenodd" opacity="1" stroke="none"/>
<path d="M151.9 95.8C144.5 95.8 138.5 89.8 138.5 82.4C138.5 76.6 133.8 71.9 128 71.9C122.2 71.9 117.5 76.6 117.5 82.4C117.5 89.8 111.5 95.8 104.1 95.8C96.7 95.8 90.7 89.8 90.7 82.4C90.7 76.6 86 71.9 80.2 71.9C74.4 71.9 69.7 76.6 69.7 82.4C69.7 83.2 69 83.9 68.2 83.9C67.4 83.9 66.7 83.2 66.7 82.4C66.7 75 72.7 69 80.1 69C87.5 69 93.5 75 93.5 82.4C93.5 88.2 98.2 92.9 104 92.9C109.8 92.9 114.5 88.2 114.5 82.4C114.5 75 120.5 69 127.9 69C135.3 69 141.3 75 141.3 82.4C141.3 88.2 146 92.9 151.8 92.9C157.6 92.9 162.3 88.2 162.3 82.4C162.3 81.6 163 80.9 163.8 80.9C164.6 80.9 165.3 81.6 165.3 82.4C165.3 89.8 159.3 95.8 151.9 95.8Z" fill="#414042" fill-rule="evenodd" opacity="1" stroke="none"/>
<path d="M1187.5 926.6C1180.1 926.6 1174.1 920.6 1174.1 913.2C1174.1 907.4 1169.4 902.7 1163.6 902.7C1157.8 902.7 1153.1 907.4 1153.1 913.2C1153.1 920.6 1147.1 926.6 1139.7 926.6C1132.3 926.6 1126.3 920.6 1126.3 913.2C1126.3 907.4 1121.6 902.7 1115.8 902.7C1110 902.7 1105.3 907.4 1105.3 913.2C1105.3 914 1104.6 914.7 1103.8 914.7C1103 914.7 1102.3 914 1102.3 913.2C1102.3 905.8 1108.3 899.8 1115.7 899.8C1123.1 899.8 1129.1 905.8 1129.1 913.2C1129.1 919 1133.8 923.7 1139.6 923.7C1145.4 923.7 1150.1 919 1150.1 913.2C1150.1 905.8 1156.1 899.8 1163.5 899.8C1170.9 899.8 1176.9 905.8 1176.9 913.2C1176.9 919 1181.6 923.7 1187.4 923.7C1193.2 923.7 1197.9 919 1197.9 913.2C1197.9 912.4 1198.6 911.7 1199.4 911.7C1200.2 911.7 1200.9 912.4 1200.9 913.2C1200.9 920.5 1194.9 926.6 1187.5 926.6Z" fill="#414042" fill-rule="evenodd" opacity="1" stroke="none"/>
</g>
<g id="XMLID_506_" vectornator:layerName="XMLID_506_">
<path d="M340.3 169.9L324.8 169.9C324.3 169.9 323.8 169.5 323.8 168.9C323.8 168.4 324.2 167.9 324.8 167.9L340.3 167.9C340.8 167.9 341.3 168.3 341.3 168.9C341.3 169.5 340.9 169.9 340.3 169.9Z" fill="#414042" fill-rule="evenodd" opacity="1" stroke="none"/>
<path d="M332.6 177.7C332.1 177.7 331.6 177.3 331.6 176.7L331.6 161.2C331.6 160.7 332 160.2 332.6 160.2C333.2 160.2 333.6 160.6 333.6 161.2L333.6 176.7C333.6 177.2 333.1 177.7 332.6 177.7Z" fill="#414042" fill-rule="evenodd" opacity="1" stroke="none"/>
</g>
<g id="XMLID_40_" vectornator:layerName="XMLID_40_">
<path d="M469.2 729.1L453.7 729.1C453.2 729.1 452.7 728.7 452.7 728.1C452.7 727.6 453.1 727.1 453.7 727.1L469.2 727.1C469.7 727.1 470.2 727.5 470.2 728.1C470.2 728.7 469.8 729.1 469.2 729.1Z" fill="#414042" fill-rule="evenodd" opacity="1" stroke="none"/>
<path d="M461.5 736.8C461 736.8 460.5 736.4 460.5 735.8L460.5 720.3C460.5 719.8 460.9 719.3 461.5 719.3C462.1 719.3 462.5 719.7 462.5 720.3L462.5 735.8C462.5 736.4 462 736.8 461.5 736.8Z" fill="#414042" fill-rule="evenodd" opacity="1" stroke="none"/>
</g>
<g id="XMLID_49_" vectornator:layerName="XMLID_49_">
<path d="M849.1 240.6L833.6 240.6C833.1 240.6 832.6 240.2 832.6 239.6C832.6 239.1 833 238.6 833.6 238.6L849.1 238.6C849.6 238.6 850.1 239 850.1 239.6C850 240.2 849.6 240.6 849.1 240.6Z" fill="#414042" fill-rule="evenodd" opacity="1" stroke="none"/>
<path d="M841.4 248.3C840.9 248.3 840.4 247.9 840.4 247.3L840.4 231.8C840.4 231.3 840.8 230.8 841.4 230.8C842 230.8 842.4 231.2 842.4 231.8L842.4 247.3C842.3 247.9 841.9 248.3 841.4 248.3Z" fill="#414042" fill-rule="evenodd" opacity="1" stroke="none"/>
</g>
<g id="XMLID_134_" vectornator:layerName="XMLID_134_">
<path d="M1287.4 512.4L1271.9 512.4C1271.4 512.4 1270.9 512 1270.9 511.4C1270.9 510.9 1271.3 510.4 1271.9 510.4L1287.4 510.4C1287.9 510.4 1288.4 510.8 1288.4 511.4C1288.3 512 1287.9 512.4 1287.4 512.4Z" fill="#414042" fill-rule="evenodd" opacity="1" stroke="none"/>
<path d="M1279.7 520.2C1279.2 520.2 1278.7 519.8 1278.7 519.2L1278.7 503.7C1278.7 503.2 1279.1 502.7 1279.7 502.7C1280.3 502.7 1280.7 503.1 1280.7 503.7L1280.7 519.2C1280.6 519.7 1280.2 520.2 1279.7 520.2Z" fill="#414042" fill-rule="evenodd" opacity="1" stroke="none"/>
</g>
<g id="XMLID_54_" vectornator:layerName="XMLID_54_">
<path d="M1061.5 791.1L1046 791.1C1045.5 791.1 1045 790.7 1045 790.1C1045 789.6 1045.4 789.1 1046 789.1L1061.5 789.1C1062 789.1 1062.5 789.5 1062.5 790.1C1062.4 790.7 1062 791.1 1061.5 791.1Z" fill="#414042" fill-rule="evenodd" opacity="1" stroke="none"/>
<path d="M1053.8 798.8C1053.3 798.8 1052.8 798.4 1052.8 797.8L1052.8 782.3C1052.8 781.8 1053.2 781.3 1053.8 781.3C1054.4 781.3 1054.8 781.7 1054.8 782.3L1054.8 797.8C1054.7 798.4 1054.3 798.8 1053.8 798.8Z" fill="#414042" fill-rule="evenodd" opacity="1" stroke="none"/>
</g>
<g id="Untitled_2" vectornator:layerName="Untitled">
<path d="M601.3 90.7L601.1 90.7C600.3 90.7 599.6 90 599.6 89.2C599.6 88.4 600.3 87.7 601.1 87.7L601.3 87.7C602.1 87.7 602.8 88.4 602.8 89.2C602.8 90 602.2 90.7 601.3 90.7ZM593.2 90.7L585.3 90.7C584.5 90.7 583.8 90 583.8 89.2C583.8 88.4 584.5 87.7 585.3 87.7L593.2 87.7C594 87.7 594.7 88.4 594.7 89.2C594.7 90 594 90.7 593.2 90.7ZM577.4 90.7L569.5 90.7C568.7 90.7 568 90 568 89.2C568 88.4 568.7 87.7 569.5 87.7L577.4 87.7C578.2 87.7 578.9 88.4 578.9 89.2C578.9 90 578.2 90.7 577.4 90.7ZM561.5 90.7L553.6 90.7C552.8 90.7 552.1 90 552.1 89.2C552.1 88.4 552.8 87.7 553.6 87.7L561.5 87.7C562.3 87.7 563 88.4 563 89.2C563 90 562.4 90.7 561.5 90.7ZM545.7 90.7L537.8 90.7C537 90.7 536.3 90 536.3 89.2C536.3 88.4 537 87.7 537.8 87.7L545.7 87.7C546.5 87.7 547.2 88.4 547.2 89.2C547.2 90 546.5 90.7 545.7 90.7ZM529.9 90.7L522 90.7C521.2 90.7 520.5 90 520.5 89.2C520.5 88.4 521.2 87.7 522 87.7L529.9 87.7C530.7 87.7 531.4 88.4 531.4 89.2C531.4 90 530.7 90.7 529.9 90.7ZM514.1 90.7L506.2 90.7C505.4 90.7 504.7 90 504.7 89.2C504.7 88.4 505.4 87.7 506.2 87.7L514.1 87.7C514.9 87.7 515.6 88.4 515.6 89.2C515.6 90 514.9 90.7 514.1 90.7ZM498.2 90.7L490.3 90.7C489.5 90.7 488.8 90 488.8 89.2C488.8 88.4 489.5 87.7 490.3 87.7L498.2 87.7C499 87.7 499.7 88.4 499.7 89.2C499.7 90 499.1 90.7 498.2 90.7ZM482.4 90.7L474.5 90.7C473.7 90.7 473 90 473 89.2C473 88.4 473.7 87.7 474.5 87.7L482.4 87.7C483.2 87.7 483.9 88.4 483.9 89.2C483.9 90 483.2 90.7 482.4 90.7Z" fill="#414042" fill-rule="evenodd" opacity="1" stroke="none"/>
<path d="M797 90.7L789.4 90.7C788.6 90.7 787.9 90 787.9 89.2C787.9 88.4 788.6 87.7 789.4 87.7L797 87.7C797.8 87.7 798.5 88.4 798.5 89.2C798.5 90 797.8 90.7 797 90.7ZM771.6 90.7L753.8 90.7C753 90.7 752.3 90 752.3 89.2C752.3 88.4 753 87.7 753.8 87.7L771.6 87.7C772.4 87.7 773.1 88.4 773.1 89.2C773.1 90 772.4 90.7 771.6 90.7ZM736 90.7L718.2 90.7C717.4 90.7 716.7 90 716.7 89.2C716.7 88.4 717.4 87.7 718.2 87.7L736 87.7C736.8 87.7 737.5 88.4 737.5 89.2C737.5 90 736.8 90.7 736 90.7ZM700.4 90.7L682.6 90.7C681.8 90.7 681.1 90 681.1 89.2C681.1 88.4 681.8 87.7 682.6 87.7L700.4 87.7C701.2 87.7 701.9 88.4 701.9 89.2C701.8 90 701.2 90.7 700.4 90.7ZM664.8 90.7L647 90.7C646.2 90.7 645.5 90 645.5 89.2C645.5 88.4 646.2 87.7 647 87.7L664.8 87.7C665.6 87.7 666.3 88.4 666.3 89.2C666.2 90 665.6 90.7 664.8 90.7ZM629.2 90.7L611.4 90.7C610.6 90.7 609.9 90 609.9 89.2C609.9 88.4 610.6 87.7 611.4 87.7L629.2 87.7C630 87.7 630.7 88.4 630.7 89.2C630.6 90 630 90.7 629.2 90.7Z" fill="#414042" fill-rule="evenodd" opacity="1" stroke="none"/>
<path d="M1007.6 694.5L976.5 694.5C975.7 694.5 975 693.8 975 693C975 692.2 975.7 691.5 976.5 691.5L1007.6 691.5C1008.4 691.5 1009.1 692.2 1009.1 693C1009.1 693.9 1008.4 694.5 1007.6 694.5Z" fill="#414042" fill-rule="evenodd" opacity="1" stroke="none"/>
<path d="M1033 694.5L1017.5 694.5C1016.7 694.5 1016 693.8 1016 693C1016 692.2 1016.7 691.5 1017.5 691.5L1033 691.5C1033.8 691.5 1034.5 692.2 1034.5 693C1034.5 693.9 1033.8 694.5 1033 694.5Z" fill="#414042" fill-rule="evenodd" opacity="1" stroke="none"/>
<path d="M1057.9 694.5L1042.4 694.5C1041.6 694.5 1040.9 693.8 1040.9 693C1040.9 692.2 1041.6 691.5 1042.4 691.5L1057.9 691.5C1058.7 691.5 1059.4 692.2 1059.4 693C1059.4 693.9 1058.7 694.5 1057.9 694.5Z" fill="#414042" fill-rule="evenodd" opacity="1" stroke="none"/>
<path d="M970 699.1C969.7 699.1 969.3 699 969.1 698.8L963.4 694.2C963 693.9 962.8 693.5 962.8 693C962.8 692.5 963 692.1 963.4 691.8L969.1 687.3C969.7 686.8 970.7 686.9 971.2 687.5C971.7 688.1 971.6 689.1 971 689.6L966.7 693L971 696.4C971.6 696.9 971.7 697.8 971.2 698.5C970.9 698.9 970.5 699.1 970 699.1Z" fill="#414042" fill-rule="evenodd" opacity="1" stroke="none"/>
<path d="M970 713.2L958.3 713.2C957.5 713.2 956.8 712.5 956.8 711.7C956.8 710.9 957.5 710.2 958.3 710.2L970 710.2C970.8 710.2 971.5 710.9 971.5 711.7C971.5 712.5 970.9 713.2 970 713.2Z" fill="#414042" fill-rule="evenodd" opacity="1" stroke="none"/>
<path d="M1014.8 713.2L978.6 713.2C977.8 713.2 977.1 712.5 977.1 711.7C977.1 710.9 977.8 710.2 978.6 710.2L1014.8 710.2C1015.6 710.2 1016.3 710.9 1016.3 711.7C1016.3 712.5 1015.6 713.2 1014.8 713.2Z" fill="#414042" fill-rule="evenodd" opacity="1" stroke="none"/>
<path d="M1037.4 713.2L1025.3 713.2C1024.5 713.2 1023.8 712.5 1023.8 711.7C1023.8 710.9 1024.5 710.2 1025.3 710.2L1037.4 710.2C1038.2 710.2 1038.9 710.9 1038.9 711.7C1038.9 712.5 1038.2 713.2 1037.4 713.2Z" fill="#414042" fill-rule="evenodd" opacity="1" stroke="none"/>
<path d="M951.8 717.8C951.5 717.8 951.1 717.7 950.9 717.5L945.2 712.9C944.8 712.6 944.6 712.2 944.6 711.7C944.6 711.2 944.8 710.8 945.2 710.5L950.9 706C951.5 705.5 952.5 705.6 953 706.2C953.5 706.8 953.4 707.8 952.8 708.3L948.5 711.7L952.8 715.1C953.4 715.6 953.5 716.5 953 717.2C952.7 717.6 952.3 717.8 951.8 717.8Z" fill="#414042" fill-rule="evenodd" opacity="1" stroke="none"/>
</g>
<g id="XMLID_311_" vectornator:layerName="XMLID_311_">
<path d="M75.2 615.3L61.1 615.3C59.5 615.3 58.3 614 58.3 612.5C58.3 610.9 59.6 609.7 61.1 609.7L75.2 609.7C76.8 609.7 78 611 78 612.5C78.1 614 76.8 615.3 75.2 615.3Z" fill="#414042" fill-rule="evenodd" opacity="1" stroke="none"/>
</g>
<g id="XMLID_60_" vectornator:layerName="XMLID_60_">
<path d="M589.7 546.7L575.6 546.7C574 546.7 572.8 545.4 572.8 543.9C572.8 542.3 574.1 541.1 575.6 541.1L589.7 541.1C591.3 541.1 592.5 542.4 592.5 543.9C592.5 545.4 591.2 546.7 589.7 546.7Z" fill="#414042" fill-rule="evenodd" opacity="1" stroke="none"/>
</g>
<g id="XMLID_62_" vectornator:layerName="XMLID_62_">
<path d="M409.6 338.3L395.5 338.3C393.9 338.3 392.7 337 392.7 335.5C392.7 334 394 332.7 395.5 332.7L409.6 332.7C411.2 332.7 412.4 334 412.4 335.5C412.4 337 411.2 338.3 409.6 338.3Z" fill="#414042" fill-rule="evenodd" opacity="1" stroke="none"/>
</g>
<g id="XMLID_64_" vectornator:layerName="XMLID_64_">
<path d="M1030.8 341.1L1016.7 341.1C1015.1 341.1 1013.9 339.8 1013.9 338.3C1013.9 336.8 1015.2 335.5 1016.7 335.5L1030.8 335.5C1032.4 335.5 1033.6 336.8 1033.6 338.3C1033.6 339.8 1032.4 341.1 1030.8 341.1Z" fill="#414042" fill-rule="evenodd" opacity="1" stroke="none"/>
</g>
<g id="XMLID_487_" vectornator:layerName="XMLID_487_">
<path d="M417 454.8L411.1 454.8C410.3 454.8 409.6 454.1 409.6 453.3C409.6 452.5 410.3 451.8 411.1 451.8L415.6 451.8L415.6 447.3C415.6 446.5 416.3 445.8 417.1 445.8C417.9 445.8 418.6 446.5 418.6 447.3L418.6 453.2C418.5 454.1 417.9 454.8 417 454.8Z" fill="#414042" fill-rule="evenodd" opacity="1" stroke="none"/>
<path d="M394.1 454.8L388.2 454.8C387.4 454.8 386.7 454.1 386.7 453.3L386.7 447.4C386.7 446.6 387.4 445.9 388.2 445.9C389 445.9 389.7 446.6 389.7 447.4L389.7 451.9L394.2 451.9C395 451.9 395.7 452.6 395.7 453.4C395.6 454.1 394.9 454.8 394.1 454.8Z" fill="#414042" fill-rule="evenodd" opacity="1" stroke="none"/>
<path d="M388.1 431.8C387.3 431.8 386.6 431.1 386.6 430.3L386.6 424.4C386.6 423.6 387.3 422.9 388.1 422.9L394 422.9C394.8 422.9 395.5 423.6 395.5 424.4C395.5 425.2 394.8 425.9 394 425.9L389.5 425.9L389.5 430.4C389.6 431.2 389 431.8 388.1 431.8Z" fill="#414042" fill-rule="evenodd" opacity="1" stroke="none"/>
<path d="M417 431.8C416.2 431.8 415.5 431.1 415.5 430.3L415.5 425.8L411 425.8C410.2 425.8 409.5 425.1 409.5 424.3C409.5 423.5 410.2 422.8 411 422.8L416.9 422.8C417.7 422.8 418.4 423.5 418.4 424.3L418.4 430.2C418.5 431.2 417.9 431.8 417 431.8Z" fill="#414042" fill-rule="evenodd" opacity="1" stroke="none"/>
</g>
<g id="XMLID_129_" vectornator:layerName="XMLID_129_">
<path d="M1355.1 633L1349.2 633C1348.4 633 1347.7 632.3 1347.7 631.5C1347.7 630.7 1348.4 630 1349.2 630L1353.7 630L1353.7 625.5C1353.7 624.7 1354.4 624 1355.2 624C1356 624 1356.7 624.7 1356.7 625.5L1356.7 631.4C1356.6 632.3 1355.9 633 1355.1 633Z" fill="#414042" fill-rule="evenodd" opacity="1" stroke="none"/>
<path d="M1332.1 633L1326.2 633C1325.4 633 1324.7 632.3 1324.7 631.5L1324.7 625.6C1324.7 624.8 1325.4 624.1 1326.2 624.1C1327 624.1 1327.7 624.8 1327.7 625.6L1327.7 630.1L1332.2 630.1C1333 630.1 1333.7 630.8 1333.7 631.6C1333.6 632.3 1332.9 633 1332.1 633Z" fill="#414042" fill-rule="evenodd" opacity="1" stroke="none"/>
<path d="M1326.2 610C1325.4 610 1324.7 609.3 1324.7 608.5L1324.7 602.6C1324.7 601.8 1325.4 601.1 1326.2 601.1L1332.1 601.1C1332.9 601.1 1333.6 601.8 1333.6 602.6C1333.6 603.4 1332.9 604.1 1332.1 604.1L1327.6 604.1L1327.6 608.6C1327.7 609.3 1327 610 1326.2 610Z" fill="#414042" fill-rule="evenodd" opacity="1" stroke="none"/>
<path d="M1355.1 610C1354.3 610 1353.6 609.3 1353.6 608.5L1353.6 604L1349.1 604C1348.3 604 1347.6 603.3 1347.6 602.5C1347.6 601.7 1348.3 601 1349.1 601L1355 601C1355.8 601 1356.5 601.7 1356.5 602.5L1356.5 608.4C1356.6 609.3 1355.9 610 1355.1 610Z" fill="#414042" fill-rule="evenodd" opacity="1" stroke="none"/>
</g>
<g id="XMLID_100_" vectornator:layerName="XMLID_100_">
<path d="M881 103.6L875.1 103.6C874.3 103.6 873.6 102.9 873.6 102.1C873.6 101.3 874.3 100.6 875.1 100.6L879.6 100.6L879.6 96.1C879.6 95.3 880.3 94.6 881.1 94.6C881.9 94.6 882.6 95.3 882.6 96.1L882.6 102C882.5 103 881.8 103.6 881 103.6Z" fill="#414042" fill-rule="evenodd" opacity="1" stroke="none"/>
<path d="M858 103.6L852.1 103.6C851.3 103.6 850.6 102.9 850.6 102.1L850.6 96.2C850.6 95.4 851.3 94.7 852.1 94.7C852.9 94.7 853.6 95.4 853.6 96.2L853.6 100.7L858.1 100.7C858.9 100.7 859.6 101.4 859.6 102.2C859.5 103 858.9 103.6 858 103.6Z" fill="#414042" fill-rule="evenodd" opacity="1" stroke="none"/>
<path d="M852.1 80.7C851.3 80.7 850.6 80 850.6 79.2L850.6 73.3C850.6 72.5 851.3 71.8 852.1 71.8L858 71.8C858.8 71.8 859.5 72.5 859.5 73.3C859.5 74.1 858.8 74.8 858 74.8L853.5 74.8L853.5 79.3C853.6 80 852.9 80.7 852.1 80.7Z" fill="#414042" fill-rule="evenodd" opacity="1" stroke="none"/>
<path d="M881 80.7C880.2 80.7 879.5 80 879.5 79.2L879.5 74.7L875 74.7C874.2 74.7 873.5 74 873.5 73.2C873.5 72.4 874.2 71.7 875 71.7L880.9 71.7C881.7 71.7 882.4 72.4 882.4 73.2L882.4 79.1C882.5 80 881.8 80.7 881 80.7Z" fill="#414042" fill-rule="evenodd" opacity="1" stroke="none"/>
</g>
<g id="XMLID_329_" vectornator:layerName="XMLID_329_">
<path d="M1290.1 797.8L1248.7 797.8C1247.6 797.8 1246.7 796.9 1246.7 795.8C1246.7 794.7 1247.6 793.8 1248.7 793.8L1290.1 793.8C1291.2 793.8 1292.1 794.7 1292.1 795.8C1292.2 796.9 1291.2 797.8 1290.1 797.8Z" fill="#414042" fill-rule="evenodd" opacity="1" stroke="none"/>
</g>
<g id="XMLID_330_" vectornator:layerName="XMLID_330_">
<path d="M1290.1 806.3L1248.7 806.3C1247.6 806.3 1246.7 805.4 1246.7 804.3C1246.7 803.2 1247.6 802.3 1248.7 802.3L1290.1 802.3C1291.2 802.3 1292.1 803.2 1292.1 804.3C1292.2 805.4 1291.2 806.3 1290.1 806.3Z" fill="#414042" fill-rule="evenodd" opacity="1" stroke="none"/>
</g>
<g id="XMLID_328_" vectornator:layerName="XMLID_328_">
<path d="M1230.5 803.7C1230 803.7 1229.6 803.5 1229.2 803.2L1224.2 799C1223.3 798.3 1223.2 797 1224 796.1C1224.7 795.2 1226 795.1 1226.9 795.9L1230.3 798.8L1236.2 791.8C1236.9 790.9 1238.2 790.8 1239.1 791.6C1240 792.3 1240.1 793.6 1239.3 794.5L1232 803C1231.6 803.4 1231.1 803.7 1230.5 803.7Z" fill="#414042" fill-rule="evenodd" opacity="1" stroke="none"/>
</g>
<g id="XMLID_334_" vectornator:layerName="XMLID_334_">
<path d="M1290.1 818.2L1248.7 818.2C1247.6 818.2 1246.7 817.3 1246.7 816.2C1246.7 815.1 1247.6 814.2 1248.7 814.2L1290.1 814.2C1291.2 814.2 1292.1 815.1 1292.1 816.2C1292.2 817.2 1291.2 818.2 1290.1 818.2Z" fill="#414042" fill-rule="evenodd" opacity="1" stroke="none"/>
</g>
<g id="XMLID_333_" vectornator:layerName="XMLID_333_">
<path d="M1290.1 826.6L1248.7 826.6C1247.6 826.6 1246.7 825.7 1246.7 824.6C1246.7 823.5 1247.6 822.6 1248.7 822.6L1290.1 822.6C1291.2 822.6 1292.1 823.5 1292.1 824.6C1292.2 825.7 1291.2 826.6 1290.1 826.6Z" fill="#414042" fill-rule="evenodd" opacity="1" stroke="none"/>
</g>
<g id="XMLID_332_" vectornator:layerName="XMLID_332_">
<path d="M1230.5 824C1230 824 1229.6 823.8 1229.2 823.5L1224.2 819.3C1223.3 818.6 1223.2 817.3 1224 816.4C1224.7 815.5 1226 815.4 1226.9 816.2L1230.3 819.1L1236.2 812.1C1236.9 811.2 1238.2 811.1 1239.1 811.9C1240 812.6 1240.1 813.9 1239.3 814.8L1232 823.3C1231.6 823.8 1231.1 824 1230.5 824Z" fill="#414042" fill-rule="evenodd" opacity="1" stroke="none"/>
</g>
<g id="XMLID_105_" vectornator:layerName="XMLID_105_">
<path d="M1308.5 373.2C1301.6 373.2 1296 367.6 1296 360.7C1296 353.8 1301.6 348.2 1308.5 348.2C1315.4 348.2 1321 353.8 1321 360.7C1321 367.6 1315.4 373.2 1308.5 373.2ZM1308.5 354.3C1304.9 354.3 1302 357.2 1302 360.8C1302 364.4 1304.9 367.3 1308.5 367.3C1312.1 367.3 1315 364.4 1315 360.8C1315 357.2 1312.1 354.3 1308.5 354.3Z" fill="#efefef" fill-rule="evenodd" opacity="1" stroke="none"/>
<path d="M1302.1 350L1296.6 344.5L1292.3 348.8L1297.8 354.3C1298.9 352.6 1300.3 351.1 1302.1 350Z" fill="#efefef" fill-rule="evenodd" opacity="1" stroke="none"/>
<path d="M1308.5 348.2C1309.5 348.2 1310.6 348.3 1311.5 348.6L1311.5 340.8L1305.4 340.8L1305.4 348.6C1306.4 348.4 1307.5 348.2 1308.5 348.2Z" fill="#efefef" fill-rule="evenodd" opacity="1" stroke="none"/>
<path d="M1319.2 354.3L1324.7 348.8L1320.4 344.5L1314.9 350C1316.7 351.1 1318.2 352.6 1319.2 354.3Z" fill="#efefef" fill-rule="evenodd" opacity="1" stroke="none"/>
<path d="M1314.9 371.4L1320.4 376.9L1324.7 372.6L1319.2 367.1C1318.2 368.9 1316.7 370.4 1314.9 371.4Z" fill="#efefef" fill-rule="evenodd" opacity="1" stroke="none"/>
<path d="M1308.5 373.2C1307.5 373.2 1306.4 373.1 1305.5 372.8L1305.5 380.6L1311.6 380.6L1311.6 372.8C1310.6 373.1 1309.6 373.2 1308.5 373.2Z" fill="#efefef" fill-rule="evenodd" opacity="1" stroke="none"/>
<path d="M1320.6 357.7C1320.8 358.7 1321 359.7 1321 360.7C1321 361.7 1320.9 362.8 1320.6 363.7L1328.4 363.7L1328.4 357.6L1320.6 357.6L1320.6 357.7Z" fill="#efefef" fill-rule="evenodd" opacity="1" stroke="none"/>
<path d="M1297.8 367.2L1292.3 372.7L1296.6 377L1302.1 371.5C1300.3 370.4 1298.9 368.9 1297.8 367.2Z" fill="#efefef" fill-rule="evenodd" opacity="1" stroke="none"/>
<path d="M1296 360.7C1296 359.7 1296.1 358.6 1296.4 357.7L1288.6 357.7L1288.6 363.8L1296.4 363.8C1296.1 362.8 1296 361.8 1296 360.7Z" fill="#efefef" fill-rule="evenodd" opacity="1" stroke="none"/>
</g>
<g id="XMLID_77_" vectornator:layerName="XMLID_77_">
<path d="M1293 743.8C1284.9 743.8 1278.3 737.2 1278.3 729.1C1278.3 721 1284.9 714.4 1293 714.4C1301.1 714.4 1307.7 721 1307.7 729.1C1307.7 737.2 1301.1 743.8 1293 743.8ZM1293 721.5C1288.8 721.5 1285.4 724.9 1285.4 729.1C1285.4 733.3 1288.8 736.7 1293 736.7C1297.2 736.7 1300.6 733.3 1300.6 729.1C1300.5 724.9 1297.1 721.5 1293 721.5Z" fill="#a5cc56" fill-rule="evenodd" opacity="1" stroke="none"/>
<path d="M1285.4 716.5L1279 710.1L1274 715.1L1280.4 721.5C1281.6 719.5 1283.3 717.8 1285.4 716.5Z" fill="#a5cc56" fill-rule="evenodd" opacity="1" stroke="none"/>
<path d="M1293 714.4C1294.2 714.4 1295.4 714.6 1296.6 714.9L1296.6 705.8L1289.5 705.8L1289.5 714.9C1290.5 714.6 1291.7 714.4 1293 714.4Z" fill="#a5cc56" fill-rule="evenodd" opacity="1" stroke="none"/>
<path d="M1305.5 721.6L1311.9 715.2L1306.9 710.2L1300.5 716.6C1302.6 717.8 1304.3 719.5 1305.5 721.6Z" fill="#a5cc56" fill-rule="evenodd" opacity="1" stroke="none"/>
<path d="M1300.5 741.7L1306.9 748.1L1311.9 743.1L1305.5 736.7C1304.3 738.7 1302.6 740.5 1300.5 741.7Z" fill="#a5cc56" fill-rule="evenodd" opacity="1" stroke="none"/>
<path d="M1293 743.8C1291.8 743.8 1290.6 743.6 1289.4 743.3L1289.4 752.4L1296.5 752.4L1296.5 743.3C1295.4 743.6 1294.2 743.8 1293 743.8Z" fill="#a5cc56" fill-rule="evenodd" opacity="1" stroke="none"/>
<path d="M1307.2 725.6C1307.5 726.7 1307.7 727.9 1307.7 729.2C1307.7 730.4 1307.5 731.6 1307.2 732.8L1316.3 732.8L1316.3 725.7L1307.2 725.7L1307.2 725.6Z" fill="#a5cc56" fill-rule="evenodd" opacity="1" stroke="none"/>
<path d="M1280.4 736.7L1274 743.1L1279 748.1L1285.4 741.7C1283.3 740.5 1281.6 738.7 1280.4 736.7Z" fill="#a5cc56" fill-rule="evenodd" opacity="1" stroke="none"/>
<path d="M1278.3 729.1C1278.3 727.9 1278.5 726.7 1278.8 725.5L1269.7 725.5L1269.7 732.6L1278.8 732.6C1278.4 731.5 1278.3 730.3 1278.3 729.1Z" fill="#a5cc56" fill-rule="evenodd" opacity="1" stroke="none"/>
</g>
<g id="Untitled_3" vectornator:layerName="Untitled">
<path d="M290.6 903.2L290.4 903.2C289.6 903.2 288.9 902.5 288.9 901.7C288.9 900.9 289.6 900.2 290.4 900.2L290.6 900.2C291.4 900.2 292.1 900.9 292.1 901.7C292.1 902.5 291.4 903.2 290.6 903.2ZM282.5 903.2L274.6 903.2C273.8 903.2 273.1 902.5 273.1 901.7C273.1 900.9 273.8 900.2 274.6 900.2L282.5 900.2C283.3 900.2 284 900.9 284 901.7C284 902.5 283.3 903.2 282.5 903.2ZM266.7 903.2L258.8 903.2C258 903.2 257.3 902.5 257.3 901.7C257.3 900.9 258 900.2 258.8 900.2L266.7 900.2C267.5 900.2 268.2 900.9 268.2 901.7C268.2 902.5 267.5 903.2 266.7 903.2ZM250.8 903.2L242.9 903.2C242.1 903.2 241.4 902.5 241.4 901.7C241.4 900.9 242.1 900.2 242.9 900.2L250.8 900.2C251.6 900.2 252.3 900.9 252.3 901.7C252.3 902.5 251.6 903.2 250.8 903.2ZM235 903.2L227.1 903.2C226.3 903.2 225.6 902.5 225.6 901.7C225.6 900.9 226.3 900.2 227.1 900.2L235 900.2C235.8 900.2 236.5 900.9 236.5 901.7C236.5 902.5 235.8 903.2 235 903.2ZM219.2 903.2L211.3 903.2C210.5 903.2 209.8 902.5 209.8 901.7C209.8 900.9 210.5 900.2 211.3 900.2L219.2 900.2C220 900.2 220.7 900.9 220.7 901.7C220.7 902.5 220 903.2 219.2 903.2ZM203.4 903.2L195.5 903.2C194.7 903.2 194 902.5 194 901.7C194 900.9 194.7 900.2 195.5 900.2L203.4 900.2C204.2 900.2 204.9 900.9 204.9 901.7C204.9 902.5 204.2 903.2 203.4 903.2ZM187.5 903.2L179.6 903.2C178.8 903.2 178.1 902.5 178.1 901.7C178.1 900.9 178.8 900.2 179.6 900.2L187.5 900.2C188.3 900.2 189 900.9 189 901.7C189 902.5 188.3 903.2 187.5 903.2ZM171.7 903.2L163.8 903.2C163 903.2 162.3 902.5 162.3 901.7C162.3 900.9 163 900.2 163.8 900.2L171.7 900.2C172.5 900.2 173.2 900.9 173.2 901.7C173.2 902.5 172.5 903.2 171.7 903.2Z" fill="#414042" fill-rule="evenodd" opacity="1" stroke="none"/>
<path d="M324.2 901C324.2 894.317 329.617 888.9 336.3 888.9C342.983 888.9 348.4 894.317 348.4 901C348.4 907.683 342.983 913.1 336.3 913.1C329.617 913.1 324.2 907.683 324.2 901Z" fill="#a5cc56" fill-rule="evenodd" opacity="1" stroke="none"/>
</g>
<g id="XMLID_534_" vectornator:layerName="XMLID_534_">
<path d="M331 913.5C330.9 913.5 330.9 913.5 330.8 913.5C328.9 913.2 327.1 912.6 325.4 911.6C324.7 911.2 324.5 910.2 324.9 909.5C325.3 908.8 326.3 908.6 327 909C328.3 909.8 329.7 910.3 331.1 910.5C331.9 910.6 332.5 911.4 332.4 912.2C332.4 913 331.7 913.5 331 913.5ZM336 913.1C335.3 913.1 334.7 912.7 334.5 912C334.3 911.2 334.7 910.3 335.5 910.1C336.9 909.7 338.2 908.9 339.3 908C339.9 907.4 340.9 907.5 341.5 908.1C342.1 908.7 342 909.7 341.4 910.3C339.9 911.6 338.3 912.5 336.4 913.1C336.3 913.1 336.1 913.1 336 913.1ZM322.6 908.3C322.1 908.3 321.6 908.1 321.3 907.6C320.2 906 319.5 904.2 319.2 902.3C319.1 901.5 319.6 900.7 320.5 900.6C321.3 900.5 322.1 901 322.2 901.9C322.4 903.4 323 904.7 323.8 906C324.3 906.7 324.1 907.6 323.4 908.1C323.2 908.2 322.9 908.3 322.6 908.3ZM343.4 906.6C343.2 906.6 343 906.6 342.8 906.5C342 906.2 341.7 905.2 342 904.5C342.6 903.1 342.9 901.7 342.9 900.2C342.9 899.1 342.7 898 342.4 896.9C342.1 896.1 342.6 895.2 343.4 895C344.2 894.7 345.1 895.2 345.3 896C345.8 897.4 346 898.8 346 900.3C346 902.2 345.6 904.1 344.8 905.9C344.6 906.3 344 906.6 343.4 906.6ZM321 898.6C320.9 898.6 320.7 898.6 320.6 898.5C319.8 898.3 319.3 897.4 319.5 896.6C320 894.7 320.9 893 322.1 891.5C322.6 890.9 323.6 890.8 324.2 891.3C324.8 891.8 324.9 892.8 324.4 893.4C323.4 894.6 322.8 895.9 322.4 897.3C322.3 898.1 321.7 898.6 321 898.6ZM341.3 893.6C340.9 893.6 340.5 893.4 340.2 893.1C339.2 892 337.9 891.1 336.6 890.6C335.8 890.3 335.5 889.4 335.8 888.6C336.1 887.8 337 887.5 337.8 887.8C339.6 888.5 341.2 889.7 342.5 891.1C343.1 891.7 343 892.7 342.4 893.3C342 893.4 341.7 893.6 341.3 893.6ZM327.3 891C326.7 891 326.2 890.7 325.9 890.1C325.5 889.3 325.8 888.4 326.6 888.1C328.3 887.3 330.2 886.8 332.1 886.7L332.1 886.7C332.9 886.7 333.6 887.4 333.6 888.2C333.6 889 333 889.7 332.1 889.8C330.6 889.8 329.2 890.2 327.8 890.9C327.7 890.9 327.5 891 327.3 891Z" fill="#414042" fill-rule="evenodd" opacity="1" stroke="none"/>
</g>
<g id="XMLID_119_" vectornator:layerName="XMLID_119_">
<path d="M1300.4 913.5C1300.3 913.5 1300.3 913.5 1300.2 913.5C1298.3 913.2 1296.5 912.6 1294.8 911.6C1294.1 911.2 1293.9 910.2 1294.3 909.5C1294.7 908.8 1295.7 908.6 1296.4 909C1297.7 909.8 1299.1 910.3 1300.5 910.5C1301.3 910.6 1301.9 911.4 1301.8 912.2C1301.8 913 1301.2 913.5 1300.4 913.5ZM1305.5 913.1C1304.8 913.1 1304.2 912.7 1304 912C1303.8 911.2 1304.2 910.3 1305 910.1C1306.4 909.7 1307.7 908.9 1308.8 908C1309.4 907.4 1310.4 907.5 1311 908.1C1311.6 908.7 1311.5 909.7 1310.9 910.3C1309.4 911.6 1307.8 912.5 1305.9 913.1C1305.8 913.1 1305.6 913.1 1305.5 913.1ZM1292.1 908.3C1291.6 908.3 1291.1 908.1 1290.8 907.6C1289.7 906 1289 904.2 1288.7 902.3C1288.6 901.5 1289.1 900.7 1290 900.6C1290.8 900.5 1291.6 901 1291.7 901.9C1291.9 903.4 1292.5 904.7 1293.3 906C1293.8 906.7 1293.6 907.6 1292.9 908.1C1292.6 908.2 1292.3 908.3 1292.1 908.3ZM1312.9 906.6C1312.7 906.6 1312.5 906.6 1312.3 906.5C1311.5 906.2 1311.2 905.2 1311.5 904.5C1312.1 903.1 1312.4 901.7 1312.4 900.2C1312.4 899.1 1312.2 898 1311.9 896.9C1311.6 896.1 1312.1 895.2 1312.9 895C1313.7 894.7 1314.6 895.2 1314.8 896C1315.3 897.4 1315.5 898.8 1315.5 900.3C1315.5 902.2 1315.1 904.1 1314.3 905.9C1314 906.3 1313.5 906.6 1312.9 906.6ZM1290.5 898.6C1290.4 898.6 1290.2 898.6 1290.1 898.5C1289.3 898.3 1288.8 897.4 1289 896.6C1289.5 894.7 1290.4 893 1291.6 891.5C1292.1 890.9 1293.1 890.8 1293.7 891.3C1294.3 891.8 1294.4 892.8 1293.9 893.4C1292.9 894.6 1292.3 895.9 1291.9 897.3C1291.8 898.1 1291.1 898.6 1290.5 898.6ZM1310.8 893.6C1310.4 893.6 1310 893.4 1309.7 893.1C1308.7 892 1307.4 891.1 1306.1 890.6C1305.3 890.3 1305 889.4 1305.3 888.6C1305.6 887.8 1306.5 887.5 1307.3 887.8C1309.1 888.5 1310.7 889.7 1312 891.1C1312.6 891.7 1312.5 892.7 1311.9 893.3C1311.5 893.4 1311.1 893.6 1310.8 893.6ZM1296.8 891C1296.2 891 1295.7 890.7 1295.4 890.1C1295 889.3 1295.3 888.4 1296.1 888.1C1297.8 887.3 1299.7 886.8 1301.6 886.7L1301.6 886.7C1302.4 886.7 1303.1 887.4 1303.1 888.2C1303.1 889 1302.5 889.7 1301.6 889.8C1300.1 889.8 1298.7 890.2 1297.3 890.9C1297.2 890.9 1297 891 1296.8 891Z" fill="#414042" fill-rule="evenodd" opacity="1" stroke="none"/>
</g>
<g id="Untitled_4" vectornator:layerName="Untitled">
<path d="M508.8 675.5L349 675.5C316.5 675.5 290.1 701.9 290.1 734.4L290.1 764.5C290.1 797.5 263.3 824.3 230.3 824.3L207.2 824.3C205.3 824.3 203.7 825.8 203.7 827.8L203.7 827.8C203.7 829.7 205.2 831.3 207.2 831.3L230.3 831.3C267.1 831.3 297 801.4 297 764.6L297 734.5C297 705.8 320.3 682.5 349 682.5L508.7 682.5C510.4 682.5 511.9 681.4 512.2 679.8C512.7 677.4 511 675.5 508.8 675.5Z" fill="#4d4d4d" fill-rule="evenodd" opacity="1" stroke="none"/>
</g>
</svg>
