<?xml version="1.0" encoding="UTF-8" standalone="no"?>
<!DOCTYPE svg PUBLIC "-//W3C//DTD SVG 1.1//EN" "http://www.w3.org/Graphics/SVG/1.1/DTD/svg11.dtd">
<!-- Created with Vectornator (http://vectornator.io/) -->
<svg height="100%" stroke-miterlimit="10" style="fill-rule:nonzero;clip-rule:evenodd;stroke-linecap:round;stroke-linejoin:round;" version="1.1" viewBox="0 0 122 24" width="100%" xml:space="preserve" xmlns="http://www.w3.org/2000/svg" xmlns:vectornator="http://vectornator.io" xmlns:xlink="http://www.w3.org/1999/xlink">
<defs>
<clipPath id="TextBounds">
<rect height="23.5591" width="76.2565" x="47.0584" y="0.303011"/>
</clipPath>
</defs>
<clipPath id="ArtboardFrame">
<rect height="24" width="122" x="0" y="0"/>
</clipPath>
<g clip-path="url(#ArtboardFrame)" id="Untitled" vectornator:layerName="Untitled">
<path d="M33.2502 1.139C34.7689-0.379666 37.2311-0.379669 38.7498 1.139L46.861 9.2502C48.3797 10.7689 48.3797 13.2311 46.861 14.7498L38.7498 22.861C37.2311 24.3797 34.7689 24.3797 33.2502 22.861L25.139 14.7498C23.6203 13.2311 23.6203 10.7689 25.139 9.2502L33.2502 1.139Z" fill="#a2d6f9" fill-rule="evenodd" opacity="1" stroke="none"/>
<path d="M21.2502 1.139C22.7689-0.379666 25.2311-0.379669 26.7498 1.139L34.861 9.2502C36.3797 10.7689 36.3797 13.2311 34.861 14.7498L26.7498 22.861C25.2311 24.3797 22.7689 24.3797 21.2502 22.861L13.139 14.7498C11.6203 13.2311 11.6203 10.7689 13.139 9.2502L21.2502 1.139Z" fill="#1e96fc" fill-rule="evenodd" opacity="1" stroke="none"/>
<path d="M9.2502 1.139C10.7689-0.379666 13.2311-0.379669 14.7498 1.139L22.861 9.2502C24.3797 10.7689 24.3797 13.2311 22.861 14.7498L14.7498 22.861C13.2311 24.3797 10.7689 24.3797 9.2502 22.861L1.139 14.7498C-0.379666 13.2311-0.379669 10.7689 1.139 9.2502L9.2502 1.139Z" fill="#072ac8" fill-rule="evenodd" opacity="1" stroke="none"/>
<g fill="#072ac8" opacity="1" stroke="none">
<path clip-path="url(#TextBounds)" d="M64.55 4.07352L64.55 18.303L61.3156 18.303L61.3156 8.69657L60.0236 18.303L57.7297 18.303L56.3674 8.91629L56.3674 18.303L53.133 18.303L53.133 4.07352L57.923 4.07352C58.0637 4.92899 58.2131 5.9368 58.3713 7.09696L58.881 10.7181L59.7248 4.07352L64.55 4.07352Z" fill-rule="evenodd"/>
<path clip-path="url(#TextBounds)" d="M66.0353 4.07352L72.2053 4.07352L72.2053 6.92118L69.7355 6.92118L69.7355 9.61942L72.0471 9.61942L72.0471 12.3264L69.7355 12.3264L69.7355 15.4554L72.4514 15.4554L72.4514 18.303L66.0353 18.303L66.0353 4.07352Z" fill-rule="evenodd"/>
<path clip-path="url(#TextBounds)" d="M73.5148 4.07352L79.6848 4.07352L79.6848 6.92118L77.215 6.92118L77.215 9.61942L79.5266 9.61942L79.5266 12.3264L77.215 12.3264L77.215 15.4554L79.9309 15.4554L79.9309 18.303L73.5148 18.303L73.5148 4.07352Z" fill-rule="evenodd"/>
<path clip-path="url(#TextBounds)" d="M80.9943 4.07352L83.6135 4.07352C85.3596 4.07352 86.5417 4.1409 87.1599 4.27567C87.778 4.41043 88.2819 4.75467 88.6716 5.30838C89.0612 5.86209 89.256 6.74539 89.256 7.95828C89.256 9.06571 89.1184 9.80985 88.843 10.1907C88.5676 10.5716 88.0256 10.8001 87.217 10.8763C87.9494 11.0579 88.4416 11.3011 88.6935 11.6057C88.9455 11.9104 89.1022 12.1902 89.1638 12.4451C89.2253 12.7 89.256 13.4016 89.256 14.5501L89.256 18.303L85.8195 18.303L85.8195 13.5745C85.8195 12.8128 85.7595 12.3411 85.6393 12.1595C85.5192 11.9778 85.2043 11.887 84.6945 11.887L84.6945 18.303L80.9943 18.303L80.9943 4.07352ZM84.6945 6.50809L84.6945 9.67215C85.1105 9.67215 85.402 9.61502 85.569 9.50077C85.736 9.38651 85.8195 9.0159 85.8195 8.38895L85.8195 7.60672C85.8195 7.15555 85.739 6.85965 85.5778 6.71903C85.4167 6.5784 85.1223 6.50809 84.6945 6.50809Z" fill-rule="evenodd"/>
<path clip-path="url(#TextBounds)" d="M97.0783 4.07352L99.1965 18.303L95.4084 18.303L95.2238 15.7454L93.8967 15.7454L93.6769 18.303L89.8449 18.303L91.7258 4.07352L97.0783 4.07352ZM95.1184 13.2229C94.9309 11.6116 94.7434 9.62235 94.5559 7.25516C94.1809 9.97391 93.9465 11.9632 93.8527 13.2229L95.1184 13.2229Z" fill-rule="evenodd"/>
<path clip-path="url(#TextBounds)" d="M108.091 4.07352L108.091 18.303L104.848 18.303L102.923 11.8343L102.923 18.303L99.8293 18.303L99.8293 4.07352L102.923 4.07352L104.997 10.4807L104.997 4.07352L108.091 4.07352Z" fill-rule="evenodd"/>
<path clip-path="url(#TextBounds)" d="M115.966 4.07352L118.084 18.303L114.296 18.303L114.112 15.7454L112.784 15.7454L112.565 18.303L108.733 18.303L110.613 4.07352L115.966 4.07352ZM114.006 13.2229C113.819 11.6116 113.631 9.62235 113.444 7.25516C113.069 9.97391 112.834 11.9632 112.74 13.2229L114.006 13.2229Z" fill-rule="evenodd"/>
</g>
</g>
</svg>
