<?xml version="1.0" encoding="UTF-8" standalone="no"?>
<!DOCTYPE svg PUBLIC "-//W3C//DTD SVG 1.1//EN" "http://www.w3.org/Graphics/SVG/1.1/DTD/svg11.dtd">
<!-- Created with Vectornator (http://vectornator.io/) -->
<svg height="100%" stroke-miterlimit="10" style="fill-rule:nonzero;clip-rule:evenodd;stroke-linecap:round;stroke-linejoin:round;" version="1.1" viewBox="0 0 512 512" width="100%" xml:space="preserve" xmlns="http://www.w3.org/2000/svg" xmlns:vectornator="http://vectornator.io" xmlns:xlink="http://www.w3.org/1999/xlink">
<defs/>
<g id="Layer-1" vectornator:layerName="Layer 1">
<g opacity="1">
<path d="M316.73 252.646L301.657 252.646L294.096 239.572L301.64 226.501L316.746 226.501L324.291 239.572L316.73 252.646ZM310.184 263.998L279.991 263.998L292.148 242.944L299.71 256.02L314.783 256.02L310.184 263.998ZM286.589 223.127L283.899 227.77L279.041 236.198L271.498 223.127L256.375 223.127L258.682 219.129L260.989 215.131L304.306 215.131L302 219.129L299.692 223.127L286.589 223.127ZM269.534 252.646L254.442 252.646L246.883 239.573L254.427 226.501L269.549 226.501L277.094 239.572L269.534 252.646ZM255.441 277.07L248.857 265.683L254.442 256.02L267.586 256.02L255.441 277.07ZM245.935 293.517L230.829 293.517L223.285 280.443L230.829 267.371L245.935 267.371L251.896 277.678L253.494 280.444L245.935 293.517ZM244.935 242.946L251.522 254.333L245.936 263.998L232.777 263.998L244.935 242.946ZM239.392 223.127L231.843 236.2L224.283 223.127L209.194 223.127L213.81 215.131L257.094 215.131L254.786 219.129L252.479 223.127L239.392 223.127ZM229.897 239.574L222.337 252.646L207.246 252.646L199.687 239.574L207.246 226.501L222.337 226.501L229.897 239.574ZM208.245 277.07L204.165 270.014L201.66 265.683L207.246 256.02L220.39 256.02L208.245 277.07ZM198.754 293.517L183.632 293.517L176.088 280.46L183.649 267.371L198.738 267.371L206.298 280.444L198.754 293.517ZM192.193 304.869L161.997 304.869L174.142 283.835L181.685 296.89L196.806 296.89L192.193 304.869ZM197.74 242.947L204.325 254.333L198.739 263.998L185.595 263.998L197.74 242.947ZM308.203 215.131L323.291 215.131L330.836 228.219L326.238 236.198L318.695 223.127L303.587 223.127L305.895 219.129L308.203 215.131ZM226.933 293.517L215.745 293.517L221.337 283.82L226.346 292.499L226.933 293.517ZM328.185 239.573L334.729 228.222L325.239 211.758L310.15 211.758L306.253 211.758L262.937 211.758L259.041 211.758L211.861 211.758L204.499 224.513L197.738 236.204L197.735 236.2L195.896 239.39L195.789 239.574L195.79 239.574L181.509 264.331L174.14 277.088L174.138 277.085L156.157 308.243L194.14 308.243L200.702 296.89L200.703 296.89L201.469 295.563L202.651 293.517L202.65 293.517L208.248 283.816L208.248 283.817L209.966 280.838L210.194 280.443L224.66 255.367L231.845 242.943L231.848 242.947L233.737 239.672L233.794 239.574L233.794 239.573L241.335 226.501L250.532 226.501L243.639 238.444L226.932 267.371L226.933 267.371L221.336 277.069L221.335 277.068L209.891 296.89L228.88 296.89L232.776 296.89L247.882 296.89L255.443 283.814L255.445 283.817L256.984 281.148L257.392 280.443L271.855 255.369L279.041 242.945L279.042 242.949L280.565 240.31L280.989 239.575L280.989 239.574L288.53 226.501L297.745 226.501L290.201 239.575L274.145 267.371L312.132 267.371L319.311 254.921L326.237 242.945L326.239 242.949L327.504 240.753L328.186 239.575L328.185 239.573Z" fill="#0433bf" fill-rule="evenodd" opacity="1" stroke="none"/>
<path d="M353.051 216.824L357.181 216.824L357.016 217.713L355.526 217.713L354.685 222.454L353.552 222.454L354.387 217.713L352.886 217.713L353.051 216.824Z" fill="#0433bf" fill-rule="evenodd" opacity="1" stroke="none"/>
<path d="M357.707 216.824L358.989 216.824L360.043 221.001L362.561 216.824L363.843 216.824L362.853 222.454L361.714 222.454L362.358 218.809L360.214 222.454L359.352 222.454L358.489 218.798L357.84 222.454L356.707 222.454L357.707 216.824Z" fill="#0433bf" fill-rule="evenodd" opacity="1" stroke="none"/>
</g>
</g>
</svg>
