<?xml version="1.0" encoding="UTF-8" standalone="no"?>
<!DOCTYPE svg PUBLIC "-//W3C//DTD SVG 1.1//EN" "http://www.w3.org/Graphics/SVG/1.1/DTD/svg11.dtd">
<!-- Created with Vectornator (http://vectornator.io/) -->
<svg height="100%" stroke-miterlimit="10" style="fill-rule:nonzero;clip-rule:evenodd;stroke-linecap:round;stroke-linejoin:round;" version="1.1" viewBox="0 0 122 24" width="100%" xml:space="preserve" xmlns="http://www.w3.org/2000/svg" xmlns:vectornator="http://vectornator.io" xmlns:xlink="http://www.w3.org/1999/xlink">
<defs>
<path d="M-56.6057-94.9715L165.651-94.9715L165.651 125.924L-56.6057 125.924L-56.6057-94.9715Z" fill-rule="evenodd" id="Fill"/>
</defs>
<clipPath id="ArtboardFrame">
<rect height="24" width="122" x="0" y="0"/>
</clipPath>
<g clip-path="url(#ArtboardFrame)" id="Untitled" vectornator:layerName="Untitled">
<path d="M38.229 10.3073L34.6602 10.3073L32.8705 7.21207L34.6564 4.11766L38.2324 4.11766L40.0187 7.21207L38.229 10.3073ZM36.6791 12.9951L29.5312 12.9951L32.4092 8.01056L34.1993 11.1062L37.7677 11.1062L36.6791 12.9951ZM31.093 3.31875L30.4559 4.418L29.3063 6.41358L27.5204 3.31875L23.9401 3.31875L24.4861 2.37242L25.0326 1.42567L35.2875 1.42567L34.7415 2.37242L34.1951 3.31875L31.093 3.31875ZM27.0553 10.3073L23.4822 10.3073L21.6925 7.21207L23.4788 4.11766L27.0591 4.11766L28.845 7.21207L27.0553 10.3073ZM23.719 16.0895L22.1597 13.3937L23.4822 11.1062L26.594 11.1062L23.719 16.0895ZM21.4684 19.9837L17.8919 19.9837L16.1056 16.8884L17.8919 13.7931L21.4684 13.7931L22.8794 16.2335L23.2577 16.8884L21.4684 19.9837ZM21.2316 8.01098L22.7909 10.7068L21.4684 12.9951L18.3532 12.9951L21.2316 8.01098ZM19.9188 3.31875L18.1321 6.41358L16.3419 3.31875L12.7697 3.31875L13.8626 1.42567L24.11 1.42567L23.5639 2.37242L23.0175 3.31875L19.9188 3.31875ZM17.6712 7.2125L15.8815 10.3073L12.3088 10.3073L10.5191 7.2125L12.3088 4.11766L15.8815 4.11766L17.6712 7.2125ZM12.5452 16.0895L11.579 14.4192L10.9859 13.3937L12.3088 11.1062L15.4206 11.1062L12.5452 16.0895ZM10.298 19.9837L6.71771 19.9837L4.93223 16.8922L6.72195 13.7931L10.2946 13.7931L12.0839 16.8884L10.298 19.9837ZM8.74464 22.671L1.59594 22.671L4.47135 17.6916L6.25683 20.7822L9.83712 20.7822L8.74464 22.671ZM10.0582 8.01141L11.6171 10.7068L10.295 12.9951L7.18282 12.9951L10.0582 8.01141ZM36.2097 1.42567L39.7819 1.42567L41.5687 4.52432L40.4796 6.41358L38.6941 3.31875L35.1172 3.31875L35.6633 2.37242L36.2097 1.42567ZM16.9693 19.9837L14.3209 19.9837L15.6447 17.6877L16.8304 19.7422L16.9693 19.9837ZM40.9405 7.2125L42.49 4.52517L40.2433 0.627181L36.6706 0.627181L35.7488 0.627181L25.4934 0.627181L24.5713 0.627181L13.4013 0.627181L11.6582 3.64704L10.0574 6.41486L10.057 6.41401L9.6215 7.16887L9.59609 7.2125L6.21574 13.0735L4.47092 16.0937L4.4705 16.0933L0.213302 23.4699L9.20595 23.4699L10.7593 20.7822L10.9406 20.4678L11.221 19.9837L11.2206 19.9837L12.5456 17.6869L12.546 17.6873L12.9527 16.982L13.0065 16.8884L16.4313 10.9516L18.1325 8.01014L18.1334 8.01141L18.5803 7.2358L18.5938 7.2125L20.3789 4.11766L22.5566 4.11766L20.9245 6.94521L16.9693 13.7931L15.6447 16.0895L15.6447 16.0891L12.9349 20.7822L17.4302 20.7822L18.3528 20.7822L21.9292 20.7822L23.719 17.6865L23.7198 17.6873L24.0841 17.0553L24.1807 16.8884L24.1807 16.888L27.6047 10.952L29.3063 8.01098L29.3067 8.01141L29.6668 7.3866L29.7672 7.21292L29.7672 7.2125L31.5522 4.11766L33.7342 4.11766L31.9479 7.21292L28.1469 13.7931L37.1404 13.7931L38.8394 10.8457L40.4792 8.01098L40.4796 8.01141L40.7795 7.49208L40.9409 7.21292L40.9405 7.2125Z" fill="#16db65" fill-rule="evenodd" opacity="1" stroke="none"/>
<path d="M41.7049 1.38365L42.6826 1.38365L42.6436 1.59418L42.2908 1.59418L42.0917 2.7163L41.8231 2.7163L42.0209 1.59418L41.666 1.59418L41.7049 1.38365Z" fill="#16db65" fill-rule="evenodd" opacity="1" stroke="none"/>
<path d="M42.8071 1.38365L43.1109 1.38365L43.3604 2.37234L43.956 1.38365L44.2597 1.38365L44.0254 2.7163L43.7556 2.7163L43.9081 1.85342L43.4002 2.7163L43.1964 2.7163L42.9923 1.85131L42.8385 2.7163L42.5699 2.7163L42.8071 1.38365Z" fill="#16db65" fill-rule="evenodd" opacity="1" stroke="none"/>
<path d="M55.1955 7.30287L52.0056 13.5943L51.9274 13.5943L48.8658 7.30287L46.2274 7.30287L46.2274 15.979L48.1374 15.979L48.1374 9.90852L48.2319 9.90852L51.0758 15.979L52.7344 15.979L55.6853 9.90852L55.7803 9.90852L55.7803 15.979L57.7227 15.979L57.7227 7.30287L55.1955 7.30287Z" fill="#16db65" fill-rule="evenodd" opacity="1" stroke="none"/>
<path d="M61.2747 14.175L61.2747 12.4493L66.625 12.4493L66.625 10.6775L61.2747 10.6775L61.2747 9.07464L67.226 9.07464L67.226 7.30287L59.2989 7.30287L59.2989 15.979L67.4478 15.979L67.4478 14.175L61.2747 14.175Z" fill="#16db65" fill-rule="evenodd" opacity="1" stroke="none"/>
<path d="M70.8886 14.175L70.8886 12.4493L76.2432 12.4493L76.2432 10.6775L70.8886 10.6775L70.8886 9.07464L76.8405 9.07464L76.8405 7.30287L68.9175 7.30287L68.9175 15.979L77.0623 15.979L77.0623 14.175L70.8886 14.175Z" fill="#16db65" fill-rule="evenodd" opacity="1" stroke="none"/>
<g opacity="1">
<use fill="#16db65" opacity="0" stroke="none" xlink:href="#Fill"/>
<clipPath id="ClipPath">
<use xlink:href="#Fill"/>
</clipPath>
<g clip-path="url(#ClipPath)">
<path d="M84.8366 11.8519C84.5283 12.1258 84.1125 12.2611 83.598 12.2611L80.5031 12.2611L80.5031 9.09074L83.598 9.09074C84.1125 9.09074 84.5283 9.23801 84.8366 9.53254C85.1497 9.82292 85.302 10.2155 85.302 10.7065C85.302 11.2012 85.1497 11.5818 84.8366 11.8519M87.2773 10.7065C87.2773 9.70419 86.9398 8.88641 86.261 8.25226C85.5817 7.61811 84.7218 7.30333 83.6763 7.30333L78.5315 7.30333L78.5315 15.979L80.5031 15.979L80.5031 14.0485L83.7587 14.0485L84.7834 15.979L86.9314 15.979L85.59 13.5947C86.7138 12.9891 87.2773 12.0277 87.2773 10.7065" fill="#16db65" fill-rule="evenodd" opacity="1" stroke="none"/>
<path d="M95.2656 7.30287L92.0595 7.30287L88.2566 15.979L90.3722 15.979L93.2898 9.04565L93.9733 9.04565L96.8918 15.979L98.9782 15.979L95.2656 7.30287Z" fill="#16db65" fill-rule="evenodd" opacity="1" stroke="none"/>
<path d="M107.329 7.30287L107.329 13.14L102.102 7.30287L100.238 7.30287L100.238 15.979L102.18 15.979L102.18 10.1253L107.407 15.979L109.288 15.979L109.288 7.30287L107.329 7.30287Z" fill="#16db65" fill-rule="evenodd" opacity="1" stroke="none"/>
<path d="M117.561 7.30287L114.354 7.30287L110.548 15.979L112.651 15.979L115.568 9.04565L116.264 9.04565L116.659 10.019L116.688 10.0926L118.614 14.6619L118.618 14.6619L119.186 15.979L121.269 15.979L117.561 7.30287Z" fill="#16db65" fill-rule="evenodd" opacity="1" stroke="none"/>
</g>
</g>
</g>
</svg>
