<?xml version="1.0" encoding="UTF-8" standalone="no"?>
<!DOCTYPE svg PUBLIC "-//W3C//DTD SVG 1.1//EN" "http://www.w3.org/Graphics/SVG/1.1/DTD/svg11.dtd">
<!-- Created with Vectornator (http://vectornator.io/) -->
<svg height="100%" stroke-miterlimit="10" style="fill-rule:nonzero;clip-rule:evenodd;stroke-linecap:round;stroke-linejoin:round;" version="1.1" viewBox="0 0 122 24" width="100%" xml:space="preserve" xmlns="http://www.w3.org/2000/svg" xmlns:vectornator="http://vectornator.io" xmlns:xlink="http://www.w3.org/1999/xlink">
<defs>
<clipPath id="TextBounds">
<rect height="23.6984" width="75.2529" x="47.2559" y="2.68209"/>
</clipPath>
</defs>
<clipPath id="ArtboardFrame">
<rect height="24" width="122" x="0" y="0"/>
</clipPath>
<g clip-path="url(#ArtboardFrame)" id="Untitled" vectornator:layerName="Untitled">
<path d="M33.2502 1.139C34.7689-0.379666 37.2311-0.379669 38.7498 1.139L46.861 9.2502C48.3797 10.7689 48.3797 13.2311 46.861 14.7498L38.7498 22.861C37.2311 24.3797 34.7689 24.3797 33.2502 22.861L25.139 14.7498C23.6203 13.2311 23.6203 10.7689 25.139 9.2502L33.2502 1.139Z" fill="#04471c" fill-rule="evenodd" opacity="1" stroke="none"/>
<path d="M21.2502 1.139C22.7689-0.379666 25.2311-0.379669 26.7498 1.139L34.861 9.2502C36.3797 10.7689 36.3797 13.2311 34.861 14.7498L26.7498 22.861C25.2311 24.3797 22.7689 24.3797 21.2502 22.861L13.139 14.7498C11.6203 13.2311 11.6203 10.7689 13.139 9.2502L21.2502 1.139Z" fill="#058c42" fill-rule="evenodd" opacity="1" stroke="none"/>
<path d="M9.2502 1.139C10.7689-0.379666 13.2311-0.379669 14.7498 1.139L22.861 9.2502C24.3797 10.7689 24.3797 13.2311 22.861 14.7498L14.7498 22.861C13.2311 24.3797 10.7689 24.3797 9.2502 22.861L1.139 14.7498C-0.379666 13.2311-0.379669 10.7689 1.139 9.2502L9.2502 1.139Z" fill="#16db65" fill-rule="evenodd" opacity="1" stroke="none"/>
<g fill="#16db65" opacity="1" stroke="none">
<path clip-path="url(#TextBounds)" d="M49.6763 7.37643L53.4595 7.37643L54.9194 13.0385L56.3731 7.37643L60.1436 7.37643L60.1436 16.6821L57.7949 16.6821L57.7949 9.58541L55.9732 16.6821L53.8467 16.6821L52.0313 9.58541L52.0313 16.6821L49.6763 16.6821L49.6763 7.37643Z" fill-rule="evenodd"/>
<path clip-path="url(#TextBounds)" d="M61.9717 7.37643L69.6778 7.37643L69.6778 9.36325L64.8535 9.36325L64.8535 10.8423L69.3286 10.8423L69.3286 12.7402L64.8535 12.7402L64.8535 14.5747L69.8174 14.5747L69.8174 16.6821L61.9717 16.6821L61.9717 7.37643Z" fill-rule="evenodd"/>
<path clip-path="url(#TextBounds)" d="M71.3599 7.37643L79.0659 7.37643L79.0659 9.36325L74.2417 9.36325L74.2417 10.8423L78.7168 10.8423L78.7168 12.7402L74.2417 12.7402L74.2417 14.5747L79.2056 14.5747L79.2056 16.6821L71.3599 16.6821L71.3599 7.37643Z" fill-rule="evenodd"/>
<path clip-path="url(#TextBounds)" d="M80.7925 16.6821L80.7925 7.37643L85.585 7.37643C86.4736 7.37643 87.1528 7.4526 87.6226 7.60495C88.0923 7.75729 88.471 8.03976 88.7588 8.45236C89.0466 8.86496 89.1904 9.36748 89.1904 9.95993C89.1904 10.4762 89.0804 10.9216 88.8604 11.2961C88.6403 11.6706 88.3377 11.9742 87.9527 12.207C87.7072 12.3551 87.3708 12.4778 86.9434 12.5752C87.2861 12.6894 87.5358 12.8037 87.6924 12.9179C87.7982 12.9941 87.9516 13.157 88.1526 13.4067C88.3536 13.6564 88.488 13.8489 88.5557 13.9843L89.9458 16.6821L86.6958 16.6821L85.1597 13.8383C84.965 13.4702 84.7915 13.2311 84.6392 13.1211C84.4318 12.9772 84.197 12.9052 83.9346 12.9052L83.6807 12.9052L83.6807 16.6821L80.7925 16.6821ZM83.6807 11.1469L84.8931 11.1469C85.0243 11.1469 85.2782 11.1046 85.6548 11.02C85.8452 10.9819 86.0007 10.8846 86.1214 10.728C86.242 10.5714 86.3023 10.3916 86.3023 10.1884C86.3023 9.88799 86.207 9.65735 86.0166 9.49655C85.8262 9.33574 85.4686 9.25534 84.9439 9.25534L83.6807 9.25534L83.6807 11.1469Z" fill-rule="evenodd"/>
<path clip-path="url(#TextBounds)" d="M96.5918 15.146L93.3164 15.146L92.8657 16.6821L89.9268 16.6821L93.4243 7.37643L96.5601 7.37643L100.058 16.6821L97.0488 16.6821L96.5918 15.146ZM95.9888 13.1338L94.9605 9.78854L93.9385 13.1338L95.9888 13.1338Z" fill-rule="evenodd"/>
<path clip-path="url(#TextBounds)" d="M100.997 7.37643L103.682 7.37643L107.186 12.5244L107.186 7.37643L109.897 7.37643L109.897 16.6821L107.186 16.6821L103.701 11.5722L103.701 16.6821L100.997 16.6821L100.997 7.37643Z" fill-rule="evenodd"/>
<path clip-path="url(#TextBounds)" d="M117.533 15.146L114.257 15.146L113.807 16.6821L110.868 16.6821L114.365 7.37643L117.501 7.37643L120.999 16.6821L117.99 16.6821L117.533 15.146ZM116.93 13.1338L115.901 9.78854L114.879 13.1338L116.93 13.1338Z" fill-rule="evenodd"/>
</g>
</g>
</svg>
